Grand_Central-Bold.ufo
<glyph name="exclam" format="1">
  <advance width="320"/>
  <unicode hex="0021"/>
  <outline>
    <contour>
      <point x="229" y="701" type="curve"/>
      <point x="228" y="684"/>
      <point x="227" y="664"/>
      <point x="227" y="634" type="curve" smooth="yes"/>
      <point x="227" y="623" type="line" smooth="yes"/>
      <point x="227" y="522"/>
      <point x="203" y="345"/>
      <point x="172" y="205" type="curve"/>
      <point x="148" y="205" type="line"/>
      <point x="117" y="345"/>
      <point x="93" y="529"/>
      <point x="93" y="615" type="curve" smooth="yes"/>
      <point x="93" y="618" type="line" smooth="yes"/>
      <point x="93" y="653"/>
      <point x="91" y="687"/>
      <point x="90" y="700" type="curve"/>
      <point x="124" y="700"/>
      <point x="201" y="700"/>
    </contour>
    <contour>
      <point x="236" y="71" type="curve" smooth="yes"/>
      <point x="236" y="29"/>
      <point x="202" y="-5"/>
      <point x="160" y="-5" type="curve" smooth="yes"/>
      <point x="118" y="-5"/>
      <point x="84" y="29"/>
      <point x="84" y="71" type="curve" smooth="yes"/>
      <point x="84" y="113"/>
      <point x="118" y="147"/>
      <point x="160" y="147" type="curve" smooth="yes"/>
      <point x="202" y="147"/>
      <point x="236" y="113"/>
    </contour>
  </outline>
</glyph>
<glyph name="quotedbl" format="1">
  <advance width="470"/>
  <unicode hex="0022"/>
  <outline>
    <contour>
      <point x="394" y="670" type="line" smooth="yes"/>
      <point x="394" y="580"/>
      <point x="375" y="492"/>
      <point x="349" y="412" type="curve"/>
      <point x="321" y="412" type="line"/>
      <point x="295" y="492"/>
      <point x="276" y="580"/>
      <point x="276" y="670" type="curve" smooth="yes"/>
      <point x="276" y="700" type="line"/>
      <point x="394" y="700" type="line"/>
    </contour>
    <contour>
      <point x="194" y="670" type="line" smooth="yes"/>
      <point x="194" y="580"/>
      <point x="175" y="492"/>
      <point x="149" y="412" type="curve"/>
      <point x="121" y="412" type="line"/>
      <point x="95" y="492"/>
      <point x="76" y="580"/>
      <point x="76" y="670" type="curve" smooth="yes"/>
      <point x="76" y="700" type="line"/>
      <point x="194" y="700" type="line"/>
    </contour>
  </outline>
</glyph>
<glyph name="numbersign" format="1">
  <advance width="680"/>
  <unicode hex="0023"/>
  <outline>
    <contour>
      <point x="638" y="373" type="line"/>
      <point x="476" y="396" type="line"/>
      <point x="451" y="269" type="line"/>
      <point x="601" y="247" type="line"/>
      <point x="601" y="145" type="line"/>
      <point x="432" y="169" type="line"/>
      <point x="398" y="-4" type="line"/>
      <point x="352" y="-4" type="line"/>
      <point x="387" y="176" type="line"/>
      <point x="230" y="198" type="line"/>
      <point x="190" y="-4" type="line"/>
      <point x="144" y="-4" type="line"/>
      <point x="185" y="204" type="line"/>
      <point x="42" y="225" type="line"/>
      <point x="42" y="327" type="line"/>
      <point x="204" y="304" type="line"/>
      <point x="229" y="431" type="line"/>
      <point x="79" y="453" type="line"/>
      <point x="79" y="555" type="line"/>
      <point x="248" y="531" type="line"/>
      <point x="282" y="704" type="line"/>
      <point x="328" y="704" type="line"/>
      <point x="293" y="524" type="line"/>
      <point x="450" y="502" type="line"/>
      <point x="490" y="704" type="line"/>
      <point x="536" y="704" type="line"/>
      <point x="495" y="496" type="line"/>
      <point x="638" y="475" type="line"/>
    </contour>
    <contour>
      <point x="431" y="402" type="line"/>
      <point x="274" y="425" type="line"/>
      <point x="249" y="298" type="line"/>
      <point x="406" y="275" type="line"/>
    </contour>
  </outline>
</glyph>
<glyph name="dollar" format="1">
  <advance width="635"/>
  <unicode hex="0024"/>
  <outline>
    <contour>
      <point x="587" y="224" type="curve" smooth="yes"/>
      <point x="587" y="85"/>
      <point x="459" y="1"/>
      <point x="295" y="-1" type="curve"/>
      <point x="280" y="-125" type="line"/>
      <point x="238" y="-125" type="line"/>
      <point x="253" y="0" type="line"/>
      <point x="169" y="3"/>
      <point x="107" y="21"/>
      <point x="46" y="48" type="curve"/>
      <point x="40" y="191" type="line"/>
      <point x="55" y="194" type="line"/>
      <point x="96" y="125"/>
      <point x="157" y="75"/>
      <point x="261" y="64" type="curve"/>
      <point x="292" y="324" type="line"/>
      <point x="126" y="363"/>
      <point x="75" y="412"/>
      <point x="75" y="514" type="curve" smooth="yes"/>
      <point x="75" y="618"/>
      <point x="171" y="700"/>
      <point x="328" y="700" type="curve" smooth="yes"/>
      <point x="331" y="700"/>
      <point x="334" y="700"/>
      <point x="338" y="700" type="curve"/>
      <point x="348" y="785" type="line"/>
      <point x="390" y="785" type="line"/>
      <point x="379" y="698" type="line"/>
      <point x="441" y="694"/>
      <point x="494" y="682"/>
      <point x="542" y="666" type="curve"/>
      <point x="533" y="561" type="line"/>
      <point x="517" y="559" type="line"/>
      <point x="485" y="595"/>
      <point x="442" y="622"/>
      <point x="371" y="633" type="curve"/>
      <point x="347" y="435" type="line"/>
      <point x="351" y="434"/>
      <point x="354" y="434"/>
      <point x="357" y="433" type="curve"/>
      <point x="528" y="393"/>
      <point x="587" y="334"/>
    </contour>
    <contour>
      <point x="330" y="636" type="line"/>
      <point x="323" y="637"/>
      <point x="315" y="637"/>
      <point x="307" y="637" type="curve" smooth="yes"/>
      <point x="214" y="637"/>
      <point x="179" y="595"/>
      <point x="179" y="551" type="curve" smooth="yes"/>
      <point x="179" y="506"/>
      <point x="195" y="477"/>
      <point x="307" y="445" type="curve"/>
    </contour>
    <contour>
      <point x="482" y="184" type="curve" smooth="yes"/>
      <point x="482" y="251"/>
      <point x="449" y="284"/>
      <point x="333" y="314" type="curve"/>
      <point x="303" y="62" type="line"/>
      <point x="419" y="62"/>
      <point x="482" y="104"/>
    </contour>
  </outline>
</glyph>
<glyph name="percent" format="1">
  <advance width="940"/>
  <unicode hex="0025"/>
  <outline>
    <contour>
      <point x="422" y="513" type="curve" smooth="yes"/>
      <point x="422" y="396"/>
      <point x="329" y="310"/>
      <point x="228" y="310" type="curve" smooth="yes"/>
      <point x="126" y="310"/>
      <point x="35" y="383"/>
      <point x="35" y="501" type="curve" smooth="yes"/>
      <point x="35" y="618"/>
      <point x="128" y="704"/>
      <point x="229" y="704" type="curve" smooth="yes"/>
      <point x="331" y="704"/>
      <point x="422" y="631"/>
    </contour>
    <contour>
      <point x="744" y="705" type="line"/>
      <point x="267" y="-5" type="line"/>
      <point x="196" y="-5" type="line"/>
      <point x="673" y="705" type="line"/>
    </contour>
    <contour>
      <point x="905" y="199" type="curve" smooth="yes"/>
      <point x="905" y="82"/>
      <point x="812" y="-4"/>
      <point x="711" y="-4" type="curve" smooth="yes"/>
      <point x="609" y="-4"/>
      <point x="518" y="69"/>
      <point x="518" y="187" type="curve" smooth="yes"/>
      <point x="518" y="304"/>
      <point x="611" y="390"/>
      <point x="712" y="390" type="curve" smooth="yes"/>
      <point x="814" y="390"/>
      <point x="905" y="317"/>
    </contour>
    <contour>
      <point x="317" y="510" type="curve" smooth="yes"/>
      <point x="317" y="590"/>
      <point x="282" y="649"/>
      <point x="225" y="649" type="curve" smooth="yes"/>
      <point x="169" y="649"/>
      <point x="140" y="591"/>
      <point x="140" y="504" type="curve" smooth="yes"/>
      <point x="140" y="424"/>
      <point x="175" y="365"/>
      <point x="232" y="365" type="curve" smooth="yes"/>
      <point x="288" y="365"/>
      <point x="317" y="423"/>
    </contour>
    <contour>
      <point x="800" y="196" type="curve" smooth="yes"/>
      <point x="800" y="276"/>
      <point x="765" y="335"/>
      <point x="708" y="335" type="curve" smooth="yes"/>
      <point x="652" y="335"/>
      <point x="623" y="277"/>
      <point x="623" y="190" type="curve" smooth="yes"/>
      <point x="623" y="110"/>
      <point x="658" y="51"/>
      <point x="715" y="51" type="curve" smooth="yes"/>
      <point x="771" y="51"/>
      <point x="800" y="109"/>
    </contour>
  </outline>
</glyph>
<glyph name="ampersand" format="1">
  <advance width="757"/>
  <unicode hex="0026"/>
  <outline>
    <contour>
      <point x="753" y="8" type="curve"/>
      <point x="750" y="-1" type="line"/>
      <point x="722" y="0"/>
      <point x="675" y="1"/>
      <point x="647" y="1" type="curve" smooth="yes"/>
      <point x="617" y="1"/>
      <point x="566" y="1"/>
      <point x="538" y="-1" type="curve"/>
      <point x="536" y="8" type="line"/>
      <point x="551" y="15"/>
      <point x="557" y="22"/>
      <point x="557" y="35" type="curve" smooth="yes"/>
      <point x="557" y="50"/>
      <point x="541" y="79"/>
      <point x="522" y="104" type="curve" smooth="yes"/>
      <point x="494" y="141" type="line"/>
      <point x="415" y="38"/>
      <point x="341" y="-7"/>
      <point x="234" y="-7" type="curve" smooth="yes"/>
      <point x="123" y="-7"/>
      <point x="34" y="57"/>
      <point x="34" y="174" type="curve" smooth="yes"/>
      <point x="34" y="276"/>
      <point x="101" y="352"/>
      <point x="283" y="424" type="curve"/>
      <point x="244" y="480"/>
      <point x="226" y="516"/>
      <point x="226" y="569" type="curve" smooth="yes"/>
      <point x="226" y="651"/>
      <point x="296" y="710"/>
      <point x="388" y="710" type="curve" smooth="yes"/>
      <point x="479" y="710"/>
      <point x="532" y="662"/>
      <point x="532" y="588" type="curve" smooth="yes"/>
      <point x="532" y="520"/>
      <point x="490" y="469"/>
      <point x="414" y="427" type="curve"/>
      <point x="522" y="283" type="line"/>
      <point x="546" y="321" type="line" smooth="yes"/>
      <point x="565" y="351"/>
      <point x="570" y="366"/>
      <point x="570" y="376" type="curve" smooth="yes"/>
      <point x="570" y="388"/>
      <point x="563" y="396"/>
      <point x="546" y="404" type="curve"/>
      <point x="550" y="413" type="line"/>
      <point x="571" y="412"/>
      <point x="601" y="411"/>
      <point x="626" y="411" type="curve" smooth="yes"/>
      <point x="643" y="411"/>
      <point x="676" y="412"/>
      <point x="693" y="413" type="curve"/>
      <point x="696" y="404" type="line"/>
      <point x="673" y="394"/>
      <point x="645" y="370"/>
      <point x="617" y="326" type="curve" smooth="yes"/>
      <point x="558" y="235" type="line"/>
      <point x="670" y="85" type="line" smooth="yes"/>
      <point x="705" y="38"/>
      <point x="722" y="21"/>
    </contour>
    <contour>
      <point x="464" y="584" type="curve" smooth="yes"/>
      <point x="464" y="626"/>
      <point x="438" y="655"/>
      <point x="402" y="655" type="curve" smooth="yes"/>
      <point x="364" y="655"/>
      <point x="338" y="627"/>
      <point x="338" y="579" type="curve" smooth="yes"/>
      <point x="338" y="545"/>
      <point x="349" y="518"/>
      <point x="385" y="467" type="curve"/>
      <point x="440" y="499"/>
      <point x="464" y="539"/>
    </contour>
    <contour>
      <point x="458" y="189" type="curve"/>
      <point x="315" y="381" type="line"/>
      <point x="198" y="326"/>
      <point x="162" y="265"/>
      <point x="162" y="187" type="curve" smooth="yes"/>
      <point x="162" y="110"/>
      <point x="210" y="64"/>
      <point x="273" y="64" type="curve" smooth="yes"/>
      <point x="331" y="64"/>
      <point x="391" y="100"/>
    </contour>
  </outline>
</glyph>
<glyph name="quotesingle" format="1">
  <advance width="270"/>
  <unicode hex="0027"/>
  <outline>
    <contour>
      <point x="194" y="670" type="line" smooth="yes"/>
      <point x="194" y="580"/>
      <point x="175" y="492"/>
      <point x="149" y="412" type="curve"/>
      <point x="121" y="412" type="line"/>
      <point x="95" y="492"/>
      <point x="76" y="580"/>
      <point x="76" y="670" type="curve" smooth="yes"/>
      <point x="76" y="700" type="line"/>
      <point x="194" y="700" type="line"/>
    </contour>
  </outline>
</glyph>
<glyph name="parenleft" format="1">
  <advance width="345"/>
  <unicode hex="0028"/>
  <outline>
    <contour>
      <point x="321" y="-12" type="curve"/>
      <point x="311" y="-26" type="line"/>
      <point x="186" y="42"/>
      <point x="51" y="153"/>
      <point x="51" y="350" type="curve" smooth="yes"/>
      <point x="51" y="547"/>
      <point x="186" y="658"/>
      <point x="311" y="726" type="curve"/>
      <point x="321" y="712" type="line"/>
      <point x="224" y="634"/>
      <point x="171" y="526"/>
      <point x="171" y="350" type="curve" smooth="yes"/>
      <point x="171" y="174"/>
      <point x="224" y="66"/>
    </contour>
  </outline>
</glyph>
<glyph name="parenright" format="1">
  <advance width="345"/>
  <unicode hex="0029"/>
  <outline>
    <contour>
      <point x="294" y="350" type="curve" smooth="yes"/>
      <point x="294" y="153"/>
      <point x="159" y="42"/>
      <point x="34" y="-26" type="curve"/>
      <point x="24" y="-12" type="line"/>
      <point x="121" y="66"/>
      <point x="174" y="174"/>
      <point x="174" y="350" type="curve" smooth="yes"/>
      <point x="174" y="526"/>
      <point x="121" y="634"/>
      <point x="24" y="712" type="curve"/>
      <point x="34" y="726" type="line"/>
      <point x="159" y="658"/>
      <point x="294" y="547"/>
    </contour>
  </outline>
</glyph>
<glyph name="asterisk" format="1">
  <advance width="370"/>
  <unicode hex="002A"/>
  <outline>
    <contour>
      <point x="232" y="700" type="line"/>
      <point x="230" y="661"/>
      <point x="214" y="613"/>
      <point x="191" y="579" type="curve"/>
      <point x="180" y="579" type="line"/>
      <point x="157" y="613"/>
      <point x="141" y="661"/>
      <point x="139" y="700" type="curve"/>
    </contour>
    <contour>
      <point x="335" y="557" type="line"/>
      <point x="298" y="547"/>
      <point x="247" y="548"/>
      <point x="207" y="559" type="curve"/>
      <point x="204" y="570" type="line"/>
      <point x="229" y="602"/>
      <point x="270" y="632"/>
      <point x="306" y="646" type="curve"/>
    </contour>
    <contour>
      <point x="166" y="570" type="curve"/>
      <point x="163" y="559" type="line"/>
      <point x="123" y="548"/>
      <point x="72" y="547"/>
      <point x="35" y="557" type="curve"/>
      <point x="64" y="646" type="line"/>
      <point x="100" y="632"/>
      <point x="141" y="602"/>
    </contour>
    <contour>
      <point x="307" y="469" type="curve"/>
      <point x="232" y="414" type="line"/>
      <point x="211" y="447"/>
      <point x="195" y="495"/>
      <point x="194" y="536" type="curve"/>
      <point x="203" y="543" type="line"/>
      <point x="241" y="529"/>
      <point x="283" y="499"/>
    </contour>
    <contour>
      <point x="176" y="536" type="line"/>
      <point x="175" y="495"/>
      <point x="159" y="447"/>
      <point x="138" y="414" type="curve"/>
      <point x="63" y="469" type="line"/>
      <point x="87" y="499"/>
      <point x="129" y="529"/>
      <point x="167" y="543" type="curve"/>
    </contour>
  </outline>
</glyph>
<glyph name="plus" format="1">
  <advance width="500"/>
  <unicode hex="002B"/>
  <outline>
    <contour>
      <point x="455" y="324" type="line"/>
      <point x="281" y="324" type="line"/>
      <point x="281" y="149" type="line"/>
      <point x="219" y="149" type="line"/>
      <point x="219" y="324" type="line"/>
      <point x="45" y="324" type="line"/>
      <point x="45" y="386" type="line"/>
      <point x="219" y="386" type="line"/>
      <point x="219" y="561" type="line"/>
      <point x="281" y="561" type="line"/>
      <point x="281" y="386" type="line"/>
      <point x="455" y="386" type="line"/>
    </contour>
  </outline>
</glyph>
<glyph name="hyphen" format="1">
  <advance width="360"/>
  <unicode hex="002D"/>
  <unicode hex="2010"/>
  <unicode hex="2011"/>
  <outline>
    <contour>
      <point x="320" y="413" type="line"/>
      <point x="287" y="328" type="line"/>
      <point x="266" y="334"/>
      <point x="237" y="336"/>
      <point x="197" y="336" type="curve" smooth="yes"/>
      <point x="40" y="336" type="line"/>
      <point x="70" y="418" type="line"/>
      <point x="100" y="414"/>
      <point x="153" y="413"/>
      <point x="225" y="413" type="curve" smooth="yes"/>
    </contour>
  </outline>
</glyph>
<glyph name="period" format="1">
  <advance width="260"/>
  <unicode hex="002E"/>
  <outline>
    <contour>
      <point x="209" y="74" type="curve" smooth="yes"/>
      <point x="209" y="31"/>
      <point x="173" y="-5"/>
      <point x="130" y="-5" type="curve" smooth="yes"/>
      <point x="87" y="-5"/>
      <point x="51" y="31"/>
      <point x="51" y="74" type="curve" smooth="yes"/>
      <point x="51" y="117"/>
      <point x="87" y="153"/>
      <point x="130" y="153" type="curve" smooth="yes"/>
      <point x="173" y="153"/>
      <point x="209" y="117"/>
    </contour>
  </outline>
</glyph>
<glyph name="slash" format="1">
  <advance width="485"/>
  <unicode hex="002F"/>
  <outline>
    <contour>
      <point x="460" y="705" type="line"/>
      <point x="102" y="-5" type="line"/>
      <point x="25" y="-5" type="line"/>
      <point x="383" y="705" type="line"/>
    </contour>
  </outline>
</glyph>
<glyph name="zero" format="1">
  <advance width="790"/>
  <unicode hex="0030"/>
  <outline>
    <contour>
      <point x="739" y="362" type="curve" smooth="yes"/>
      <point x="739" y="157"/>
      <point x="583" y="-10"/>
      <point x="400" y="-10" type="curve" smooth="yes"/>
      <point x="210" y="-10"/>
      <point x="51" y="130"/>
      <point x="51" y="339" type="curve" smooth="yes"/>
      <point x="51" y="558"/>
      <point x="215" y="710"/>
      <point x="405" y="710" type="curve" smooth="yes"/>
      <point x="588" y="710"/>
      <point x="739" y="567"/>
    </contour>
    <contour>
      <point x="610" y="360" type="curve" smooth="yes"/>
      <point x="610" y="522"/>
      <point x="523" y="640"/>
      <point x="393" y="640" type="curve" smooth="yes"/>
      <point x="264" y="640"/>
      <point x="180" y="525"/>
      <point x="180" y="347" type="curve" smooth="yes"/>
      <point x="180" y="167"/>
      <point x="263" y="60"/>
      <point x="400" y="60" type="curve" smooth="yes"/>
      <point x="545" y="60"/>
      <point x="610" y="189"/>
    </contour>
  </outline>
</glyph>
<glyph name="one" format="1">
  <advance width="328"/>
  <unicode hex="0031"/>
  <outline>
    <contour>
      <point x="281" y="9" type="curve"/>
      <point x="278" y="-1" type="line"/>
      <point x="253" y="1"/>
      <point x="199" y="1"/>
      <point x="174" y="1" type="curve" smooth="yes"/>
      <point x="145" y="1"/>
      <point x="89" y="1"/>
      <point x="63" y="-1" type="curve"/>
      <point x="61" y="9" type="line"/>
      <point x="100" y="24"/>
      <point x="115" y="39"/>
      <point x="115" y="76" type="curve" smooth="yes"/>
      <point x="115" y="572" type="line" smooth="yes"/>
      <point x="115" y="604"/>
      <point x="103" y="617"/>
      <point x="75" y="617" type="curve" smooth="yes"/>
      <point x="61" y="617"/>
      <point x="51" y="616"/>
      <point x="40" y="614" type="curve"/>
      <point x="36" y="630" type="line"/>
      <point x="107" y="655"/>
      <point x="174" y="686"/>
      <point x="222" y="713" type="curve"/>
      <point x="232" y="710" type="line"/>
      <point x="232" y="77" type="line" smooth="yes"/>
      <point x="232" y="38"/>
      <point x="246" y="24"/>
    </contour>
  </outline>
</glyph>
<glyph name="two" format="1">
  <advance width="640"/>
  <unicode hex="0032"/>
  <outline>
    <contour>
      <point x="612" y="152" type="line"/>
      <point x="584" y="118"/>
      <point x="535" y="24"/>
      <point x="523" y="-1" type="curve"/>
      <point x="421" y="0"/>
      <point x="358" y="0"/>
      <point x="256" y="0" type="curve" smooth="yes"/>
      <point x="176" y="0"/>
      <point x="107" y="0"/>
      <point x="31" y="-1" type="curve"/>
      <point x="29" y="6" type="line"/>
      <point x="78" y="122"/>
      <point x="158" y="213"/>
      <point x="292" y="291" type="curve" smooth="yes"/>
      <point x="401" y="354"/>
      <point x="456" y="405"/>
      <point x="456" y="496" type="curve" smooth="yes"/>
      <point x="456" y="583"/>
      <point x="402" y="636"/>
      <point x="303" y="636" type="curve" smooth="yes"/>
      <point x="208" y="636"/>
      <point x="145" y="593"/>
      <point x="91" y="515" type="curve"/>
      <point x="79" y="520" type="line"/>
      <point x="83" y="546"/>
      <point x="92" y="618"/>
      <point x="92" y="645" type="curve"/>
      <point x="152" y="681"/>
      <point x="225" y="706"/>
      <point x="319" y="706" type="curve" smooth="yes"/>
      <point x="487" y="706"/>
      <point x="590" y="637"/>
      <point x="590" y="509" type="curve" smooth="yes"/>
      <point x="590" y="381"/>
      <point x="494" y="317"/>
      <point x="348" y="247" type="curve" smooth="yes"/>
      <point x="246" y="198"/>
      <point x="203" y="156"/>
      <point x="163" y="96" type="curve"/>
      <point x="430" y="96" type="line" smooth="yes"/>
      <point x="528" y="96"/>
      <point x="556" y="115"/>
      <point x="602" y="160" type="curve"/>
    </contour>
  </outline>
</glyph>
<glyph name="three" format="1">
  <advance width="607"/>
  <unicode hex="0033"/>
  <outline>
    <contour>
      <point x="569" y="204" type="curve" smooth="yes"/>
      <point x="569" y="79"/>
      <point x="462" y="-6"/>
      <point x="288" y="-6" type="curve" smooth="yes"/>
      <point x="199" y="-6"/>
      <point x="110" y="16"/>
      <point x="55" y="55" type="curve"/>
      <point x="55" y="82"/>
      <point x="51" y="154"/>
      <point x="47" y="180" type="curve"/>
      <point x="59" y="185" type="line"/>
      <point x="115" y="103"/>
      <point x="190" y="64"/>
      <point x="287" y="64" type="curve" smooth="yes"/>
      <point x="382" y="64"/>
      <point x="440" y="107"/>
      <point x="440" y="202" type="curve" smooth="yes"/>
      <point x="440" y="298"/>
      <point x="371" y="347"/>
      <point x="245" y="347" type="curve" smooth="yes"/>
      <point x="188" y="347" type="line"/>
      <point x="188" y="417" type="line"/>
      <point x="260" y="417" type="line" smooth="yes"/>
      <point x="366" y="417"/>
      <point x="420" y="454"/>
      <point x="420" y="532" type="curve" smooth="yes"/>
      <point x="420" y="601"/>
      <point x="376" y="636"/>
      <point x="282" y="636" type="curve" smooth="yes"/>
      <point x="193" y="636"/>
      <point x="129" y="593"/>
      <point x="75" y="515" type="curve"/>
      <point x="63" y="520" type="line"/>
      <point x="67" y="546"/>
      <point x="71" y="618"/>
      <point x="71" y="645" type="curve"/>
      <point x="131" y="681"/>
      <point x="211" y="706"/>
      <point x="303" y="706" type="curve" smooth="yes"/>
      <point x="457" y="706"/>
      <point x="549" y="648"/>
      <point x="549" y="545" type="curve" smooth="yes"/>
      <point x="549" y="461"/>
      <point x="487" y="409"/>
      <point x="398" y="385" type="curve"/>
      <point x="398" y="382" type="line"/>
      <point x="507" y="357"/>
      <point x="569" y="305"/>
    </contour>
  </outline>
</glyph>
<glyph name="four" format="1">
  <advance width="714"/>
  <unicode hex="0034"/>
  <outline>
    <contour>
      <point x="702" y="269" type="line"/>
      <point x="677" y="238"/>
      <point x="647" y="180"/>
      <point x="635" y="152" type="curve"/>
      <point x="578" y="153"/>
      <point x="546" y="154"/>
      <point x="504" y="154" type="curve"/>
      <point x="504" y="77" type="line" smooth="yes"/>
      <point x="504" y="38"/>
      <point x="518" y="24"/>
      <point x="553" y="9" type="curve"/>
      <point x="550" y="-1" type="line"/>
      <point x="525" y="1"/>
      <point x="469" y="1"/>
      <point x="444" y="1" type="curve" smooth="yes"/>
      <point x="415" y="1"/>
      <point x="363" y="1"/>
      <point x="337" y="-1" type="curve"/>
      <point x="335" y="9" type="line"/>
      <point x="374" y="24"/>
      <point x="388" y="39"/>
      <point x="388" y="76" type="curve" smooth="yes"/>
      <point x="388" y="154" type="line"/>
      <point x="279" y="154"/>
      <point x="114" y="154"/>
      <point x="28" y="151" type="curve"/>
      <point x="19" y="174" type="line"/>
      <point x="475" y="719" type="line"/>
      <point x="504" y="715" type="line"/>
      <point x="504" y="215" type="line"/>
      <point x="619" y="217"/>
      <point x="656" y="239"/>
      <point x="693" y="276" type="curve"/>
    </contour>
    <contour>
      <point x="388" y="215" type="line"/>
      <point x="388" y="527" type="line"/>
      <point x="127" y="215" type="line"/>
    </contour>
  </outline>
</glyph>
<glyph name="five" format="1">
  <advance width="627"/>
  <unicode hex="0035"/>
  <outline>
    <contour>
      <point x="580" y="227" type="curve" smooth="yes"/>
      <point x="580" y="98"/>
      <point x="471" y="-6"/>
      <point x="299" y="-6" type="curve" smooth="yes"/>
      <point x="211" y="-6"/>
      <point x="121" y="16"/>
      <point x="66" y="55" type="curve"/>
      <point x="66" y="82"/>
      <point x="62" y="154"/>
      <point x="58" y="180" type="curve"/>
      <point x="70" y="185" type="line"/>
      <point x="126" y="103"/>
      <point x="186" y="64"/>
      <point x="287" y="64" type="curve" smooth="yes"/>
      <point x="390" y="64"/>
      <point x="451" y="116"/>
      <point x="451" y="212" type="curve" smooth="yes"/>
      <point x="451" y="312"/>
      <point x="390" y="365"/>
      <point x="284" y="365" type="curve" smooth="yes"/>
      <point x="223" y="365"/>
      <point x="173" y="341"/>
      <point x="137" y="313" type="curve"/>
      <point x="92" y="334" type="line"/>
      <point x="92" y="693" type="line"/>
      <point x="97" y="700" type="line"/>
      <point x="173" y="699"/>
      <point x="224" y="699"/>
      <point x="304" y="699" type="curve" smooth="yes"/>
      <point x="373" y="699"/>
      <point x="433" y="700"/>
      <point x="550" y="701" type="curve"/>
      <point x="498" y="574" type="line"/>
      <point x="488" y="574" type="line"/>
      <point x="482" y="589"/>
      <point x="470" y="603"/>
      <point x="409" y="603" type="curve" smooth="yes"/>
      <point x="166" y="603" type="line"/>
      <point x="166" y="411" type="line"/>
      <point x="204" y="430"/>
      <point x="256" y="443"/>
      <point x="322" y="443" type="curve" smooth="yes"/>
      <point x="476" y="443"/>
      <point x="580" y="368"/>
    </contour>
  </outline>
</glyph>
<glyph name="six" format="1">
  <advance width="704"/>
  <unicode hex="0036"/>
  <outline>
    <contour>
      <point x="657" y="235" type="curve" smooth="yes"/>
      <point x="657" y="93"/>
      <point x="526" y="-10"/>
      <point x="358" y="-10" type="curve" smooth="yes"/>
      <point x="251" y="-10"/>
      <point x="175" y="19"/>
      <point x="119" y="84" type="curve" smooth="yes"/>
      <point x="73" y="138"/>
      <point x="49" y="218"/>
      <point x="49" y="329" type="curve" smooth="yes"/>
      <point x="49" y="549"/>
      <point x="197" y="706"/>
      <point x="384" y="706" type="curve" smooth="yes"/>
      <point x="471" y="706"/>
      <point x="553" y="686"/>
      <point x="607" y="649" type="curve"/>
      <point x="607" y="622"/>
      <point x="611" y="550"/>
      <point x="615" y="524" type="curve"/>
      <point x="603" y="519" type="line"/>
      <point x="547" y="601"/>
      <point x="468" y="636"/>
      <point x="376" y="636" type="curve" smooth="yes"/>
      <point x="256" y="636"/>
      <point x="188" y="545"/>
      <point x="179" y="379" type="curve"/>
      <point x="222" y="419"/>
      <point x="287" y="455"/>
      <point x="386" y="455" type="curve" smooth="yes"/>
      <point x="543" y="455"/>
      <point x="657" y="385"/>
    </contour>
    <contour>
      <point x="528" y="230" type="curve" smooth="yes"/>
      <point x="528" y="324"/>
      <point x="472" y="390"/>
      <point x="361" y="390" type="curve" smooth="yes"/>
      <point x="263" y="390"/>
      <point x="181" y="330"/>
      <point x="181" y="229" type="curve" smooth="yes"/>
      <point x="181" y="134"/>
      <point x="249" y="55"/>
      <point x="358" y="55" type="curve" smooth="yes"/>
      <point x="475" y="55"/>
      <point x="528" y="133"/>
    </contour>
  </outline>
</glyph>
<glyph name="seven" format="1">
  <advance width="605"/>
  <unicode hex="0037"/>
  <outline>
    <contour>
      <point x="587" y="693" type="line"/>
      <point x="558" y="583"/>
      <point x="519" y="536"/>
      <point x="413" y="408" type="curve" smooth="yes"/>
      <point x="308" y="281"/>
      <point x="276" y="204"/>
      <point x="276" y="-2" type="curve"/>
      <point x="147" y="-2" type="line"/>
      <point x="152" y="209"/>
      <point x="222" y="302"/>
      <point x="350" y="436" type="curve" smooth="yes"/>
      <point x="420" y="509"/>
      <point x="456" y="557"/>
      <point x="475" y="603" type="curve"/>
      <point x="206" y="603" type="line" smooth="yes"/>
      <point x="108" y="603"/>
      <point x="80" y="584"/>
      <point x="34" y="539" type="curve"/>
      <point x="24" y="547" type="line"/>
      <point x="49" y="584"/>
      <point x="87" y="667"/>
      <point x="98" y="700" type="curve"/>
      <point x="200" y="699"/>
      <point x="248" y="699"/>
      <point x="350" y="699" type="curve" smooth="yes"/>
      <point x="430" y="699"/>
      <point x="509" y="699"/>
      <point x="585" y="700" type="curve"/>
    </contour>
  </outline>
</glyph>
<glyph name="eight" format="1">
  <advance width="704"/>
  <unicode hex="0038"/>
  <outline>
    <contour>
      <point x="656" y="199" type="curve" smooth="yes"/>
      <point x="656" y="64"/>
      <point x="510" y="-6"/>
      <point x="353" y="-6" type="curve" smooth="yes"/>
      <point x="195" y="-6"/>
      <point x="48" y="48"/>
      <point x="48" y="186" type="curve" smooth="yes"/>
      <point x="48" y="278"/>
      <point x="123" y="339"/>
      <point x="213" y="366" type="curve"/>
      <point x="213" y="369" type="line"/>
      <point x="141" y="393"/>
      <point x="88" y="440"/>
      <point x="88" y="520" type="curve" smooth="yes"/>
      <point x="88" y="641"/>
      <point x="225" y="706"/>
      <point x="362" y="706" type="curve" smooth="yes"/>
      <point x="510" y="706"/>
      <point x="616" y="640"/>
      <point x="616" y="531" type="curve" smooth="yes"/>
      <point x="616" y="453"/>
      <point x="565" y="407"/>
      <point x="495" y="374" type="curve"/>
      <point x="495" y="371" type="line"/>
      <point x="584" y="347"/>
      <point x="656" y="296"/>
    </contour>
    <contour>
      <point x="493" y="521" type="curve" smooth="yes"/>
      <point x="493" y="596"/>
      <point x="439" y="641"/>
      <point x="350" y="641" type="curve" smooth="yes"/>
      <point x="266" y="641"/>
      <point x="211" y="596"/>
      <point x="211" y="520" type="curve" smooth="yes"/>
      <point x="211" y="438"/>
      <point x="274" y="400"/>
      <point x="357" y="400" type="curve" smooth="yes"/>
      <point x="446" y="400"/>
      <point x="493" y="453"/>
    </contour>
    <contour>
      <point x="533" y="200" type="curve" smooth="yes"/>
      <point x="533" y="291"/>
      <point x="452" y="335"/>
      <point x="351" y="335" type="curve" smooth="yes"/>
      <point x="264" y="335"/>
      <point x="171" y="292"/>
      <point x="171" y="192" type="curve" smooth="yes"/>
      <point x="171" y="90"/>
      <point x="273" y="59"/>
      <point x="357" y="59" type="curve" smooth="yes"/>
      <point x="454" y="59"/>
      <point x="533" y="108"/>
    </contour>
  </outline>
</glyph>
<glyph name="nine" format="1">
  <advance width="704"/>
  <unicode hex="0039"/>
  <outline>
    <contour>
      <point x="655" y="371" type="curve" smooth="yes"/>
      <point x="655" y="151"/>
      <point x="507" y="-6"/>
      <point x="320" y="-6" type="curve" smooth="yes"/>
      <point x="233" y="-6"/>
      <point x="151" y="14"/>
      <point x="97" y="51" type="curve"/>
      <point x="97" y="78"/>
      <point x="93" y="150"/>
      <point x="89" y="176" type="curve"/>
      <point x="101" y="181" type="line"/>
      <point x="157" y="99"/>
      <point x="236" y="64"/>
      <point x="328" y="64" type="curve" smooth="yes"/>
      <point x="448" y="64"/>
      <point x="516" y="155"/>
      <point x="525" y="321" type="curve"/>
      <point x="482" y="281"/>
      <point x="417" y="245"/>
      <point x="318" y="245" type="curve" smooth="yes"/>
      <point x="161" y="245"/>
      <point x="47" y="315"/>
      <point x="47" y="465" type="curve" smooth="yes"/>
      <point x="47" y="607"/>
      <point x="178" y="710"/>
      <point x="346" y="710" type="curve" smooth="yes"/>
      <point x="453" y="710"/>
      <point x="529" y="681"/>
      <point x="585" y="616" type="curve" smooth="yes"/>
      <point x="631" y="562"/>
      <point x="655" y="482"/>
    </contour>
    <contour>
      <point x="523" y="471" type="curve" smooth="yes"/>
      <point x="523" y="566"/>
      <point x="455" y="645"/>
      <point x="346" y="645" type="curve" smooth="yes"/>
      <point x="229" y="645"/>
      <point x="176" y="567"/>
      <point x="176" y="470" type="curve" smooth="yes"/>
      <point x="176" y="376"/>
      <point x="232" y="310"/>
      <point x="343" y="310" type="curve" smooth="yes"/>
      <point x="441" y="310"/>
      <point x="523" y="370"/>
    </contour>
  </outline>
</glyph>
<glyph name="colon" format="1">
  <advance width="270"/>
  <unicode hex="003A"/>
  <outline>
    <contour>
      <point x="214" y="368" type="curve" smooth="yes"/>
      <point x="214" y="325"/>
      <point x="178" y="289"/>
      <point x="135" y="289" type="curve" smooth="yes"/>
      <point x="92" y="289"/>
      <point x="56" y="325"/>
      <point x="56" y="368" type="curve" smooth="yes"/>
      <point x="56" y="411"/>
      <point x="92" y="447"/>
      <point x="135" y="447" type="curve" smooth="yes"/>
      <point x="178" y="447"/>
      <point x="214" y="411"/>
    </contour>
    <contour>
      <point x="214" y="74" type="curve" smooth="yes"/>
      <point x="214" y="31"/>
      <point x="178" y="-5"/>
      <point x="135" y="-5" type="curve" smooth="yes"/>
      <point x="92" y="-5"/>
      <point x="56" y="31"/>
      <point x="56" y="74" type="curve" smooth="yes"/>
      <point x="56" y="117"/>
      <point x="92" y="153"/>
      <point x="135" y="153" type="curve" smooth="yes"/>
      <point x="178" y="153"/>
      <point x="214" y="117"/>
    </contour>
  </outline>
</glyph>
<glyph name="semicolon" format="1">
  <advance width="270"/>
  <unicode hex="003B"/>
  <outline>
    <contour>
      <point x="214" y="368" type="curve" smooth="yes"/>
      <point x="214" y="325"/>
      <point x="178" y="289"/>
      <point x="135" y="289" type="curve" smooth="yes"/>
      <point x="92" y="289"/>
      <point x="56" y="325"/>
      <point x="56" y="368" type="curve" smooth="yes"/>
      <point x="56" y="411"/>
      <point x="92" y="447"/>
      <point x="135" y="447" type="curve" smooth="yes"/>
      <point x="178" y="447"/>
      <point x="214" y="411"/>
    </contour>
    <contour>
      <point x="213" y="46" type="curve" smooth="yes"/>
      <point x="213" y="-13"/>
      <point x="171" y="-67"/>
      <point x="66" y="-145" type="curve"/>
      <point x="50" y="-125" type="line"/>
      <point x="92" y="-84"/>
      <point x="110" y="-56"/>
      <point x="110" y="-22" type="curve" smooth="yes"/>
      <point x="110" y="10"/>
      <point x="96" y="34"/>
      <point x="54" y="78" type="curve"/>
      <point x="141" y="160" type="line"/>
      <point x="194" y="121"/>
      <point x="213" y="90"/>
    </contour>
  </outline>
</glyph>
<glyph name="less" format="1">
  <advance width="500"/>
  <unicode hex="003C"/>
  <outline>
    <contour>
      <point x="440" y="158" type="line"/>
      <point x="45" y="325" type="line"/>
      <point x="45" y="385" type="line"/>
      <point x="440" y="552" type="line"/>
      <point x="440" y="484" type="line"/>
      <point x="122" y="355" type="line"/>
      <point x="440" y="226" type="line"/>
    </contour>
  </outline>
</glyph>
<glyph name="equal" format="1">
  <advance width="500"/>
  <unicode hex="003D"/>
  <outline>
    <contour>
      <point x="445" y="419" type="line"/>
      <point x="55" y="419" type="line"/>
      <point x="55" y="481" type="line"/>
      <point x="445" y="481" type="line"/>
    </contour>
    <contour>
      <point x="445" y="229" type="line"/>
      <point x="55" y="229" type="line"/>
      <point x="55" y="291" type="line"/>
      <point x="445" y="291" type="line"/>
    </contour>
  </outline>
</glyph>
<glyph name="greater" format="1">
  <advance width="500"/>
  <unicode hex="003E"/>
  <outline>
    <contour>
      <point x="455" y="325" type="line"/>
      <point x="60" y="158" type="line"/>
      <point x="60" y="226" type="line"/>
      <point x="378" y="355" type="line"/>
      <point x="60" y="484" type="line"/>
      <point x="60" y="552" type="line"/>
      <point x="455" y="385" type="line"/>
    </contour>
  </outline>
</glyph>
<glyph name="question" format="1">
  <advance width="545"/>
  <unicode hex="003F"/>
  <outline>
    <contour>
      <point x="503" y="535" type="curve" smooth="yes"/>
      <point x="503" y="449"/>
      <point x="450" y="408"/>
      <point x="360" y="357" type="curve" smooth="yes"/>
      <point x="272" y="307"/>
      <point x="256" y="282"/>
      <point x="259" y="205" type="curve"/>
      <point x="227" y="205" type="line"/>
      <point x="199" y="306"/>
      <point x="216" y="336"/>
      <point x="292" y="393" type="curve" smooth="yes"/>
      <point x="341" y="430"/>
      <point x="374" y="466"/>
      <point x="374" y="524" type="curve" smooth="yes"/>
      <point x="374" y="591"/>
      <point x="334" y="636"/>
      <point x="246" y="636" type="curve" smooth="yes"/>
      <point x="169" y="636"/>
      <point x="108" y="594"/>
      <point x="59" y="520" type="curve"/>
      <point x="47" y="525" type="line"/>
      <point x="51" y="551"/>
      <point x="55" y="618"/>
      <point x="55" y="645" type="curve"/>
      <point x="124" y="687"/>
      <point x="178" y="706"/>
      <point x="267" y="706" type="curve" smooth="yes"/>
      <point x="413" y="706"/>
      <point x="503" y="646"/>
    </contour>
    <contour>
      <point x="317" y="71" type="curve" smooth="yes"/>
      <point x="317" y="29"/>
      <point x="283" y="-5"/>
      <point x="241" y="-5" type="curve" smooth="yes"/>
      <point x="199" y="-5"/>
      <point x="165" y="29"/>
      <point x="165" y="71" type="curve" smooth="yes"/>
      <point x="165" y="113"/>
      <point x="199" y="147"/>
      <point x="241" y="147" type="curve" smooth="yes"/>
      <point x="283" y="147"/>
      <point x="317" y="113"/>
    </contour>
  </outline>
</glyph>
<glyph name="at" format="1">
  <advance width="800"/>
  <unicode hex="0040"/>
  <outline>
    <contour>
      <point x="757" y="402" type="curve" smooth="yes"/>
      <point x="757" y="259"/>
      <point x="666" y="175"/>
      <point x="562" y="175" type="curve" smooth="yes"/>
      <point x="504" y="175"/>
      <point x="462" y="201"/>
      <point x="440" y="243" type="curve"/>
      <point x="397" y="199"/>
      <point x="360" y="175"/>
      <point x="308" y="175" type="curve" smooth="yes"/>
      <point x="244" y="175"/>
      <point x="208" y="215"/>
      <point x="208" y="285" type="curve" smooth="yes"/>
      <point x="208" y="409"/>
      <point x="336" y="539"/>
      <point x="453" y="539" type="curve" smooth="yes"/>
      <point x="512" y="539"/>
      <point x="549" y="527"/>
      <point x="583" y="513" type="curve"/>
      <point x="546" y="306" type="line" smooth="yes"/>
      <point x="535" y="244"/>
      <point x="557" y="218"/>
      <point x="605" y="218" type="curve" smooth="yes"/>
      <point x="664" y="218"/>
      <point x="723" y="287"/>
      <point x="723" y="400" type="curve" smooth="yes"/>
      <point x="723" y="579"/>
      <point x="599" y="682"/>
      <point x="418" y="682" type="curve" smooth="yes"/>
      <point x="227" y="682"/>
      <point x="84" y="538"/>
      <point x="84" y="347" type="curve" smooth="yes"/>
      <point x="84" y="149"/>
      <point x="216" y="18"/>
      <point x="404" y="18" type="curve" smooth="yes"/>
      <point x="503" y="18"/>
      <point x="569" y="37"/>
      <point x="640" y="77" type="curve"/>
      <point x="652" y="56" type="line"/>
      <point x="578" y="13"/>
      <point x="506" y="-10"/>
      <point x="403" y="-10" type="curve" smooth="yes"/>
      <point x="197" y="-10"/>
      <point x="49" y="131"/>
      <point x="49" y="345" type="curve" smooth="yes"/>
      <point x="49" y="552"/>
      <point x="220" y="710"/>
      <point x="420" y="710" type="curve" smooth="yes"/>
      <point x="611" y="710"/>
      <point x="757" y="593"/>
    </contour>
    <contour>
      <point x="474" y="488" type="line"/>
      <point x="463" y="493"/>
      <point x="454" y="495"/>
      <point x="435" y="495" type="curve" smooth="yes"/>
      <point x="358" y="495"/>
      <point x="312" y="403"/>
      <point x="312" y="295" type="curve" smooth="yes"/>
      <point x="312" y="255"/>
      <point x="327" y="233"/>
      <point x="358" y="233" type="curve" smooth="yes"/>
      <point x="383" y="233"/>
      <point x="414" y="259"/>
      <point x="440" y="293" type="curve"/>
    </contour>
  </outline>
</glyph>
<glyph name="B" format="1">
  <advance width="651"/>
  <unicode hex="0042"/>
  <outline>
    <contour>
      <point x="618" y="202" type="curve" smooth="yes"/>
      <point x="618" y="68"/>
      <point x="486" y="-1"/>
      <point x="333" y="-1" type="curve" smooth="yes"/>
      <point x="275" y="-1"/>
      <point x="245" y="0"/>
      <point x="205" y="0" type="curve" smooth="yes"/>
      <point x="153" y="0"/>
      <point x="125" y="0"/>
      <point x="61" y="-1" type="curve"/>
      <point x="58" y="8" type="line"/>
      <point x="83" y="24"/>
      <point x="90" y="48"/>
      <point x="90" y="69" type="curve" smooth="yes"/>
      <point x="90" y="639" type="line" smooth="yes"/>
      <point x="90" y="663"/>
      <point x="75" y="680"/>
      <point x="57" y="689" type="curve"/>
      <point x="63" y="701" type="line"/>
      <point x="94" y="700"/>
      <point x="149" y="700"/>
      <point x="180" y="700" type="curve" smooth="yes"/>
      <point x="211" y="700"/>
      <point x="261" y="701"/>
      <point x="303" y="701" type="curve" smooth="yes"/>
      <point x="446" y="701"/>
      <point x="557" y="649"/>
      <point x="557" y="542" type="curve" smooth="yes"/>
      <point x="557" y="461"/>
      <point x="494" y="416"/>
      <point x="426" y="392" type="curve"/>
      <point x="426" y="389" type="line"/>
      <point x="539" y="366"/>
      <point x="618" y="311"/>
    </contour>
    <contour>
      <point x="433" y="529" type="curve" smooth="yes"/>
      <point x="433" y="601"/>
      <point x="374" y="636"/>
      <point x="281" y="636" type="curve" smooth="yes"/>
      <point x="256" y="636"/>
      <point x="232" y="635"/>
      <point x="210" y="634" type="curve"/>
      <point x="210" y="414" type="line"/>
      <point x="273" y="414" type="line" smooth="yes"/>
      <point x="376" y="414"/>
      <point x="433" y="451"/>
    </contour>
    <contour>
      <point x="494" y="202" type="curve" smooth="yes"/>
      <point x="494" y="301"/>
      <point x="420" y="350"/>
      <point x="299" y="350" type="curve" smooth="yes"/>
      <point x="210" y="350" type="line"/>
      <point x="210" y="67" type="line"/>
      <point x="243" y="65"/>
      <point x="279" y="63"/>
      <point x="322" y="63" type="curve" smooth="yes"/>
      <point x="426" y="63"/>
      <point x="494" y="108"/>
    </contour>
  </outline>
</glyph>
<glyph name="C" format="1">
  <advance width="703"/>
  <unicode hex="0043"/>
  <outline>
    <contour>
      <point x="649" y="175" type="line"/>
      <point x="645" y="149"/>
      <point x="641" y="82"/>
      <point x="641" y="55" type="curve"/>
      <point x="578" y="19"/>
      <point x="497" y="-6"/>
      <point x="406" y="-6" type="curve" smooth="yes"/>
      <point x="213" y="-6"/>
      <point x="48" y="112"/>
      <point x="48" y="340" type="curve" smooth="yes"/>
      <point x="48" y="560"/>
      <point x="221" y="706"/>
      <point x="414" y="706" type="curve" smooth="yes"/>
      <point x="505" y="706"/>
      <point x="575" y="683"/>
      <point x="631" y="649" type="curve"/>
      <point x="631" y="622"/>
      <point x="635" y="555"/>
      <point x="639" y="529" type="curve"/>
      <point x="627" y="524" type="line"/>
      <point x="573" y="597"/>
      <point x="490" y="636"/>
      <point x="407" y="636" type="curve" smooth="yes"/>
      <point x="269" y="636"/>
      <point x="177" y="519"/>
      <point x="177" y="349" type="curve" smooth="yes"/>
      <point x="177" y="164"/>
      <point x="282" y="64"/>
      <point x="418" y="64" type="curve" smooth="yes"/>
      <point x="500" y="64"/>
      <point x="579" y="96"/>
      <point x="637" y="180" type="curve"/>
    </contour>
  </outline>
</glyph>
<glyph name="E" format="1">
  <advance width="608"/>
  <unicode hex="0045"/>
  <outline>
    <contour>
      <point x="607" y="126" type="line"/>
      <point x="582" y="95"/>
      <point x="547" y="27"/>
      <point x="535" y="-1" type="curve"/>
      <point x="452" y="1"/>
      <point x="414" y="1"/>
      <point x="331" y="1" type="curve" smooth="yes"/>
      <point x="230" y="1"/>
      <point x="162" y="1"/>
      <point x="62" y="-2" type="curve"/>
      <point x="58" y="6" type="line"/>
      <point x="81" y="20"/>
      <point x="90" y="41"/>
      <point x="90" y="78" type="curve" smooth="yes"/>
      <point x="90" y="628" type="line" smooth="yes"/>
      <point x="90" y="662"/>
      <point x="84" y="681"/>
      <point x="57" y="693" type="curve"/>
      <point x="60" y="703" type="line"/>
      <point x="158" y="698"/>
      <point x="194" y="699"/>
      <point x="292" y="699" type="curve" smooth="yes"/>
      <point x="382" y="699"/>
      <point x="467" y="699"/>
      <point x="557" y="704" type="curve"/>
      <point x="547" y="687"/>
      <point x="521" y="632"/>
      <point x="514" y="611" type="curve"/>
      <point x="503" y="623"/>
      <point x="481" y="628"/>
      <point x="416" y="628" type="curve" smooth="yes"/>
      <point x="212" y="628" type="line"/>
      <point x="212" y="433" type="line"/>
      <point x="287" y="433" type="line" smooth="yes"/>
      <point x="360" y="433"/>
      <point x="401" y="435"/>
      <point x="424" y="448" type="curve"/>
      <point x="430" y="443" type="line"/>
      <point x="419" y="430"/>
      <point x="393" y="371"/>
      <point x="386" y="350" type="curve"/>
      <point x="368" y="360"/>
      <point x="330" y="362"/>
      <point x="276" y="362" type="curve" smooth="yes"/>
      <point x="212" y="362" type="line"/>
      <point x="212" y="72" type="line"/>
      <point x="390" y="72" type="line" smooth="yes"/>
      <point x="520" y="72"/>
      <point x="559" y="94"/>
      <point x="598" y="133" type="curve"/>
    </contour>
  </outline>
</glyph>
<glyph name="G" format="1">
  <advance width="756"/>
  <unicode hex="0047"/>
  <outline>
    <contour>
      <point x="725" y="322" type="line"/>
      <point x="693" y="309"/>
      <point x="678" y="292"/>
      <point x="678" y="260" type="curve" smooth="yes"/>
      <point x="678" y="121" type="line"/>
      <point x="688" y="125"/>
      <point x="698" y="130"/>
      <point x="705" y="135" type="curve"/>
      <point x="716" y="122" type="line"/>
      <point x="648" y="45"/>
      <point x="536" y="-6"/>
      <point x="411" y="-6" type="curve" smooth="yes"/>
      <point x="199" y="-6"/>
      <point x="48" y="118"/>
      <point x="48" y="349" type="curve" smooth="yes"/>
      <point x="48" y="561"/>
      <point x="220" y="706"/>
      <point x="401" y="706" type="curve" smooth="yes"/>
      <point x="504" y="706"/>
      <point x="580" y="683"/>
      <point x="636" y="649" type="curve"/>
      <point x="636" y="622"/>
      <point x="640" y="555"/>
      <point x="644" y="529" type="curve"/>
      <point x="632" y="524" type="line"/>
      <point x="575" y="598"/>
      <point x="500" y="636"/>
      <point x="404" y="636" type="curve" smooth="yes"/>
      <point x="267" y="636"/>
      <point x="177" y="523"/>
      <point x="177" y="353" type="curve" smooth="yes"/>
      <point x="177" y="165"/>
      <point x="280" y="64"/>
      <point x="442" y="64" type="curve" smooth="yes"/>
      <point x="489" y="64"/>
      <point x="527" y="69"/>
      <point x="558" y="78" type="curve"/>
      <point x="558" y="254" type="line" smooth="yes"/>
      <point x="558" y="291"/>
      <point x="540" y="312"/>
      <point x="511" y="322" type="curve"/>
      <point x="514" y="333" type="line"/>
      <point x="539" y="331"/>
      <point x="592" y="331"/>
      <point x="617" y="331" type="curve" smooth="yes"/>
      <point x="646" y="331"/>
      <point x="693" y="331"/>
      <point x="721" y="333" type="curve"/>
    </contour>
  </outline>
</glyph>
<glyph name="J" format="1">
  <advance width="310"/>
  <unicode hex="004A"/>
  <outline>
    <contour>
      <point x="261" y="692" type="line"/>
      <point x="234" y="682"/>
      <point x="223" y="664"/>
      <point x="223" y="630" type="curve" smooth="yes"/>
      <point x="223" y="94" type="line" smooth="yes"/>
      <point x="223" y="-42"/>
      <point x="147" y="-111"/>
      <point x="5" y="-166" type="curve"/>
      <point x="-1" y="-151" type="line"/>
      <point x="69" y="-108"/>
      <point x="101" y="-62"/>
      <point x="101" y="73" type="curve" smooth="yes"/>
      <point x="101" y="622" type="line" smooth="yes"/>
      <point x="101" y="664"/>
      <point x="89" y="680"/>
      <point x="58" y="691" type="curve"/>
      <point x="60" y="701" type="line"/>
      <point x="90" y="700"/>
      <point x="127" y="699"/>
      <point x="157" y="699" type="curve" smooth="yes"/>
      <point x="188" y="699"/>
      <point x="225" y="699"/>
      <point x="256" y="701" type="curve"/>
    </contour>
  </outline>
</glyph>
<glyph name="M" format="1">
  <advance width="888"/>
  <unicode hex="004D"/>
  <outline>
    <contour>
      <point x="871" y="10" type="curve"/>
      <point x="868" y="-1" type="line"/>
      <point x="840" y="0"/>
      <point x="793" y="1"/>
      <point x="765" y="1" type="curve" smooth="yes"/>
      <point x="731" y="1"/>
      <point x="683" y="1"/>
      <point x="650" y="-1" type="curve"/>
      <point x="648" y="10" type="line"/>
      <point x="683" y="23"/>
      <point x="695" y="47"/>
      <point x="692" y="87" type="curve" smooth="yes"/>
      <point x="660" y="561" type="line"/>
      <point x="435" y="123" type="line"/>
      <point x="411" y="123" type="line"/>
      <point x="185" y="557" type="line"/>
      <point x="153" y="89" type="line" smooth="yes"/>
      <point x="150" y="44"/>
      <point x="154" y="30"/>
      <point x="202" y="10" type="curve"/>
      <point x="199" y="-1" type="line"/>
      <point x="173" y="1"/>
      <point x="127" y="1"/>
      <point x="100" y="1" type="curve" smooth="yes"/>
      <point x="76" y="1"/>
      <point x="53" y="1"/>
      <point x="29" y="-1" type="curve"/>
      <point x="26" y="9" type="line"/>
      <point x="60" y="23"/>
      <point x="71" y="39"/>
      <point x="74" y="83" type="curve" smooth="yes"/>
      <point x="110" y="608" type="line" smooth="yes"/>
      <point x="113" y="653"/>
      <point x="101" y="676"/>
      <point x="74" y="691" type="curve"/>
      <point x="76" y="701" type="line"/>
      <point x="84" y="700"/>
      <point x="110" y="699"/>
      <point x="130" y="699" type="curve" smooth="yes"/>
      <point x="165" y="699"/>
      <point x="239" y="700"/>
      <point x="255" y="700" type="curve"/>
      <point x="260" y="677"/>
      <point x="276" y="643"/>
      <point x="324" y="549" type="curve" smooth="yes"/>
      <point x="449" y="305" type="line"/>
      <point x="569" y="543" type="line" smooth="yes"/>
      <point x="610" y="625"/>
      <point x="636" y="679"/>
      <point x="640" y="700" type="curve"/>
      <point x="654" y="699"/>
      <point x="683" y="699"/>
      <point x="706" y="699" type="curve" smooth="yes"/>
      <point x="733" y="699"/>
      <point x="789" y="699"/>
      <point x="812" y="701" type="curve"/>
      <point x="815" y="690" type="line"/>
      <point x="786" y="680"/>
      <point x="775" y="656"/>
      <point x="778" y="619" type="curve" smooth="yes"/>
      <point x="814" y="94" type="line" smooth="yes"/>
      <point x="817" y="44"/>
      <point x="829" y="27"/>
    </contour>
  </outline>
</glyph>
<glyph name="N" format="1">
  <advance width="720"/>
  <unicode hex="004E"/>
  <outline>
    <contour>
      <point x="672" y="692" type="line"/>
      <point x="647" y="679"/>
      <point x="636" y="663"/>
      <point x="636" y="630" type="curve" smooth="yes"/>
      <point x="636" y="-4" type="line"/>
      <point x="616" y="-6" type="line"/>
      <point x="597" y="27"/>
      <point x="560" y="73"/>
      <point x="510" y="134" type="curve" smooth="yes"/>
      <point x="173" y="548" type="line"/>
      <point x="173" y="87" type="line" smooth="yes"/>
      <point x="173" y="44"/>
      <point x="188" y="23"/>
      <point x="222" y="8" type="curve"/>
      <point x="219" y="-1" type="line"/>
      <point x="200" y="0"/>
      <point x="160" y="1"/>
      <point x="138" y="1" type="curve" smooth="yes"/>
      <point x="115" y="1"/>
      <point x="83" y="1"/>
      <point x="61" y="-1" type="curve"/>
      <point x="58" y="9" type="line"/>
      <point x="76" y="19"/>
      <point x="90" y="37"/>
      <point x="90" y="66" type="curve" smooth="yes"/>
      <point x="90" y="619" type="line" smooth="yes"/>
      <point x="90" y="654"/>
      <point x="73" y="683"/>
      <point x="48" y="692" type="curve"/>
      <point x="51" y="701" type="line"/>
      <point x="66" y="699"/>
      <point x="93" y="699"/>
      <point x="119" y="699" type="curve" smooth="yes"/>
      <point x="140" y="699"/>
      <point x="183" y="699"/>
      <point x="209" y="701" type="curve"/>
      <point x="217" y="683"/>
      <point x="244" y="643"/>
      <point x="301" y="573" type="curve" smooth="yes"/>
      <point x="553" y="263" type="line"/>
      <point x="553" y="632" type="line" smooth="yes"/>
      <point x="553" y="666"/>
      <point x="540" y="683"/>
      <point x="518" y="692" type="curve"/>
      <point x="521" y="701" type="line"/>
      <point x="543" y="699"/>
      <point x="581" y="699"/>
      <point x="603" y="699" type="curve" smooth="yes"/>
      <point x="622" y="699"/>
      <point x="651" y="699"/>
      <point x="669" y="701" type="curve"/>
    </contour>
  </outline>
</glyph>
<glyph name="P" format="1">
  <advance width="663"/>
  <unicode hex="0050"/>
  <outline>
    <contour>
      <point x="639" y="527" type="curve" smooth="yes"/>
      <point x="639" y="380"/>
      <point x="478" y="323"/>
      <point x="313" y="323" type="curve" smooth="yes"/>
      <point x="289" y="323"/>
      <point x="249" y="323"/>
      <point x="212" y="323" type="curve"/>
      <point x="212" y="81" type="line" smooth="yes"/>
      <point x="212" y="38"/>
      <point x="223" y="21"/>
      <point x="250" y="11" type="curve"/>
      <point x="246" y="-1" type="line"/>
      <point x="219" y="1"/>
      <point x="160" y="1"/>
      <point x="133" y="1" type="curve" smooth="yes"/>
      <point x="110" y="1"/>
      <point x="86" y="2"/>
      <point x="63" y="-1" type="curve"/>
      <point x="58" y="9" type="line"/>
      <point x="79" y="19"/>
      <point x="90" y="40"/>
      <point x="90" y="70" type="curve" smooth="yes"/>
      <point x="90" y="620" type="line" smooth="yes"/>
      <point x="90" y="662"/>
      <point x="83" y="678"/>
      <point x="58" y="691" type="curve"/>
      <point x="61" y="701" type="line"/>
      <point x="126" y="700"/>
      <point x="157" y="699"/>
      <point x="228" y="699" type="curve" smooth="yes"/>
      <point x="279" y="699"/>
      <point x="349" y="700"/>
      <point x="399" y="700" type="curve" smooth="yes"/>
      <point x="545" y="700"/>
      <point x="639" y="648"/>
    </contour>
    <contour>
      <point x="511" y="520" type="curve" smooth="yes"/>
      <point x="511" y="594"/>
      <point x="464" y="630"/>
      <point x="377" y="630" type="curve" smooth="yes"/>
      <point x="315" y="630"/>
      <point x="258" y="630"/>
      <point x="212" y="628" type="curve"/>
      <point x="212" y="393" type="line"/>
      <point x="249" y="393"/>
      <point x="290" y="393"/>
      <point x="318" y="393" type="curve" smooth="yes"/>
      <point x="427" y="393"/>
      <point x="511" y="427"/>
    </contour>
  </outline>
</glyph>
<glyph name="Q" format="1">
  <advance width="864"/>
  <unicode hex="0051"/>
  <outline>
    <contour>
      <point x="1075" y="-78" type="line"/>
      <point x="1026" y="-129"/>
      <point x="972" y="-165"/>
      <point x="878" y="-165" type="curve" smooth="yes"/>
      <point x="771" y="-165"/>
      <point x="656" y="-113"/>
      <point x="498" y="-4" type="curve"/>
      <point x="475" y="-8"/>
      <point x="452" y="-10"/>
      <point x="429" y="-10" type="curve" smooth="yes"/>
      <point x="221" y="-10"/>
      <point x="48" y="126"/>
      <point x="48" y="339" type="curve" smooth="yes"/>
      <point x="48" y="563"/>
      <point x="228" y="710"/>
      <point x="435" y="710" type="curve" smooth="yes"/>
      <point x="643" y="710"/>
      <point x="816" y="574"/>
      <point x="816" y="361" type="curve" smooth="yes"/>
      <point x="816" y="218"/>
      <point x="742" y="106"/>
      <point x="635" y="44" type="curve"/>
      <point x="756" y="-62"/>
      <point x="843" y="-114"/>
      <point x="932" y="-114" type="curve" smooth="yes"/>
      <point x="985" y="-114"/>
      <point x="1024" y="-100"/>
      <point x="1062" y="-68" type="curve"/>
    </contour>
    <contour>
      <point x="687" y="353" type="curve" smooth="yes"/>
      <point x="687" y="525"/>
      <point x="575" y="640"/>
      <point x="428" y="640" type="curve" smooth="yes"/>
      <point x="275" y="640"/>
      <point x="177" y="516"/>
      <point x="177" y="347" type="curve" smooth="yes"/>
      <point x="177" y="175"/>
      <point x="289" y="60"/>
      <point x="436" y="60" type="curve" smooth="yes"/>
      <point x="589" y="60"/>
      <point x="687" y="184"/>
    </contour>
  </outline>
</glyph>
<glyph name="R" format="1">
  <advance width="678"/>
  <unicode hex="0052"/>
  <outline>
    <contour>
      <point x="683" y="10" type="curve"/>
      <point x="680" y="-5" type="line"/>
      <point x="526" y="-4"/>
      <point x="396" y="113"/>
      <point x="293" y="328" type="curve"/>
      <point x="265" y="328"/>
      <point x="238" y="328"/>
      <point x="212" y="328" type="curve"/>
      <point x="212" y="81" type="line" smooth="yes"/>
      <point x="212" y="40"/>
      <point x="224" y="23"/>
      <point x="255" y="10" type="curve"/>
      <point x="250" y="-1" type="line"/>
      <point x="218" y="2"/>
      <point x="177" y="1"/>
      <point x="149" y="1" type="curve" smooth="yes"/>
      <point x="121" y="1"/>
      <point x="89" y="1"/>
      <point x="60" y="-1" type="curve"/>
      <point x="56" y="8" type="line"/>
      <point x="80" y="19"/>
      <point x="90" y="40"/>
      <point x="90" y="73" type="curve" smooth="yes"/>
      <point x="90" y="629" type="line" smooth="yes"/>
      <point x="90" y="651"/>
      <point x="82" y="677"/>
      <point x="54" y="692" type="curve"/>
      <point x="57" y="701" type="line"/>
      <point x="107" y="699"/>
      <point x="145" y="699"/>
      <point x="195" y="699" type="curve" smooth="yes"/>
      <point x="248" y="699"/>
      <point x="330" y="700"/>
      <point x="384" y="700" type="curve" smooth="yes"/>
      <point x="522" y="700"/>
      <point x="623" y="636"/>
      <point x="623" y="526" type="curve" smooth="yes"/>
      <point x="623" y="424"/>
      <point x="544" y="358"/>
      <point x="429" y="336" type="curve"/>
      <point x="479" y="215"/>
      <point x="595" y="23"/>
    </contour>
    <contour>
      <point x="495" y="519" type="curve" smooth="yes"/>
      <point x="495" y="596"/>
      <point x="434" y="632"/>
      <point x="336" y="632" type="curve" smooth="yes"/>
      <point x="291" y="632"/>
      <point x="270" y="631"/>
      <point x="212" y="630" type="curve"/>
      <point x="212" y="397" type="line"/>
      <point x="247" y="396"/>
      <point x="283" y="396"/>
      <point x="319" y="396" type="curve" smooth="yes"/>
      <point x="421" y="396"/>
      <point x="495" y="433"/>
    </contour>
  </outline>
</glyph>
<glyph name="S" format="1">
  <advance width="635"/>
  <unicode hex="0053"/>
  <outline>
    <contour>
      <point x="587" y="222" type="curve" smooth="yes"/>
      <point x="587" y="81"/>
      <point x="455" y="-6"/>
      <point x="288" y="-6" type="curve" smooth="yes"/>
      <point x="185" y="-6"/>
      <point x="116" y="12"/>
      <point x="46" y="43" type="curve"/>
      <point x="40" y="186" type="line"/>
      <point x="56" y="189" type="line"/>
      <point x="99" y="111"/>
      <point x="177" y="64"/>
      <point x="304" y="64" type="curve" smooth="yes"/>
      <point x="414" y="64"/>
      <point x="476" y="106"/>
      <point x="476" y="183" type="curve" smooth="yes"/>
      <point x="476" y="253"/>
      <point x="437" y="287"/>
      <point x="302" y="318" type="curve" smooth="yes"/>
      <point x="127" y="358"/>
      <point x="74" y="410"/>
      <point x="74" y="515" type="curve" smooth="yes"/>
      <point x="74" y="620"/>
      <point x="170" y="705"/>
      <point x="328" y="705" type="curve" smooth="yes"/>
      <point x="415" y="705"/>
      <point x="481" y="693"/>
      <point x="542" y="671" type="curve"/>
      <point x="532" y="561" type="line"/>
      <point x="517" y="559" type="line"/>
      <point x="478" y="604"/>
      <point x="414" y="635"/>
      <point x="307" y="635" type="curve" smooth="yes"/>
      <point x="218" y="635"/>
      <point x="185" y="593"/>
      <point x="185" y="552" type="curve" smooth="yes"/>
      <point x="185" y="502"/>
      <point x="206" y="471"/>
      <point x="357" y="436" type="curve" smooth="yes"/>
      <point x="529" y="396"/>
      <point x="587" y="333"/>
    </contour>
  </outline>
</glyph>
<glyph name="T" format="1">
  <advance width="631"/>
  <unicode hex="0054"/>
  <outline>
    <contour>
      <point x="618" y="701" type="curve"/>
      <point x="586" y="602" type="line"/>
      <point x="576" y="602" type="line"/>
      <point x="570" y="617"/>
      <point x="558" y="631"/>
      <point x="497" y="631" type="curve" smooth="yes"/>
      <point x="374" y="631" type="line"/>
      <point x="374" y="83" type="line" smooth="yes"/>
      <point x="374" y="43"/>
      <point x="384" y="24"/>
      <point x="420" y="10" type="curve"/>
      <point x="418" y="-1" type="line"/>
      <point x="394" y="1"/>
      <point x="343" y="1"/>
      <point x="318" y="1" type="curve" smooth="yes"/>
      <point x="294" y="1"/>
      <point x="240" y="0"/>
      <point x="217" y="-1" type="curve"/>
      <point x="215" y="10" type="line"/>
      <point x="241" y="22"/>
      <point x="252" y="40"/>
      <point x="252" y="77" type="curve" smooth="yes"/>
      <point x="252" y="631" type="line"/>
      <point x="157" y="631" type="line" smooth="yes"/>
      <point x="75" y="631"/>
      <point x="48" y="619"/>
      <point x="21" y="600" type="curve"/>
      <point x="13" y="606" type="line"/>
      <point x="45" y="701" type="line"/>
      <point x="150" y="700"/>
      <point x="210" y="699"/>
      <point x="315" y="699" type="curve" smooth="yes"/>
      <point x="433" y="699"/>
      <point x="501" y="700"/>
    </contour>
  </outline>
</glyph>
<glyph name="W" format="1">
  <advance width="930"/>
  <unicode hex="0057"/>
  <outline>
    <contour>
      <point x="932" y="692" type="line"/>
      <point x="906" y="680"/>
      <point x="889" y="658"/>
      <point x="870" y="611" type="curve" smooth="yes"/>
      <point x="621" y="-17" type="line"/>
      <point x="595" y="-17" type="line"/>
      <point x="459" y="347" type="line"/>
      <point x="306" y="-17" type="line"/>
      <point x="280" y="-17" type="line"/>
      <point x="59" y="619" type="line" smooth="yes"/>
      <point x="44" y="662"/>
      <point x="32" y="680"/>
      <point x="8" y="692" type="curve"/>
      <point x="10" y="701" type="line"/>
      <point x="33" y="700"/>
      <point x="78" y="699"/>
      <point x="101" y="699" type="curve" smooth="yes"/>
      <point x="123" y="699"/>
      <point x="177" y="699"/>
      <point x="201" y="701" type="curve"/>
      <point x="202" y="692" type="line"/>
      <point x="187" y="684"/>
      <point x="178" y="674"/>
      <point x="178" y="662" type="curve" smooth="yes"/>
      <point x="178" y="649"/>
      <point x="180" y="635"/>
      <point x="185" y="619" type="curve" smooth="yes"/>
      <point x="320" y="210" type="line"/>
      <point x="467" y="571" type="line"/>
      <point x="493" y="571" type="line"/>
      <point x="634" y="207" type="line"/>
      <point x="792" y="610" type="line" smooth="yes"/>
      <point x="799" y="628"/>
      <point x="805" y="650"/>
      <point x="805" y="663" type="curve" smooth="yes"/>
      <point x="805" y="675"/>
      <point x="797" y="686"/>
      <point x="779" y="692" type="curve"/>
      <point x="781" y="701" type="line"/>
      <point x="800" y="700"/>
      <point x="850" y="699"/>
      <point x="866" y="699" type="curve" smooth="yes"/>
      <point x="881" y="699"/>
      <point x="913" y="699"/>
      <point x="930" y="701" type="curve"/>
    </contour>
  </outline>
</glyph>
<glyph name="Y" format="1">
  <advance width="704"/>
  <unicode hex="0059"/>
  <outline>
    <contour>
      <point x="713" y="692" type="line"/>
      <point x="686" y="682"/>
      <point x="662" y="658"/>
      <point x="639" y="624" type="curve" smooth="yes"/>
      <point x="408" y="284" type="line"/>
      <point x="408" y="63" type="line" smooth="yes"/>
      <point x="408" y="36"/>
      <point x="421" y="23"/>
      <point x="450" y="11" type="curve"/>
      <point x="448" y="-1" type="line"/>
      <point x="418" y="1"/>
      <point x="371" y="1"/>
      <point x="338" y="1" type="curve" smooth="yes"/>
      <point x="311" y="1"/>
      <point x="272" y="0"/>
      <point x="243" y="-1" type="curve"/>
      <point x="241" y="10" type="line"/>
      <point x="270" y="19"/>
      <point x="286" y="32"/>
      <point x="286" y="60" type="curve" smooth="yes"/>
      <point x="286" y="274" type="line"/>
      <point x="71" y="616" type="line" smooth="yes"/>
      <point x="44" y="658"/>
      <point x="27" y="680"/>
      <point x="0" y="692" type="curve"/>
      <point x="2" y="701" type="line"/>
      <point x="26" y="700"/>
      <point x="74" y="699"/>
      <point x="97" y="699" type="curve" smooth="yes"/>
      <point x="121" y="699"/>
      <point x="184" y="699"/>
      <point x="211" y="701" type="curve"/>
      <point x="214" y="693" type="line"/>
      <point x="201" y="688"/>
      <point x="194" y="679"/>
      <point x="194" y="669" type="curve" smooth="yes"/>
      <point x="194" y="660"/>
      <point x="200" y="641"/>
      <point x="223" y="603" type="curve" smooth="yes"/>
      <point x="373" y="358" type="line"/>
      <point x="535" y="607" type="line" smooth="yes"/>
      <point x="559" y="644"/>
      <point x="565" y="660"/>
      <point x="565" y="672" type="curve" smooth="yes"/>
      <point x="565" y="681"/>
      <point x="558" y="687"/>
      <point x="546" y="692" type="curve"/>
      <point x="550" y="701" type="line"/>
      <point x="570" y="700"/>
      <point x="616" y="699"/>
      <point x="632" y="699" type="curve" smooth="yes"/>
      <point x="652" y="699"/>
      <point x="691" y="699"/>
      <point x="711" y="701" type="curve"/>
    </contour>
  </outline>
</glyph>
<glyph name="Z" format="1">
  <advance width="680"/>
  <unicode hex="005A"/>
  <outline>
    <contour>
      <point x="667" y="126" type="line"/>
      <point x="642" y="95"/>
      <point x="607" y="27"/>
      <point x="595" y="-1" type="curve"/>
      <point x="512" y="1"/>
      <point x="464" y="1"/>
      <point x="381" y="1" type="curve" smooth="yes"/>
      <point x="280" y="1"/>
      <point x="132" y="1"/>
      <point x="32" y="-2" type="curve"/>
      <point x="28" y="6" type="line"/>
      <point x="452" y="628" type="line"/>
      <point x="208" y="628" type="line" smooth="yes"/>
      <point x="126" y="628"/>
      <point x="99" y="616"/>
      <point x="72" y="597" type="curve"/>
      <point x="64" y="603" type="line"/>
      <point x="106" y="701" type="line"/>
      <point x="211" y="700"/>
      <point x="249" y="699"/>
      <point x="337" y="699" type="curve" smooth="yes"/>
      <point x="435" y="699"/>
      <point x="541" y="699"/>
      <point x="629" y="700" type="curve"/>
      <point x="632" y="690" type="line"/>
      <point x="210" y="72" type="line"/>
      <point x="450" y="72" type="line" smooth="yes"/>
      <point x="580" y="72"/>
      <point x="619" y="94"/>
      <point x="658" y="133" type="curve"/>
    </contour>
  </outline>
</glyph>
<glyph name="bracketleft" format="1">
  <advance width="405"/>
  <unicode hex="005B"/>
  <outline>
    <contour>
      <point x="363" y="0" type="line"/>
      <point x="96" y="-15" type="line"/>
      <point x="96" y="715" type="line"/>
      <point x="363" y="700" type="line"/>
      <point x="363" y="670" type="line"/>
      <point x="208" y="674" type="line"/>
      <point x="208" y="26" type="line"/>
      <point x="363" y="30" type="line"/>
    </contour>
  </outline>
</glyph>
<glyph name="backslash" format="1">
  <advance width="485"/>
  <unicode hex="005C"/>
  <outline>
    <contour>
      <point x="460" y="-5" type="line"/>
      <point x="383" y="-5" type="line"/>
      <point x="25" y="705" type="line"/>
      <point x="102" y="705" type="line"/>
    </contour>
  </outline>
</glyph>
<glyph name="bracketright" format="1">
  <advance width="405"/>
  <unicode hex="005D"/>
  <outline>
    <contour>
      <point x="309" y="-15" type="line"/>
      <point x="42" y="0" type="line"/>
      <point x="42" y="30" type="line"/>
      <point x="197" y="26" type="line"/>
      <point x="197" y="674" type="line"/>
      <point x="42" y="670" type="line"/>
      <point x="42" y="700" type="line"/>
      <point x="309" y="715" type="line"/>
    </contour>
  </outline>
</glyph>
<glyph name="asciicircum" format="1">
  <advance width="440"/>
  <unicode hex="005E"/>
  <outline>
    <contour>
      <point x="395" y="418" type="line"/>
      <point x="374" y="418" type="line"/>
      <point x="220" y="560" type="line"/>
      <point x="66" y="418" type="line"/>
      <point x="45" y="418" type="line"/>
      <point x="207" y="704" type="line"/>
      <point x="233" y="704" type="line"/>
    </contour>
  </outline>
</glyph>
<glyph name="underscore" format="1">
  <advance width="500"/>
  <unicode hex="005F"/>
  <outline>
    <contour>
      <point x="503" y="-131" type="line"/>
      <point x="-3" y="-131" type="line"/>
      <point x="-3" y="-69" type="line"/>
      <point x="503" y="-69" type="line"/>
    </contour>
  </outline>
</glyph>
<glyph name="grave" format="1">
  <advance width="500"/>
  <unicode hex="0060"/>
  <outline>
    <contour>
      <point x="312" y="753" type="curve"/>
      <point x="300" y="742" type="line"/>
      <point x="119" y="843" type="line"/>
      <point x="119" y="856" type="line"/>
      <point x="279" y="856" type="line"/>
      <point x="287" y="848" type="line"/>
      <point x="287" y="820"/>
      <point x="291" y="784"/>
    </contour>
  </outline>
</glyph>
<glyph name="a" format="1">
  <advance width="774"/>
  <unicode hex="0061"/>
  <outline>
    <contour>
      <point x="772" y="9" type="curve"/>
      <point x="770" y="-1" type="line"/>
      <point x="741" y="2"/>
      <point x="698" y="1"/>
      <point x="661" y="1" type="curve" smooth="yes"/>
      <point x="627" y="1"/>
      <point x="572" y="1"/>
      <point x="540" y="-1" type="curve"/>
      <point x="537" y="9" type="line"/>
      <point x="555" y="17"/>
      <point x="569" y="35"/>
      <point x="569" y="51" type="curve" smooth="yes"/>
      <point x="569" y="69"/>
      <point x="564" y="88"/>
      <point x="551" y="118" type="curve" smooth="yes"/>
      <point x="478" y="282" type="line"/>
      <point x="254" y="282" type="line"/>
      <point x="181" y="131" type="line" smooth="yes"/>
      <point x="166" y="100"/>
      <point x="160" y="80"/>
      <point x="160" y="59" type="curve" smooth="yes"/>
      <point x="160" y="32"/>
      <point x="173" y="23"/>
      <point x="199" y="9" type="curve"/>
      <point x="196" y="-1" type="line"/>
      <point x="162" y="0"/>
      <point x="109" y="1"/>
      <point x="75" y="1" type="curve" smooth="yes"/>
      <point x="45" y="1"/>
      <point x="28" y="1"/>
      <point x="-1" y="-1" type="curve"/>
      <point x="-3" y="11" type="line"/>
      <point x="32" y="23"/>
      <point x="57" y="46"/>
      <point x="83" y="98" type="curve" smooth="yes"/>
      <point x="347" y="625" type="line" smooth="yes"/>
      <point x="367" y="665"/>
      <point x="377" y="695"/>
      <point x="377" y="719" type="curve"/>
      <point x="409" y="719" type="line"/>
      <point x="688" y="92" type="line" smooth="yes"/>
      <point x="707" y="49"/>
      <point x="731" y="23"/>
    </contour>
    <contour>
      <point x="448" y="350" type="line"/>
      <point x="371" y="525" type="line"/>
      <point x="287" y="350" type="line"/>
    </contour>
  </outline>
</glyph>
<glyph name="d" format="1">
  <advance width="796"/>
  <unicode hex="0064"/>
  <outline>
    <contour>
      <point x="748" y="357" type="curve" smooth="yes"/>
      <point x="748" y="131"/>
      <point x="576" y="-2"/>
      <point x="340" y="-2" type="curve" smooth="yes"/>
      <point x="280" y="-2"/>
      <point x="204" y="0"/>
      <point x="166" y="0" type="curve" smooth="yes"/>
      <point x="131" y="0"/>
      <point x="110" y="-1"/>
      <point x="62" y="-3" type="curve"/>
      <point x="58" y="6" type="line"/>
      <point x="78" y="19"/>
      <point x="90" y="37"/>
      <point x="90" y="73" type="curve" smooth="yes"/>
      <point x="90" y="631" type="line" smooth="yes"/>
      <point x="90" y="663"/>
      <point x="80" y="682"/>
      <point x="57" y="693" type="curve"/>
      <point x="61" y="703" type="line"/>
      <point x="103" y="701"/>
      <point x="126" y="700"/>
      <point x="150" y="700" type="curve" smooth="yes"/>
      <point x="214" y="700"/>
      <point x="294" y="702"/>
      <point x="344" y="702" type="curve" smooth="yes"/>
      <point x="574" y="702"/>
      <point x="748" y="569"/>
    </contour>
    <contour>
      <point x="619" y="355" type="curve" smooth="yes"/>
      <point x="619" y="539"/>
      <point x="493" y="632"/>
      <point x="317" y="632" type="curve" smooth="yes"/>
      <point x="274" y="632"/>
      <point x="259" y="632"/>
      <point x="212" y="630" type="curve"/>
      <point x="212" y="72" type="line"/>
      <point x="258" y="69"/>
      <point x="290" y="68"/>
      <point x="332" y="68" type="curve" smooth="yes"/>
      <point x="508" y="68"/>
      <point x="619" y="158"/>
    </contour>
  </outline>
</glyph>
<glyph name="f" format="1">
  <advance width="546"/>
  <unicode hex="0066"/>
  <outline>
    <contour>
      <point x="545" y="703" type="curve"/>
      <point x="533" y="688"/>
      <point x="509" y="637"/>
      <point x="501" y="613" type="curve"/>
      <point x="479" y="623"/>
      <point x="446" y="628"/>
      <point x="378" y="628" type="curve" smooth="yes"/>
      <point x="212" y="628" type="line"/>
      <point x="212" y="424" type="line"/>
      <point x="294" y="424" type="line" smooth="yes"/>
      <point x="353" y="424"/>
      <point x="400" y="430"/>
      <point x="419" y="442" type="curve"/>
      <point x="426" y="438" type="line"/>
      <point x="408" y="412"/>
      <point x="387" y="365"/>
      <point x="379" y="343" type="curve"/>
      <point x="357" y="351"/>
      <point x="320" y="353"/>
      <point x="275" y="353" type="curve" smooth="yes"/>
      <point x="212" y="353" type="line"/>
      <point x="212" y="79" type="line" smooth="yes"/>
      <point x="212" y="42"/>
      <point x="225" y="23"/>
      <point x="252" y="10" type="curve"/>
      <point x="251" y="-1" type="line"/>
      <point x="226" y="0"/>
      <point x="175" y="1"/>
      <point x="150" y="1" type="curve" smooth="yes"/>
      <point x="128" y="1"/>
      <point x="85" y="1"/>
      <point x="63" y="-1" type="curve"/>
      <point x="60" y="9" type="line"/>
      <point x="80" y="17"/>
      <point x="90" y="44"/>
      <point x="90" y="74" type="curve" smooth="yes"/>
      <point x="90" y="627" type="line" smooth="yes"/>
      <point x="90" y="660"/>
      <point x="80" y="681"/>
      <point x="56" y="691" type="curve"/>
      <point x="59" y="701" type="line"/>
      <point x="117" y="700"/>
      <point x="164" y="700"/>
      <point x="222" y="700" type="curve" smooth="yes"/>
      <point x="352" y="700"/>
      <point x="443" y="700"/>
    </contour>
  </outline>
</glyph>
<glyph name="h" format="1">
  <advance width="750"/>
  <unicode hex="0068"/>
  <outline>
    <contour>
      <point x="698" y="693" type="line"/>
      <point x="670" y="681"/>
      <point x="660" y="660"/>
      <point x="660" y="615" type="curve" smooth="yes"/>
      <point x="660" y="70" type="line" smooth="yes"/>
      <point x="660" y="36"/>
      <point x="669" y="20"/>
      <point x="696" y="9" type="curve"/>
      <point x="694" y="-1" type="line"/>
      <point x="670" y="0"/>
      <point x="616" y="1"/>
      <point x="593" y="1" type="curve" smooth="yes"/>
      <point x="565" y="1"/>
      <point x="516" y="0"/>
      <point x="492" y="-1" type="curve"/>
      <point x="490" y="8" type="line"/>
      <point x="529" y="21"/>
      <point x="538" y="41"/>
      <point x="538" y="74" type="curve" smooth="yes"/>
      <point x="538" y="340" type="line"/>
      <point x="212" y="340" type="line"/>
      <point x="212" y="82" type="line" smooth="yes"/>
      <point x="212" y="31"/>
      <point x="222" y="22"/>
      <point x="251" y="9" type="curve"/>
      <point x="247" y="-1" type="line"/>
      <point x="225" y="1"/>
      <point x="173" y="1"/>
      <point x="147" y="1" type="curve" smooth="yes"/>
      <point x="116" y="1"/>
      <point x="79" y="1"/>
      <point x="50" y="-1" type="curve"/>
      <point x="47" y="8" type="line"/>
      <point x="79" y="17"/>
      <point x="90" y="36"/>
      <point x="90" y="78" type="curve" smooth="yes"/>
      <point x="90" y="630" type="line" smooth="yes"/>
      <point x="90" y="672"/>
      <point x="82" y="685"/>
      <point x="60" y="693" type="curve"/>
      <point x="63" y="701" type="line"/>
      <point x="80" y="699"/>
      <point x="122" y="699"/>
      <point x="145" y="699" type="curve" smooth="yes"/>
      <point x="172" y="699"/>
      <point x="220" y="699"/>
      <point x="243" y="701" type="curve"/>
      <point x="245" y="692" type="line"/>
      <point x="223" y="681"/>
      <point x="212" y="665"/>
      <point x="212" y="634" type="curve" smooth="yes"/>
      <point x="212" y="413" type="line"/>
      <point x="538" y="413" type="line"/>
      <point x="538" y="621" type="line" smooth="yes"/>
      <point x="538" y="661"/>
      <point x="533" y="681"/>
      <point x="504" y="693" type="curve"/>
      <point x="506" y="701" type="line"/>
      <point x="527" y="700"/>
      <point x="568" y="699"/>
      <point x="596" y="699" type="curve" smooth="yes"/>
      <point x="622" y="699"/>
      <point x="682" y="700"/>
      <point x="696" y="701" type="curve"/>
    </contour>
  </outline>
</glyph>
<glyph name="k" format="1">
  <advance width="703"/>
  <unicode hex="006B"/>
  <outline>
    <contour>
      <point x="710" y="8" type="curve"/>
      <point x="707" y="-1" type="line"/>
      <point x="679" y="0"/>
      <point x="620" y="1"/>
      <point x="592" y="1" type="curve" smooth="yes"/>
      <point x="562" y="1"/>
      <point x="505" y="1"/>
      <point x="477" y="-1" type="curve"/>
      <point x="475" y="8" type="line"/>
      <point x="490" y="15"/>
      <point x="496" y="22"/>
      <point x="496" y="35" type="curve" smooth="yes"/>
      <point x="496" y="50"/>
      <point x="479" y="80"/>
      <point x="461" y="104" type="curve" smooth="yes"/>
      <point x="299" y="323" type="line"/>
      <point x="212" y="218" type="line"/>
      <point x="212" y="65" type="line" smooth="yes"/>
      <point x="212" y="35"/>
      <point x="226" y="21"/>
      <point x="247" y="8" type="curve"/>
      <point x="245" y="-1" type="line"/>
      <point x="220" y="1"/>
      <point x="181" y="1"/>
      <point x="156" y="1" type="curve" smooth="yes"/>
      <point x="137" y="1"/>
      <point x="73" y="1"/>
      <point x="54" y="-1" type="curve"/>
      <point x="53" y="10" type="line"/>
      <point x="74" y="18"/>
      <point x="90" y="36"/>
      <point x="90" y="65" type="curve" smooth="yes"/>
      <point x="90" y="630" type="line" smooth="yes"/>
      <point x="90" y="660"/>
      <point x="83" y="683"/>
      <point x="57" y="691" type="curve"/>
      <point x="60" y="701" type="line"/>
      <point x="88" y="699"/>
      <point x="126" y="699"/>
      <point x="154" y="699" type="curve" smooth="yes"/>
      <point x="178" y="699"/>
      <point x="220" y="700"/>
      <point x="243" y="701" type="curve"/>
      <point x="246" y="692" type="line"/>
      <point x="223" y="681"/>
      <point x="212" y="663"/>
      <point x="212" y="627" type="curve" smooth="yes"/>
      <point x="212" y="318" type="line"/>
      <point x="451" y="609" type="line" smooth="yes"/>
      <point x="471" y="634"/>
      <point x="485" y="657"/>
      <point x="485" y="667" type="curve" smooth="yes"/>
      <point x="485" y="679"/>
      <point x="479" y="686"/>
      <point x="465" y="692" type="curve"/>
      <point x="469" y="701" type="line"/>
      <point x="490" y="700"/>
      <point x="522" y="699"/>
      <point x="547" y="699" type="curve" smooth="yes"/>
      <point x="564" y="699"/>
      <point x="614" y="700"/>
      <point x="631" y="701" type="curve"/>
      <point x="634" y="692" type="line"/>
      <point x="609" y="682"/>
      <point x="587" y="664"/>
      <point x="551" y="621" type="curve" smooth="yes"/>
      <point x="377" y="414" type="line"/>
      <point x="623" y="85" type="line" smooth="yes"/>
      <point x="658" y="38"/>
      <point x="679" y="21"/>
    </contour>
  </outline>
</glyph>
<glyph name="l" format="1">
  <advance width="590"/>
  <unicode hex="006C"/>
  <outline>
    <contour>
      <point x="594" y="130" type="line"/>
      <point x="566" y="96"/>
      <point x="530" y="24"/>
      <point x="518" y="-1" type="curve"/>
      <point x="416" y="0"/>
      <point x="368" y="0"/>
      <point x="266" y="0" type="curve" smooth="yes"/>
      <point x="186" y="0"/>
      <point x="137" y="0"/>
      <point x="61" y="-1" type="curve"/>
      <point x="59" y="6" type="line"/>
      <point x="76" y="17"/>
      <point x="90" y="43"/>
      <point x="90" y="72" type="curve" smooth="yes"/>
      <point x="90" y="627" type="line" smooth="yes"/>
      <point x="90" y="666"/>
      <point x="82" y="681"/>
      <point x="56" y="690" type="curve"/>
      <point x="61" y="701" type="line"/>
      <point x="79" y="699"/>
      <point x="116" y="699"/>
      <point x="141" y="699" type="curve" smooth="yes"/>
      <point x="166" y="699"/>
      <point x="224" y="699"/>
      <point x="242" y="701" type="curve"/>
      <point x="245" y="690" type="line"/>
      <point x="221" y="679"/>
      <point x="212" y="662"/>
      <point x="212" y="633" type="curve" smooth="yes"/>
      <point x="212" y="74" type="line"/>
      <point x="412" y="74" type="line" smooth="yes"/>
      <point x="510" y="74"/>
      <point x="538" y="93"/>
      <point x="584" y="138" type="curve"/>
    </contour>
  </outline>
</glyph>
<glyph name="o" format="1">
  <advance width="864"/>
  <unicode hex="006F"/>
  <outline>
    <contour>
      <point x="816" y="361" type="curve" smooth="yes"/>
      <point x="816" y="137"/>
      <point x="636" y="-10"/>
      <point x="429" y="-10" type="curve" smooth="yes"/>
      <point x="221" y="-10"/>
      <point x="48" y="126"/>
      <point x="48" y="339" type="curve" smooth="yes"/>
      <point x="48" y="563"/>
      <point x="228" y="710"/>
      <point x="435" y="710" type="curve" smooth="yes"/>
      <point x="643" y="710"/>
      <point x="816" y="574"/>
    </contour>
    <contour>
      <point x="687" y="353" type="curve" smooth="yes"/>
      <point x="687" y="525"/>
      <point x="575" y="640"/>
      <point x="428" y="640" type="curve" smooth="yes"/>
      <point x="275" y="640"/>
      <point x="177" y="516"/>
      <point x="177" y="347" type="curve" smooth="yes"/>
      <point x="177" y="175"/>
      <point x="289" y="60"/>
      <point x="436" y="60" type="curve" smooth="yes"/>
      <point x="589" y="60"/>
      <point x="687" y="184"/>
    </contour>
  </outline>
</glyph>
<glyph name="q" format="1">
  <advance width="864"/>
  <unicode hex="0071"/>
  <outline>
    <contour>
      <point x="1475" y="-76" type="line"/>
      <point x="1393" y="-130"/>
      <point x="1305" y="-165"/>
      <point x="1155" y="-165" type="curve" smooth="yes"/>
      <point x="968" y="-165"/>
      <point x="778" y="-121"/>
      <point x="495" y="-5" type="curve"/>
      <point x="473" y="-8"/>
      <point x="451" y="-10"/>
      <point x="429" y="-10" type="curve" smooth="yes"/>
      <point x="221" y="-10"/>
      <point x="48" y="126"/>
      <point x="48" y="339" type="curve" smooth="yes"/>
      <point x="48" y="563"/>
      <point x="228" y="710"/>
      <point x="435" y="710" type="curve" smooth="yes"/>
      <point x="643" y="710"/>
      <point x="816" y="574"/>
      <point x="816" y="361" type="curve" smooth="yes"/>
      <point x="816" y="221"/>
      <point x="746" y="112"/>
      <point x="643" y="49" type="curve"/>
      <point x="890" y="-65"/>
      <point x="1066" y="-114"/>
      <point x="1220" y="-114" type="curve" smooth="yes"/>
      <point x="1319" y="-114"/>
      <point x="1403" y="-99"/>
      <point x="1466" y="-65" type="curve"/>
    </contour>
    <contour>
      <point x="687" y="353" type="curve" smooth="yes"/>
      <point x="687" y="525"/>
      <point x="575" y="640"/>
      <point x="428" y="640" type="curve" smooth="yes"/>
      <point x="275" y="640"/>
      <point x="177" y="516"/>
      <point x="177" y="347" type="curve" smooth="yes"/>
      <point x="177" y="175"/>
      <point x="289" y="60"/>
      <point x="436" y="60" type="curve" smooth="yes"/>
      <point x="589" y="60"/>
      <point x="687" y="184"/>
    </contour>
  </outline>
</glyph>
<glyph name="r" format="1">
  <advance width="765"/>
  <unicode hex="0072"/>
  <outline>
    <contour>
      <point x="797" y="6" type="line"/>
      <point x="773" y="-2"/>
      <point x="745" y="-7"/>
      <point x="711" y="-7" type="curve" smooth="yes"/>
      <point x="530" y="-7"/>
      <point x="395" y="117"/>
      <point x="298" y="328" type="curve"/>
      <point x="271" y="328"/>
      <point x="243" y="328"/>
      <point x="218" y="328" type="curve"/>
      <point x="218" y="81" type="line" smooth="yes"/>
      <point x="218" y="40"/>
      <point x="230" y="23"/>
      <point x="261" y="10" type="curve"/>
      <point x="256" y="-1" type="line"/>
      <point x="224" y="2"/>
      <point x="183" y="1"/>
      <point x="155" y="1" type="curve" smooth="yes"/>
      <point x="127" y="1"/>
      <point x="95" y="1"/>
      <point x="66" y="-1" type="curve"/>
      <point x="62" y="8" type="line"/>
      <point x="86" y="19"/>
      <point x="96" y="40"/>
      <point x="96" y="73" type="curve" smooth="yes"/>
      <point x="96" y="629" type="line" smooth="yes"/>
      <point x="96" y="651"/>
      <point x="88" y="677"/>
      <point x="60" y="692" type="curve"/>
      <point x="63" y="701" type="line"/>
      <point x="113" y="699"/>
      <point x="151" y="699"/>
      <point x="201" y="699" type="curve" smooth="yes"/>
      <point x="254" y="699"/>
      <point x="336" y="700"/>
      <point x="390" y="700" type="curve" smooth="yes"/>
      <point x="528" y="700"/>
      <point x="629" y="636"/>
      <point x="629" y="526" type="curve" smooth="yes"/>
      <point x="629" y="424"/>
      <point x="551" y="359"/>
      <point x="436" y="337" type="curve"/>
      <point x="517" y="144"/>
      <point x="628" y="16"/>
      <point x="751" y="16" type="curve" smooth="yes"/>
      <point x="769" y="16"/>
      <point x="781" y="16"/>
      <point x="794" y="19" type="curve"/>
    </contour>
    <contour>
      <point x="501" y="519" type="curve" smooth="yes"/>
      <point x="501" y="596"/>
      <point x="440" y="632"/>
      <point x="342" y="632" type="curve" smooth="yes"/>
      <point x="297" y="632"/>
      <point x="276" y="631"/>
      <point x="218" y="630" type="curve"/>
      <point x="218" y="397" type="line"/>
      <point x="253" y="396"/>
      <point x="289" y="396"/>
      <point x="325" y="396" type="curve" smooth="yes"/>
      <point x="427" y="396"/>
      <point x="501" y="433"/>
    </contour>
  </outline>
</glyph>
<glyph name="u" format="1">
  <advance width="728"/>
  <unicode hex="0075"/>
  <outline>
    <contour>
      <point x="680" y="694" type="line"/>
      <point x="656" y="681"/>
      <point x="644" y="660"/>
      <point x="644" y="630" type="curve" smooth="yes"/>
      <point x="644" y="261" type="line" smooth="yes"/>
      <point x="644" y="88"/>
      <point x="528" y="-6"/>
      <point x="360" y="-6" type="curve" smooth="yes"/>
      <point x="204" y="-6"/>
      <point x="84" y="81"/>
      <point x="84" y="239" type="curve" smooth="yes"/>
      <point x="84" y="601" type="line" smooth="yes"/>
      <point x="84" y="649"/>
      <point x="76" y="677"/>
      <point x="50" y="692" type="curve"/>
      <point x="52" y="702" type="line"/>
      <point x="83" y="700"/>
      <point x="108" y="699"/>
      <point x="139" y="699" type="curve" smooth="yes"/>
      <point x="159" y="699"/>
      <point x="206" y="699"/>
      <point x="231" y="701" type="curve"/>
      <point x="234" y="693" type="line"/>
      <point x="212" y="676"/>
      <point x="206" y="657"/>
      <point x="206" y="611" type="curve" smooth="yes"/>
      <point x="206" y="248" type="line" smooth="yes"/>
      <point x="206" y="130"/>
      <point x="268" y="65"/>
      <point x="376" y="65" type="curve" smooth="yes"/>
      <point x="494" y="65"/>
      <point x="560" y="139"/>
      <point x="560" y="256" type="curve" smooth="yes"/>
      <point x="560" y="625" type="line" smooth="yes"/>
      <point x="560" y="661"/>
      <point x="549" y="680"/>
      <point x="524" y="693" type="curve"/>
      <point x="526" y="701" type="line"/>
      <point x="542" y="700"/>
      <point x="576" y="699"/>
      <point x="592" y="699" type="curve" smooth="yes"/>
      <point x="606" y="699"/>
      <point x="664" y="700"/>
      <point x="678" y="701" type="curve"/>
    </contour>
  </outline>
</glyph>
<glyph name="v" format="1">
  <advance width="727"/>
  <unicode hex="0076"/>
  <outline>
    <contour>
      <point x="728" y="692" type="line"/>
      <point x="704" y="681"/>
      <point x="689" y="661"/>
      <point x="671" y="621" type="curve" smooth="yes"/>
      <point x="379" y="-17" type="line"/>
      <point x="352" y="-17" type="line"/>
      <point x="64" y="615" type="line" smooth="yes"/>
      <point x="46" y="655"/>
      <point x="31" y="679"/>
      <point x="4" y="692" type="curve"/>
      <point x="6" y="701" type="line"/>
      <point x="33" y="700"/>
      <point x="66" y="699"/>
      <point x="94" y="699" type="curve" smooth="yes"/>
      <point x="124" y="699"/>
      <point x="182" y="699"/>
      <point x="211" y="701" type="curve"/>
      <point x="214" y="692" type="line"/>
      <point x="198" y="685"/>
      <point x="189" y="671"/>
      <point x="189" y="658" type="curve" smooth="yes"/>
      <point x="189" y="643"/>
      <point x="196" y="621"/>
      <point x="207" y="596" type="curve" smooth="yes"/>
      <point x="386" y="174" type="line"/>
      <point x="573" y="609" type="line" smooth="yes"/>
      <point x="584" y="635"/>
      <point x="588" y="649"/>
      <point x="588" y="661" type="curve" smooth="yes"/>
      <point x="588" y="675"/>
      <point x="579" y="685"/>
      <point x="561" y="692" type="curve"/>
      <point x="564" y="701" type="line"/>
      <point x="586" y="700"/>
      <point x="632" y="699"/>
      <point x="657" y="699" type="curve" smooth="yes"/>
      <point x="674" y="699"/>
      <point x="709" y="700"/>
      <point x="725" y="701" type="curve"/>
    </contour>
  </outline>
</glyph>
<glyph name="x" format="1">
  <advance width="716"/>
  <unicode hex="0078"/>
  <outline>
    <contour>
      <point x="707" y="8" type="curve"/>
      <point x="704" y="-1" type="line"/>
      <point x="677" y="0"/>
      <point x="638" y="1"/>
      <point x="610" y="1" type="curve" smooth="yes"/>
      <point x="580" y="1"/>
      <point x="515" y="1"/>
      <point x="486" y="-1" type="curve"/>
      <point x="484" y="8" type="line"/>
      <point x="500" y="15"/>
      <point x="507" y="23"/>
      <point x="507" y="36" type="curve" smooth="yes"/>
      <point x="507" y="51"/>
      <point x="498" y="71"/>
      <point x="477" y="104" type="curve" smooth="yes"/>
      <point x="344" y="312" type="line"/>
      <point x="182" y="91" type="line" smooth="yes"/>
      <point x="165" y="68"/>
      <point x="149" y="44"/>
      <point x="149" y="34" type="curve" smooth="yes"/>
      <point x="149" y="22"/>
      <point x="156" y="14"/>
      <point x="171" y="8" type="curve"/>
      <point x="167" y="-1" type="line"/>
      <point x="145" y="0"/>
      <point x="102" y="1"/>
      <point x="77" y="1" type="curve" smooth="yes"/>
      <point x="60" y="1"/>
      <point x="28" y="0"/>
      <point x="12" y="-1" type="curve"/>
      <point x="9" y="8" type="line"/>
      <point x="36" y="18"/>
      <point x="58" y="36"/>
      <point x="90" y="79" type="curve" smooth="yes"/>
      <point x="306" y="370" type="line"/>
      <point x="147" y="615" type="line" smooth="yes"/>
      <point x="116" y="662"/>
      <point x="99" y="679"/>
      <point x="69" y="692" type="curve"/>
      <point x="72" y="701" type="line"/>
      <point x="99" y="700"/>
      <point x="144" y="699"/>
      <point x="172" y="699" type="curve" smooth="yes"/>
      <point x="202" y="699"/>
      <point x="261" y="699"/>
      <point x="290" y="701" type="curve"/>
      <point x="292" y="692" type="line"/>
      <point x="276" y="685"/>
      <point x="269" y="676"/>
      <point x="269" y="663" type="curve" smooth="yes"/>
      <point x="269" y="648"/>
      <point x="284" y="621"/>
      <point x="299" y="596" type="curve" smooth="yes"/>
      <point x="378" y="468" type="line"/>
      <point x="481" y="609" type="line" smooth="yes"/>
      <point x="500" y="635"/>
      <point x="514" y="656"/>
      <point x="514" y="666" type="curve" smooth="yes"/>
      <point x="514" y="678"/>
      <point x="507" y="686"/>
      <point x="492" y="692" type="curve"/>
      <point x="496" y="701" type="line"/>
      <point x="518" y="700"/>
      <point x="561" y="699"/>
      <point x="586" y="699" type="curve" smooth="yes"/>
      <point x="603" y="699"/>
      <point x="635" y="700"/>
      <point x="651" y="701" type="curve"/>
      <point x="654" y="692" type="line"/>
      <point x="630" y="682"/>
      <point x="603" y="661"/>
      <point x="573" y="621" type="curve" smooth="yes"/>
      <point x="415" y="410" type="line"/>
      <point x="629" y="85" type="line" smooth="yes"/>
      <point x="660" y="38"/>
      <point x="677" y="21"/>
    </contour>
  </outline>
</glyph>
<glyph name="braceleft" format="1">
  <advance width="450"/>
  <unicode hex="007B"/>
  <outline>
    <contour>
      <point x="426" y="14" type="line"/>
      <point x="378" y="-3"/>
      <point x="317" y="-10"/>
      <point x="261" y="-10" type="curve" smooth="yes"/>
      <point x="189" y="-10"/>
      <point x="138" y="21"/>
      <point x="138" y="85" type="curve" smooth="yes"/>
      <point x="138" y="141"/>
      <point x="176" y="210"/>
      <point x="176" y="264" type="curve" smooth="yes"/>
      <point x="176" y="320"/>
      <point x="128" y="335"/>
      <point x="35" y="335" type="curve" smooth="yes"/>
      <point x="25" y="335" type="line"/>
      <point x="25" y="365" type="line"/>
      <point x="35" y="365" type="line" smooth="yes"/>
      <point x="128" y="365"/>
      <point x="176" y="380"/>
      <point x="176" y="436" type="curve" smooth="yes"/>
      <point x="176" y="490"/>
      <point x="138" y="559"/>
      <point x="138" y="615" type="curve" smooth="yes"/>
      <point x="138" y="679"/>
      <point x="189" y="710"/>
      <point x="261" y="710" type="curve" smooth="yes"/>
      <point x="317" y="710"/>
      <point x="378" y="703"/>
      <point x="426" y="686" type="curve"/>
      <point x="419" y="661" type="line"/>
      <point x="381" y="672"/>
      <point x="347" y="676"/>
      <point x="315" y="676" type="curve" smooth="yes"/>
      <point x="269" y="676"/>
      <point x="248" y="661"/>
      <point x="248" y="625" type="curve" smooth="yes"/>
      <point x="248" y="578"/>
      <point x="284" y="505"/>
      <point x="284" y="454" type="curve" smooth="yes"/>
      <point x="284" y="383"/>
      <point x="196" y="360"/>
      <point x="130" y="350" type="curve"/>
      <point x="196" y="340"/>
      <point x="284" y="317"/>
      <point x="284" y="246" type="curve" smooth="yes"/>
      <point x="284" y="195"/>
      <point x="248" y="122"/>
      <point x="248" y="75" type="curve" smooth="yes"/>
      <point x="248" y="39"/>
      <point x="269" y="24"/>
      <point x="315" y="24" type="curve" smooth="yes"/>
      <point x="347" y="24"/>
      <point x="381" y="28"/>
      <point x="419" y="39" type="curve"/>
    </contour>
  </outline>
</glyph>
<glyph name="bar" format="1">
  <advance width="290"/>
  <unicode hex="007C"/>
  <outline>
    <contour>
      <point x="179" y="-125" type="line"/>
      <point x="111" y="-125" type="line"/>
      <point x="111" y="785" type="line"/>
      <point x="179" y="785" type="line"/>
    </contour>
  </outline>
</glyph>
<glyph name="braceright" format="1">
  <advance width="450"/>
  <unicode hex="007D"/>
  <outline>
    <contour>
      <point x="425" y="335" type="line"/>
      <point x="415" y="335" type="line" smooth="yes"/>
      <point x="322" y="335"/>
      <point x="274" y="320"/>
      <point x="274" y="264" type="curve" smooth="yes"/>
      <point x="274" y="210"/>
      <point x="312" y="141"/>
      <point x="312" y="85" type="curve" smooth="yes"/>
      <point x="312" y="21"/>
      <point x="261" y="-10"/>
      <point x="189" y="-10" type="curve" smooth="yes"/>
      <point x="133" y="-10"/>
      <point x="72" y="-3"/>
      <point x="24" y="14" type="curve"/>
      <point x="31" y="39" type="line"/>
      <point x="69" y="28"/>
      <point x="103" y="24"/>
      <point x="135" y="24" type="curve" smooth="yes"/>
      <point x="181" y="24"/>
      <point x="202" y="39"/>
      <point x="202" y="75" type="curve" smooth="yes"/>
      <point x="202" y="122"/>
      <point x="166" y="195"/>
      <point x="166" y="246" type="curve" smooth="yes"/>
      <point x="166" y="317"/>
      <point x="254" y="340"/>
      <point x="320" y="350" type="curve"/>
      <point x="254" y="360"/>
      <point x="166" y="383"/>
      <point x="166" y="454" type="curve" smooth="yes"/>
      <point x="166" y="505"/>
      <point x="202" y="578"/>
      <point x="202" y="625" type="curve" smooth="yes"/>
      <point x="202" y="661"/>
      <point x="181" y="676"/>
      <point x="135" y="676" type="curve" smooth="yes"/>
      <point x="103" y="676"/>
      <point x="69" y="672"/>
      <point x="31" y="661" type="curve"/>
      <point x="24" y="686" type="line"/>
      <point x="72" y="703"/>
      <point x="133" y="710"/>
      <point x="189" y="710" type="curve" smooth="yes"/>
      <point x="261" y="710"/>
      <point x="312" y="679"/>
      <point x="312" y="615" type="curve" smooth="yes"/>
      <point x="312" y="559"/>
      <point x="274" y="490"/>
      <point x="274" y="436" type="curve" smooth="yes"/>
      <point x="274" y="380"/>
      <point x="322" y="365"/>
      <point x="415" y="365" type="curve" smooth="yes"/>
      <point x="425" y="365" type="line"/>
    </contour>
  </outline>
</glyph>
<glyph name="asciitilde" format="1">
  <advance width="450"/>
  <unicode hex="007E"/>
  <outline>
    <contour>
      <point x="407" y="443" type="line"/>
      <point x="394" y="354"/>
      <point x="355" y="317"/>
      <point x="290" y="317" type="curve" smooth="yes"/>
      <point x="236" y="317"/>
      <point x="178" y="341"/>
      <point x="134" y="341" type="curve" smooth="yes"/>
      <point x="98" y="341"/>
      <point x="73" y="329"/>
      <point x="55" y="302" type="curve"/>
      <point x="44" y="306" type="line"/>
      <point x="57" y="395"/>
      <point x="96" y="432"/>
      <point x="161" y="432" type="curve" smooth="yes"/>
      <point x="215" y="432"/>
      <point x="273" y="408"/>
      <point x="317" y="408" type="curve" smooth="yes"/>
      <point x="353" y="408"/>
      <point x="378" y="420"/>
      <point x="396" y="447" type="curve"/>
    </contour>
  </outline>
</glyph>
<glyph name="exclamdown" format="1">
  <advance width="320"/>
  <unicode hex="00A1"/>
  <outline>
    <contour>
      <point x="236" y="629" type="curve" smooth="yes"/>
      <point x="236" y="587"/>
      <point x="202" y="553"/>
      <point x="160" y="553" type="curve" smooth="yes"/>
      <point x="118" y="553"/>
      <point x="84" y="587"/>
      <point x="84" y="629" type="curve" smooth="yes"/>
      <point x="84" y="671"/>
      <point x="118" y="705"/>
      <point x="160" y="705" type="curve" smooth="yes"/>
      <point x="202" y="705"/>
      <point x="236" y="671"/>
    </contour>
    <contour>
      <point x="230" y="0" type="curve"/>
      <point x="196" y="0"/>
      <point x="119" y="0"/>
      <point x="91" y="-1" type="curve"/>
      <point x="92" y="16"/>
      <point x="93" y="36"/>
      <point x="93" y="66" type="curve" smooth="yes"/>
      <point x="93" y="77" type="line" smooth="yes"/>
      <point x="93" y="178"/>
      <point x="117" y="355"/>
      <point x="148" y="495" type="curve"/>
      <point x="172" y="495" type="line"/>
      <point x="203" y="355"/>
      <point x="227" y="171"/>
      <point x="227" y="85" type="curve" smooth="yes"/>
      <point x="227" y="82" type="line" smooth="yes"/>
      <point x="227" y="47"/>
      <point x="229" y="13"/>
    </contour>
  </outline>
</glyph>
<glyph name="cent" format="1">
  <advance width="498"/>
  <unicode hex="00A2"/>
  <outline>
    <contour>
      <point x="447" y="269" type="line"/>
      <point x="445" y="249"/>
      <point x="443" y="200"/>
      <point x="443" y="179" type="curve"/>
      <point x="394" y="151"/>
      <point x="341" y="138"/>
      <point x="289" y="138" type="curve" smooth="yes"/>
      <point x="278" y="138"/>
      <point x="267" y="139"/>
      <point x="256" y="139" type="curve"/>
      <point x="228" y="-4" type="line"/>
      <point x="174" y="-4" type="line"/>
      <point x="204" y="149" type="line"/>
      <point x="115" y="173"/>
      <point x="47" y="238"/>
      <point x="47" y="346" type="curve" smooth="yes"/>
      <point x="47" y="484"/>
      <point x="159" y="564"/>
      <point x="285" y="566" type="curve"/>
      <point x="312" y="704" type="line"/>
      <point x="366" y="704" type="line"/>
      <point x="338" y="562" type="line"/>
      <point x="377" y="557"/>
      <point x="410" y="545"/>
      <point x="437" y="531" type="curve"/>
      <point x="437" y="512"/>
      <point x="439" y="463"/>
      <point x="443" y="441" type="curve"/>
      <point x="429" y="436" type="line"/>
      <point x="410" y="466"/>
      <point x="369" y="493"/>
      <point x="327" y="504" type="curve"/>
      <point x="267" y="196" type="line"/>
      <point x="275" y="195"/>
      <point x="283" y="194"/>
      <point x="292" y="194" type="curve" smooth="yes"/>
      <point x="342" y="194"/>
      <point x="401" y="220"/>
      <point x="435" y="276" type="curve"/>
    </contour>
    <contour>
      <point x="274" y="509" type="line"/>
      <point x="200" y="504"/>
      <point x="154" y="437"/>
      <point x="154" y="351" type="curve" smooth="yes"/>
      <point x="154" y="289"/>
      <point x="180" y="243"/>
      <point x="217" y="217" type="curve"/>
    </contour>
  </outline>
</glyph>
<glyph name="sterling" format="1">
  <advance width="635"/>
  <unicode hex="00A3"/>
  <outline>
    <contour>
      <point x="622" y="152" type="line"/>
      <point x="594" y="118"/>
      <point x="545" y="24"/>
      <point x="533" y="-1" type="curve"/>
      <point x="431" y="0"/>
      <point x="403" y="0"/>
      <point x="301" y="0" type="curve" smooth="yes"/>
      <point x="221" y="0"/>
      <point x="122" y="0"/>
      <point x="46" y="-1" type="curve"/>
      <point x="44" y="6" type="line"/>
      <point x="162" y="118"/>
      <point x="210" y="174"/>
      <point x="210" y="237" type="curve" smooth="yes"/>
      <point x="210" y="269"/>
      <point x="199" y="298"/>
      <point x="184" y="327" type="curve"/>
      <point x="40" y="327" type="line"/>
      <point x="40" y="388" type="line"/>
      <point x="151" y="388" type="line"/>
      <point x="133" y="424"/>
      <point x="117" y="462"/>
      <point x="117" y="506" type="curve" smooth="yes"/>
      <point x="117" y="631"/>
      <point x="218" y="706"/>
      <point x="363" y="706" type="curve" smooth="yes"/>
      <point x="445" y="706"/>
      <point x="516" y="684"/>
      <point x="571" y="645" type="curve"/>
      <point x="571" y="618"/>
      <point x="575" y="546"/>
      <point x="579" y="520" type="curve"/>
      <point x="567" y="515" type="line"/>
      <point x="511" y="597"/>
      <point x="441" y="636"/>
      <point x="350" y="636" type="curve" smooth="yes"/>
      <point x="282" y="636"/>
      <point x="245" y="597"/>
      <point x="245" y="539" type="curve" smooth="yes"/>
      <point x="245" y="488"/>
      <point x="271" y="439"/>
      <point x="292" y="388" type="curve"/>
      <point x="510" y="388" type="line"/>
      <point x="510" y="327" type="line"/>
      <point x="311" y="327" type="line"/>
      <point x="314" y="314"/>
      <point x="316" y="301"/>
      <point x="316" y="287" type="curve" smooth="yes"/>
      <point x="316" y="218"/>
      <point x="274" y="167"/>
      <point x="200" y="96" type="curve"/>
      <point x="440" y="96" type="line" smooth="yes"/>
      <point x="538" y="96"/>
      <point x="566" y="115"/>
      <point x="612" y="160" type="curve"/>
    </contour>
  </outline>
</glyph>
<glyph name="yen" format="1">
  <advance width="684"/>
  <unicode hex="00A5"/>
  <outline>
    <contour>
      <point x="693" y="692" type="line"/>
      <point x="666" y="682"/>
      <point x="642" y="658"/>
      <point x="619" y="624" type="curve" smooth="yes"/>
      <point x="467" y="401" type="line"/>
      <point x="607" y="401" type="line"/>
      <point x="607" y="345" type="line"/>
      <point x="429" y="345" type="line"/>
      <point x="398" y="300" type="line"/>
      <point x="398" y="246" type="line"/>
      <point x="597" y="246" type="line"/>
      <point x="597" y="190" type="line"/>
      <point x="398" y="190" type="line"/>
      <point x="398" y="63" type="line" smooth="yes"/>
      <point x="398" y="36"/>
      <point x="411" y="23"/>
      <point x="440" y="11" type="curve"/>
      <point x="438" y="-1" type="line"/>
      <point x="408" y="1"/>
      <point x="361" y="1"/>
      <point x="328" y="1" type="curve" smooth="yes"/>
      <point x="301" y="1"/>
      <point x="262" y="0"/>
      <point x="233" y="-1" type="curve"/>
      <point x="231" y="10" type="line"/>
      <point x="260" y="19"/>
      <point x="276" y="32"/>
      <point x="276" y="60" type="curve" smooth="yes"/>
      <point x="276" y="190" type="line"/>
      <point x="87" y="190" type="line"/>
      <point x="87" y="246" type="line"/>
      <point x="276" y="246" type="line"/>
      <point x="276" y="290" type="line"/>
      <point x="241" y="345" type="line"/>
      <point x="77" y="345" type="line"/>
      <point x="77" y="401" type="line"/>
      <point x="206" y="401" type="line"/>
      <point x="71" y="616" type="line" smooth="yes"/>
      <point x="44" y="658"/>
      <point x="27" y="680"/>
      <point x="0" y="692" type="curve"/>
      <point x="2" y="701" type="line"/>
      <point x="26" y="700"/>
      <point x="74" y="699"/>
      <point x="97" y="699" type="curve" smooth="yes"/>
      <point x="121" y="699"/>
      <point x="184" y="699"/>
      <point x="211" y="701" type="curve"/>
      <point x="214" y="693" type="line"/>
      <point x="201" y="688"/>
      <point x="194" y="679"/>
      <point x="194" y="669" type="curve" smooth="yes"/>
      <point x="194" y="660"/>
      <point x="200" y="641"/>
      <point x="223" y="603" type="curve" smooth="yes"/>
      <point x="363" y="374" type="line"/>
      <point x="515" y="607" type="line" smooth="yes"/>
      <point x="539" y="644"/>
      <point x="545" y="660"/>
      <point x="545" y="672" type="curve" smooth="yes"/>
      <point x="545" y="681"/>
      <point x="538" y="687"/>
      <point x="526" y="692" type="curve"/>
      <point x="530" y="701" type="line"/>
      <point x="550" y="700"/>
      <point x="596" y="699"/>
      <point x="612" y="699" type="curve" smooth="yes"/>
      <point x="632" y="699"/>
      <point x="671" y="699"/>
      <point x="691" y="701" type="curve"/>
    </contour>
  </outline>
</glyph>
<glyph name="section" format="1">
  <advance width="602"/>
  <unicode hex="00A7"/>
  <outline>
    <contour>
      <point x="538" y="652" type="curve"/>
      <point x="531" y="549" type="line"/>
      <point x="520" y="545" type="line"/>
      <point x="479" y="612"/>
      <point x="387" y="657"/>
      <point x="294" y="657" type="curve" smooth="yes"/>
      <point x="204" y="657"/>
      <point x="171" y="627"/>
      <point x="171" y="593" type="curve" smooth="yes"/>
      <point x="171" y="551"/>
      <point x="210" y="542"/>
      <point x="324" y="517" type="curve" smooth="yes"/>
      <point x="446" y="491"/>
      <point x="500" y="461"/>
      <point x="500" y="382" type="curve" smooth="yes"/>
      <point x="500" y="330"/>
      <point x="471" y="290"/>
      <point x="416" y="261" type="curve"/>
      <point x="497" y="233"/>
      <point x="535" y="195"/>
      <point x="535" y="135" type="curve" smooth="yes"/>
      <point x="535" y="50"/>
      <point x="446" y="-5"/>
      <point x="304" y="-5" type="curve" smooth="yes"/>
      <point x="207" y="-5"/>
      <point x="136" y="16"/>
      <point x="54" y="55" type="curve"/>
      <point x="61" y="158" type="line"/>
      <point x="72" y="162" type="line"/>
      <point x="113" y="92"/>
      <point x="216" y="44"/>
      <point x="308" y="44" type="curve" smooth="yes"/>
      <point x="404" y="44"/>
      <point x="441" y="74"/>
      <point x="441" y="108" type="curve" smooth="yes"/>
      <point x="441" y="150"/>
      <point x="392" y="159"/>
      <point x="277" y="184" type="curve" smooth="yes"/>
      <point x="156" y="210"/>
      <point x="102" y="240"/>
      <point x="102" y="319" type="curve" smooth="yes"/>
      <point x="102" y="371"/>
      <point x="131" y="411"/>
      <point x="187" y="441" type="curve"/>
      <point x="109" y="469"/>
      <point x="77" y="507"/>
      <point x="77" y="566" type="curve" smooth="yes"/>
      <point x="77" y="651"/>
      <point x="163" y="706"/>
      <point x="298" y="706" type="curve" smooth="yes"/>
      <point x="395" y="706"/>
      <point x="472" y="684"/>
    </contour>
    <contour>
      <point x="422" y="345" type="curve" smooth="yes"/>
      <point x="422" y="376"/>
      <point x="396" y="392"/>
      <point x="296" y="412" type="curve" smooth="yes"/>
      <point x="277" y="416"/>
      <point x="259" y="420"/>
      <point x="242" y="424" type="curve"/>
      <point x="202" y="406"/>
      <point x="180" y="384"/>
      <point x="180" y="357" type="curve" smooth="yes"/>
      <point x="180" y="325"/>
      <point x="206" y="309"/>
      <point x="305" y="289" type="curve" smooth="yes"/>
      <point x="325" y="285"/>
      <point x="343" y="281"/>
      <point x="360" y="277" type="curve"/>
      <point x="400" y="295"/>
      <point x="422" y="317"/>
    </contour>
  </outline>
</glyph>
<glyph name="dieresis" format="1">
  <advance width="500"/>
  <unicode hex="00A8"/>
  <outline>
    <contour>
      <point x="411" y="811" type="curve" smooth="yes"/>
      <point x="411" y="778"/>
      <point x="383" y="750"/>
      <point x="350" y="750" type="curve" smooth="yes"/>
      <point x="317" y="750"/>
      <point x="289" y="778"/>
      <point x="289" y="811" type="curve" smooth="yes"/>
      <point x="289" y="844"/>
      <point x="317" y="872"/>
      <point x="350" y="872" type="curve" smooth="yes"/>
      <point x="383" y="872"/>
      <point x="411" y="844"/>
    </contour>
    <contour>
      <point x="211" y="811" type="curve" smooth="yes"/>
      <point x="211" y="778"/>
      <point x="183" y="750"/>
      <point x="150" y="750" type="curve" smooth="yes"/>
      <point x="117" y="750"/>
      <point x="89" y="778"/>
      <point x="89" y="811" type="curve" smooth="yes"/>
      <point x="89" y="844"/>
      <point x="117" y="872"/>
      <point x="150" y="872" type="curve" smooth="yes"/>
      <point x="183" y="872"/>
      <point x="211" y="844"/>
    </contour>
  </outline>
</glyph>
<glyph name="copyright" format="1">
  <advance width="818"/>
  <unicode hex="00A9"/>
  <outline>
    <contour>
      <point x="769" y="350" type="curve" smooth="yes"/>
      <point x="769" y="147"/>
      <point x="612" y="-10"/>
      <point x="409" y="-10" type="curve" smooth="yes"/>
      <point x="206" y="-10"/>
      <point x="49" y="147"/>
      <point x="49" y="350" type="curve" smooth="yes"/>
      <point x="49" y="553"/>
      <point x="206" y="710"/>
      <point x="409" y="710" type="curve" smooth="yes"/>
      <point x="612" y="710"/>
      <point x="769" y="553"/>
    </contour>
    <contour>
      <point x="736" y="350" type="curve" smooth="yes"/>
      <point x="736" y="535"/>
      <point x="596" y="681"/>
      <point x="409" y="681" type="curve" smooth="yes"/>
      <point x="222" y="681"/>
      <point x="82" y="535"/>
      <point x="82" y="350" type="curve" smooth="yes"/>
      <point x="82" y="165"/>
      <point x="222" y="19"/>
      <point x="409" y="19" type="curve" smooth="yes"/>
      <point x="596" y="19"/>
      <point x="736" y="165"/>
    </contour>
    <contour>
      <point x="571" y="264" type="line"/>
      <point x="569" y="248"/>
      <point x="566" y="199"/>
      <point x="566" y="183" type="curve"/>
      <point x="528" y="162"/>
      <point x="479" y="146"/>
      <point x="423" y="146" type="curve" smooth="yes"/>
      <point x="305" y="146"/>
      <point x="205" y="215"/>
      <point x="205" y="349" type="curve" smooth="yes"/>
      <point x="205" y="479"/>
      <point x="310" y="564"/>
      <point x="428" y="564" type="curve" smooth="yes"/>
      <point x="484" y="564"/>
      <point x="526" y="550"/>
      <point x="560" y="530" type="curve"/>
      <point x="560" y="515"/>
      <point x="563" y="465"/>
      <point x="565" y="450" type="curve"/>
      <point x="555" y="446" type="line"/>
      <point x="515" y="494"/>
      <point x="474" y="515"/>
      <point x="424" y="515" type="curve" smooth="yes"/>
      <point x="343" y="515"/>
      <point x="295" y="451"/>
      <point x="295" y="354" type="curve" smooth="yes"/>
      <point x="295" y="249"/>
      <point x="351" y="195"/>
      <point x="430" y="195" type="curve" smooth="yes"/>
      <point x="479" y="195"/>
      <point x="525" y="218"/>
      <point x="561" y="267" type="curve"/>
    </contour>
  </outline>
</glyph>
<glyph name="ordfeminine" format="1">
  <advance width="400"/>
  <unicode hex="00AA"/>
  <outline>
    <contour>
      <point x="347" y="450" type="curve"/>
      <point x="345" y="435" type="line"/>
      <point x="329" y="436"/>
      <point x="312" y="436"/>
      <point x="299" y="436" type="curve" smooth="yes"/>
      <point x="286" y="436"/>
      <point x="263" y="436"/>
      <point x="248" y="435" type="curve"/>
      <point x="244" y="449" type="line"/>
      <point x="252" y="453"/>
      <point x="256" y="456"/>
      <point x="256" y="462" type="curve" smooth="yes"/>
      <point x="256" y="466"/>
      <point x="254" y="475"/>
      <point x="251" y="483" type="curve" smooth="yes"/>
      <point x="237" y="517" type="line"/>
      <point x="150" y="517" type="line"/>
      <point x="136" y="487" type="line" smooth="yes"/>
      <point x="132" y="478"/>
      <point x="129" y="469"/>
      <point x="129" y="464" type="curve" smooth="yes"/>
      <point x="129" y="457"/>
      <point x="133" y="455"/>
      <point x="145" y="449" type="curve"/>
      <point x="141" y="435" type="line"/>
      <point x="125" y="435"/>
      <point x="100" y="436"/>
      <point x="88" y="436" type="curve" smooth="yes"/>
      <point x="77" y="436"/>
      <point x="69" y="436"/>
      <point x="56" y="434" type="curve"/>
      <point x="54" y="450" type="line"/>
      <point x="69" y="455"/>
      <point x="78" y="463"/>
      <point x="86" y="480" type="curve" smooth="yes"/>
      <point x="173" y="669" type="line" smooth="yes"/>
      <point x="179" y="683"/>
      <point x="182" y="693"/>
      <point x="182" y="706" type="curve"/>
      <point x="221" y="706" type="line"/>
      <point x="315" y="477" type="line" smooth="yes"/>
      <point x="321" y="462"/>
      <point x="328" y="455"/>
    </contour>
    <contour>
      <point x="347" y="327" type="line"/>
      <point x="52" y="327" type="line"/>
      <point x="52" y="375" type="line"/>
      <point x="347" y="375" type="line"/>
    </contour>
    <contour>
      <point x="224" y="554" type="line"/>
      <point x="197" y="625" type="line"/>
      <point x="166" y="554" type="line"/>
    </contour>
  </outline>
</glyph>
<glyph name="guillemotleft" format="1">
  <advance width="460"/>
  <unicode hex="00AB"/>
  <outline>
    <contour>
      <point x="406" y="193" type="curve"/>
      <point x="385" y="186" type="line"/>
      <point x="353" y="254"/>
      <point x="283" y="310"/>
      <point x="239" y="324" type="curve"/>
      <point x="239" y="386" type="line"/>
      <point x="283" y="400"/>
      <point x="353" y="456"/>
      <point x="385" y="524" type="curve"/>
      <point x="406" y="517" type="line"/>
      <point x="396" y="458"/>
      <point x="363" y="395"/>
      <point x="340" y="355" type="curve"/>
      <point x="363" y="315"/>
      <point x="396" y="252"/>
    </contour>
    <contour>
      <point x="216" y="193" type="curve"/>
      <point x="195" y="186" type="line"/>
      <point x="163" y="254"/>
      <point x="93" y="310"/>
      <point x="49" y="324" type="curve"/>
      <point x="49" y="386" type="line"/>
      <point x="93" y="400"/>
      <point x="163" y="456"/>
      <point x="195" y="524" type="curve"/>
      <point x="216" y="517" type="line"/>
      <point x="206" y="458"/>
      <point x="173" y="395"/>
      <point x="150" y="355" type="curve"/>
      <point x="173" y="315"/>
      <point x="206" y="252"/>
    </contour>
  </outline>
</glyph>
<glyph name="degree" format="1">
  <advance width="380"/>
  <unicode hex="00B0"/>
  <outline>
    <contour>
      <point x="334" y="563" type="curve" smooth="yes"/>
      <point x="334" y="484"/>
      <point x="269" y="419"/>
      <point x="190" y="419" type="curve" smooth="yes"/>
      <point x="111" y="419"/>
      <point x="46" y="484"/>
      <point x="46" y="563" type="curve" smooth="yes"/>
      <point x="46" y="642"/>
      <point x="111" y="707"/>
      <point x="190" y="707" type="curve" smooth="yes"/>
      <point x="269" y="707"/>
      <point x="334" y="642"/>
    </contour>
    <contour>
      <point x="277" y="563" type="curve" smooth="yes"/>
      <point x="277" y="617"/>
      <point x="241" y="658"/>
      <point x="190" y="658" type="curve" smooth="yes"/>
      <point x="139" y="658"/>
      <point x="103" y="617"/>
      <point x="103" y="563" type="curve" smooth="yes"/>
      <point x="103" y="509"/>
      <point x="139" y="468"/>
      <point x="190" y="468" type="curve" smooth="yes"/>
      <point x="241" y="468"/>
      <point x="277" y="509"/>
    </contour>
  </outline>
</glyph>
<glyph name="acute" format="1">
  <advance width="500"/>
  <unicode hex="00B4"/>
  <outline>
    <contour>
      <point x="381" y="843" type="line"/>
      <point x="200" y="742" type="line"/>
      <point x="188" y="753" type="line"/>
      <point x="209" y="784"/>
      <point x="213" y="820"/>
      <point x="213" y="848" type="curve"/>
      <point x="221" y="856" type="line"/>
      <point x="381" y="856" type="line"/>
    </contour>
  </outline>
</glyph>
<glyph name="periodcentered" format="1">
  <advance width="270"/>
  <unicode hex="00B7"/>
  <outline>
    <contour>
      <point x="211" y="375" type="curve" smooth="yes"/>
      <point x="211" y="333"/>
      <point x="177" y="299"/>
      <point x="135" y="299" type="curve" smooth="yes"/>
      <point x="93" y="299"/>
      <point x="59" y="333"/>
      <point x="59" y="375" type="curve" smooth="yes"/>
      <point x="59" y="417"/>
      <point x="93" y="451"/>
      <point x="135" y="451" type="curve" smooth="yes"/>
      <point x="177" y="451"/>
      <point x="211" y="417"/>
    </contour>
  </outline>
</glyph>
<glyph name="cedilla" format="1">
  <advance width="500"/>
  <unicode hex="00B8"/>
  <outline>
    <contour>
      <point x="299" y="-87" type="curve" smooth="yes"/>
      <point x="299" y="-137"/>
      <point x="255" y="-173"/>
      <point x="171" y="-188" type="curve"/>
      <point x="165" y="-165" type="line"/>
      <point x="209" y="-155"/>
      <point x="228" y="-139"/>
      <point x="228" y="-117" type="curve" smooth="yes"/>
      <point x="228" y="-95"/>
      <point x="214" y="-86"/>
      <point x="193" y="-79" type="curve"/>
      <point x="193" y="-65" type="line"/>
      <point x="280" y="19" type="line"/>
      <point x="297" y="4" type="line"/>
      <point x="268" y="-27" type="line"/>
      <point x="289" y="-42"/>
      <point x="299" y="-62"/>
    </contour>
  </outline>
</glyph>
<glyph name="ordmasculine" format="1">
  <advance width="380"/>
  <unicode hex="00BA"/>
  <outline>
    <contour>
      <point x="334" y="574" type="curve" smooth="yes"/>
      <point x="334" y="489"/>
      <point x="266" y="434"/>
      <point x="189" y="434" type="curve" smooth="yes"/>
      <point x="111" y="434"/>
      <point x="46" y="485"/>
      <point x="46" y="566" type="curve" smooth="yes"/>
      <point x="46" y="651"/>
      <point x="114" y="706"/>
      <point x="191" y="706" type="curve" smooth="yes"/>
      <point x="269" y="706"/>
      <point x="334" y="655"/>
    </contour>
    <contour>
      <point x="326" y="327" type="line"/>
      <point x="54" y="327" type="line"/>
      <point x="54" y="375" type="line"/>
      <point x="326" y="375" type="line"/>
    </contour>
    <contour>
      <point x="266" y="571" type="curve" smooth="yes"/>
      <point x="266" y="626"/>
      <point x="233" y="663"/>
      <point x="189" y="663" type="curve" smooth="yes"/>
      <point x="142" y="663"/>
      <point x="114" y="623"/>
      <point x="114" y="569" type="curve" smooth="yes"/>
      <point x="114" y="514"/>
      <point x="147" y="477"/>
      <point x="191" y="477" type="curve" smooth="yes"/>
      <point x="238" y="477"/>
      <point x="266" y="517"/>
    </contour>
  </outline>
</glyph>
<glyph name="guillemotright" format="1">
  <advance width="460"/>
  <unicode hex="00BB"/>
  <outline>
    <contour>
      <point x="411" y="324" type="line"/>
      <point x="367" y="310"/>
      <point x="297" y="254"/>
      <point x="265" y="186" type="curve"/>
      <point x="244" y="193" type="line"/>
      <point x="254" y="252"/>
      <point x="287" y="315"/>
      <point x="310" y="355" type="curve"/>
      <point x="287" y="395"/>
      <point x="254" y="458"/>
      <point x="244" y="517" type="curve"/>
      <point x="265" y="524" type="line"/>
      <point x="297" y="456"/>
      <point x="367" y="400"/>
      <point x="411" y="386" type="curve"/>
    </contour>
    <contour>
      <point x="221" y="324" type="line"/>
      <point x="177" y="310"/>
      <point x="107" y="254"/>
      <point x="75" y="186" type="curve"/>
      <point x="54" y="193" type="line"/>
      <point x="64" y="252"/>
      <point x="97" y="315"/>
      <point x="120" y="355" type="curve"/>
      <point x="97" y="395"/>
      <point x="64" y="458"/>
      <point x="54" y="517" type="curve"/>
      <point x="75" y="524" type="line"/>
      <point x="107" y="456"/>
      <point x="177" y="400"/>
      <point x="221" y="386" type="curve"/>
    </contour>
  </outline>
</glyph>
<glyph name="questiondown" format="1">
  <advance width="545"/>
  <unicode hex="00BF"/>
  <outline>
    <contour>
      <point x="380" y="629" type="curve" smooth="yes"/>
      <point x="380" y="587"/>
      <point x="346" y="553"/>
      <point x="304" y="553" type="curve" smooth="yes"/>
      <point x="262" y="553"/>
      <point x="228" y="587"/>
      <point x="228" y="629" type="curve" smooth="yes"/>
      <point x="228" y="671"/>
      <point x="262" y="705"/>
      <point x="304" y="705" type="curve" smooth="yes"/>
      <point x="346" y="705"/>
      <point x="380" y="671"/>
    </contour>
    <contour>
      <point x="498" y="175" type="line"/>
      <point x="494" y="149"/>
      <point x="490" y="82"/>
      <point x="490" y="55" type="curve"/>
      <point x="421" y="13"/>
      <point x="367" y="-6"/>
      <point x="278" y="-6" type="curve" smooth="yes"/>
      <point x="132" y="-6"/>
      <point x="42" y="54"/>
      <point x="42" y="165" type="curve" smooth="yes"/>
      <point x="42" y="251"/>
      <point x="95" y="292"/>
      <point x="185" y="343" type="curve" smooth="yes"/>
      <point x="273" y="393"/>
      <point x="289" y="418"/>
      <point x="286" y="495" type="curve"/>
      <point x="318" y="495" type="line"/>
      <point x="346" y="394"/>
      <point x="329" y="364"/>
      <point x="253" y="307" type="curve" smooth="yes"/>
      <point x="204" y="270"/>
      <point x="171" y="234"/>
      <point x="171" y="176" type="curve" smooth="yes"/>
      <point x="171" y="109"/>
      <point x="211" y="64"/>
      <point x="299" y="64" type="curve" smooth="yes"/>
      <point x="376" y="64"/>
      <point x="437" y="106"/>
      <point x="486" y="180" type="curve"/>
    </contour>
  </outline>
</glyph>
<glyph name="Aring" format="1">
  <advance width="774"/>
  <unicode hex="00C5"/>
  <outline>
    <contour>
      <point x="772" y="9" type="curve"/>
      <point x="770" y="-1" type="line"/>
      <point x="741" y="2"/>
      <point x="696" y="1"/>
      <point x="659" y="1" type="curve" smooth="yes"/>
      <point x="625" y="1"/>
      <point x="572" y="1"/>
      <point x="540" y="-1" type="curve"/>
      <point x="537" y="9" type="line"/>
      <point x="555" y="17"/>
      <point x="569" y="35"/>
      <point x="569" y="51" type="curve" smooth="yes"/>
      <point x="569" y="69"/>
      <point x="564" y="88"/>
      <point x="551" y="118" type="curve" smooth="yes"/>
      <point x="478" y="282" type="line"/>
      <point x="254" y="282" type="line"/>
      <point x="181" y="131" type="line" smooth="yes"/>
      <point x="166" y="100"/>
      <point x="160" y="80"/>
      <point x="160" y="59" type="curve" smooth="yes"/>
      <point x="160" y="32"/>
      <point x="173" y="23"/>
      <point x="199" y="9" type="curve"/>
      <point x="196" y="-1" type="line"/>
      <point x="162" y="0"/>
      <point x="109" y="1"/>
      <point x="75" y="1" type="curve" smooth="yes"/>
      <point x="45" y="1"/>
      <point x="28" y="1"/>
      <point x="-1" y="-1" type="curve"/>
      <point x="-3" y="11" type="line"/>
      <point x="32" y="23"/>
      <point x="57" y="46"/>
      <point x="83" y="98" type="curve" smooth="yes"/>
      <point x="347" y="625" type="line" smooth="yes"/>
      <point x="356" y="643"/>
      <point x="363" y="659"/>
      <point x="368" y="673" type="curve"/>
      <point x="334" y="686"/>
      <point x="310" y="719"/>
      <point x="310" y="757" type="curve" smooth="yes"/>
      <point x="310" y="806"/>
      <point x="351" y="847"/>
      <point x="400" y="847" type="curve" smooth="yes"/>
      <point x="449" y="847"/>
      <point x="490" y="806"/>
      <point x="490" y="757" type="curve" smooth="yes"/>
      <point x="490" y="718"/>
      <point x="465" y="685"/>
      <point x="430" y="672" type="curve"/>
      <point x="688" y="92" type="line" smooth="yes"/>
      <point x="707" y="49"/>
      <point x="731" y="23"/>
    </contour>
    <contour>
      <point x="451" y="757" type="curve" smooth="yes"/>
      <point x="451" y="786"/>
      <point x="429" y="813"/>
      <point x="400" y="813" type="curve" smooth="yes"/>
      <point x="371" y="813"/>
      <point x="349" y="786"/>
      <point x="349" y="757" type="curve" smooth="yes"/>
      <point x="349" y="728"/>
      <point x="371" y="701"/>
      <point x="400" y="701" type="curve" smooth="yes"/>
      <point x="429" y="701"/>
      <point x="451" y="728"/>
    </contour>
    <contour>
      <point x="448" y="350" type="line"/>
      <point x="371" y="525" type="line"/>
      <point x="287" y="350" type="line"/>
    </contour>
  </outline>
</glyph>
<glyph name="Eth" format="1">
  <advance width="811"/>
  <unicode hex="00D0"/>
  <outline>
    <contour>
      <point x="763" y="357" type="curve" smooth="yes"/>
      <point x="763" y="131"/>
      <point x="591" y="-2"/>
      <point x="355" y="-2" type="curve" smooth="yes"/>
      <point x="295" y="-2"/>
      <point x="219" y="0"/>
      <point x="181" y="0" type="curve" smooth="yes"/>
      <point x="146" y="0"/>
      <point x="125" y="-1"/>
      <point x="77" y="-3" type="curve"/>
      <point x="73" y="6" type="line"/>
      <point x="93" y="19"/>
      <point x="105" y="37"/>
      <point x="105" y="73" type="curve" smooth="yes"/>
      <point x="105" y="342" type="line"/>
      <point x="41" y="342" type="line"/>
      <point x="41" y="411" type="line"/>
      <point x="105" y="411" type="line"/>
      <point x="105" y="631" type="line" smooth="yes"/>
      <point x="105" y="663"/>
      <point x="95" y="682"/>
      <point x="72" y="693" type="curve"/>
      <point x="76" y="703" type="line"/>
      <point x="118" y="701"/>
      <point x="141" y="700"/>
      <point x="165" y="700" type="curve" smooth="yes"/>
      <point x="229" y="700"/>
      <point x="309" y="702"/>
      <point x="359" y="702" type="curve" smooth="yes"/>
      <point x="589" y="702"/>
      <point x="763" y="569"/>
    </contour>
    <contour>
      <point x="634" y="355" type="curve" smooth="yes"/>
      <point x="634" y="539"/>
      <point x="508" y="632"/>
      <point x="332" y="632" type="curve" smooth="yes"/>
      <point x="289" y="632"/>
      <point x="271" y="632"/>
      <point x="224" y="630" type="curve"/>
      <point x="224" y="411" type="line"/>
      <point x="409" y="411" type="line"/>
      <point x="409" y="342" type="line"/>
      <point x="224" y="342" type="line"/>
      <point x="224" y="72" type="line"/>
      <point x="270" y="69"/>
      <point x="305" y="68"/>
      <point x="347" y="68" type="curve" smooth="yes"/>
      <point x="523" y="68"/>
      <point x="634" y="158"/>
    </contour>
  </outline>
</glyph>
<glyph name="Odieresis" format="1">
  <advance width="864"/>
  <unicode hex="00D6"/>
  <outline>
    <contour>
      <point x="858" y="648" type="curve" smooth="yes"/>
      <point x="858" y="615"/>
      <point x="830" y="587"/>
      <point x="797" y="587" type="curve" smooth="yes"/>
      <point x="764" y="587"/>
      <point x="736" y="615"/>
      <point x="736" y="648" type="curve" smooth="yes"/>
      <point x="736" y="681"/>
      <point x="764" y="709"/>
      <point x="797" y="709" type="curve" smooth="yes"/>
      <point x="830" y="709"/>
      <point x="858" y="681"/>
    </contour>
    <contour>
      <point x="138" y="648" type="curve" smooth="yes"/>
      <point x="138" y="615"/>
      <point x="110" y="587"/>
      <point x="77" y="587" type="curve" smooth="yes"/>
      <point x="44" y="587"/>
      <point x="16" y="615"/>
      <point x="16" y="648" type="curve" smooth="yes"/>
      <point x="16" y="681"/>
      <point x="44" y="709"/>
      <point x="77" y="709" type="curve" smooth="yes"/>
      <point x="110" y="709"/>
      <point x="138" y="681"/>
    </contour>
    <contour>
      <point x="816" y="361" type="curve" smooth="yes"/>
      <point x="816" y="137"/>
      <point x="636" y="-10"/>
      <point x="429" y="-10" type="curve" smooth="yes"/>
      <point x="221" y="-10"/>
      <point x="48" y="126"/>
      <point x="48" y="339" type="curve" smooth="yes"/>
      <point x="48" y="563"/>
      <point x="228" y="710"/>
      <point x="435" y="710" type="curve" smooth="yes"/>
      <point x="643" y="710"/>
      <point x="816" y="574"/>
    </contour>
    <contour>
      <point x="687" y="353" type="curve" smooth="yes"/>
      <point x="687" y="525"/>
      <point x="575" y="640"/>
      <point x="428" y="640" type="curve" smooth="yes"/>
      <point x="275" y="640"/>
      <point x="177" y="516"/>
      <point x="177" y="347" type="curve" smooth="yes"/>
      <point x="177" y="175"/>
      <point x="289" y="60"/>
      <point x="436" y="60" type="curve" smooth="yes"/>
      <point x="589" y="60"/>
      <point x="687" y="184"/>
    </contour>
  </outline>
</glyph>
<glyph name="Udieresis" format="1">
  <advance width="728"/>
  <unicode hex="00DC"/>
  <outline>
    <contour>
      <point x="510" y="646" type="curve" smooth="yes"/>
      <point x="510" y="615"/>
      <point x="483" y="588"/>
      <point x="452" y="588" type="curve" smooth="yes"/>
      <point x="421" y="588"/>
      <point x="394" y="615"/>
      <point x="394" y="646" type="curve" smooth="yes"/>
      <point x="394" y="677"/>
      <point x="421" y="704"/>
      <point x="452" y="704" type="curve" smooth="yes"/>
      <point x="483" y="704"/>
      <point x="510" y="677"/>
    </contour>
    <contour>
      <point x="368" y="646" type="curve" smooth="yes"/>
      <point x="368" y="615"/>
      <point x="341" y="588"/>
      <point x="310" y="588" type="curve" smooth="yes"/>
      <point x="279" y="588"/>
      <point x="252" y="615"/>
      <point x="252" y="646" type="curve" smooth="yes"/>
      <point x="252" y="677"/>
      <point x="279" y="704"/>
      <point x="310" y="704" type="curve" smooth="yes"/>
      <point x="341" y="704"/>
      <point x="368" y="677"/>
    </contour>
    <component base="U"/>
  </outline>
</glyph>
<glyph name="Thorn" format="1">
  <advance width="668"/>
  <unicode hex="00DE"/>
  <outline>
    <contour>
      <point x="639" y="389" type="curve" smooth="yes"/>
      <point x="639" y="242"/>
      <point x="478" y="185"/>
      <point x="313" y="185" type="curve" smooth="yes"/>
      <point x="289" y="185"/>
      <point x="249" y="185"/>
      <point x="212" y="185" type="curve"/>
      <point x="212" y="81" type="line" smooth="yes"/>
      <point x="212" y="38"/>
      <point x="223" y="21"/>
      <point x="250" y="11" type="curve"/>
      <point x="246" y="-1" type="line"/>
      <point x="219" y="1"/>
      <point x="160" y="1"/>
      <point x="133" y="1" type="curve" smooth="yes"/>
      <point x="110" y="1"/>
      <point x="86" y="2"/>
      <point x="63" y="-1" type="curve"/>
      <point x="58" y="9" type="line"/>
      <point x="79" y="19"/>
      <point x="90" y="40"/>
      <point x="90" y="70" type="curve" smooth="yes"/>
      <point x="90" y="630" type="line" smooth="yes"/>
      <point x="90" y="672"/>
      <point x="82" y="685"/>
      <point x="60" y="693" type="curve"/>
      <point x="63" y="701" type="line"/>
      <point x="80" y="699"/>
      <point x="127" y="699"/>
      <point x="150" y="699" type="curve" smooth="yes"/>
      <point x="177" y="699"/>
      <point x="220" y="699"/>
      <point x="243" y="701" type="curve"/>
      <point x="245" y="692" type="line"/>
      <point x="223" y="681"/>
      <point x="212" y="665"/>
      <point x="212" y="634" type="curve" smooth="yes"/>
      <point x="212" y="561" type="line"/>
      <point x="237" y="561"/>
      <point x="255" y="561"/>
      <point x="275" y="561" type="curve" smooth="yes"/>
      <point x="306" y="561"/>
      <point x="343" y="562"/>
      <point x="399" y="562" type="curve" smooth="yes"/>
      <point x="545" y="562"/>
      <point x="639" y="510"/>
    </contour>
    <contour>
      <point x="511" y="382" type="curve" smooth="yes"/>
      <point x="511" y="456"/>
      <point x="464" y="492"/>
      <point x="377" y="492" type="curve" smooth="yes"/>
      <point x="315" y="492"/>
      <point x="258" y="492"/>
      <point x="212" y="490" type="curve"/>
      <point x="212" y="255" type="line"/>
      <point x="249" y="255"/>
      <point x="290" y="255"/>
      <point x="318" y="255" type="curve" smooth="yes"/>
      <point x="427" y="255"/>
      <point x="511" y="289"/>
    </contour>
  </outline>
</glyph>
<glyph name="germandbls" format="1">
  <advance width="1255"/>
  <unicode hex="00DF"/>
  <outline>
    <contour>
      <point x="1207" y="222" type="curve" smooth="yes"/>
      <point x="1207" y="81"/>
      <point x="1075" y="-6"/>
      <point x="908" y="-6" type="curve" smooth="yes"/>
      <point x="805" y="-6"/>
      <point x="736" y="12"/>
      <point x="666" y="43" type="curve"/>
      <point x="660" y="186" type="line"/>
      <point x="676" y="189" type="line"/>
      <point x="719" y="111"/>
      <point x="797" y="64"/>
      <point x="924" y="64" type="curve" smooth="yes"/>
      <point x="1034" y="64"/>
      <point x="1096" y="106"/>
      <point x="1096" y="183" type="curve" smooth="yes"/>
      <point x="1096" y="253"/>
      <point x="1057" y="287"/>
      <point x="922" y="318" type="curve" smooth="yes"/>
      <point x="747" y="358"/>
      <point x="694" y="410"/>
      <point x="694" y="515" type="curve" smooth="yes"/>
      <point x="694" y="620"/>
      <point x="790" y="705"/>
      <point x="948" y="705" type="curve" smooth="yes"/>
      <point x="1035" y="705"/>
      <point x="1101" y="693"/>
      <point x="1162" y="671" type="curve"/>
      <point x="1152" y="561" type="line"/>
      <point x="1137" y="559" type="line"/>
      <point x="1098" y="604"/>
      <point x="1034" y="635"/>
      <point x="927" y="635" type="curve" smooth="yes"/>
      <point x="838" y="635"/>
      <point x="805" y="593"/>
      <point x="805" y="552" type="curve" smooth="yes"/>
      <point x="805" y="502"/>
      <point x="826" y="471"/>
      <point x="977" y="436" type="curve" smooth="yes"/>
      <point x="1149" y="396"/>
      <point x="1207" y="333"/>
    </contour>
    <contour>
      <point x="587" y="222" type="curve" smooth="yes"/>
      <point x="587" y="81"/>
      <point x="455" y="-6"/>
      <point x="288" y="-6" type="curve" smooth="yes"/>
      <point x="185" y="-6"/>
      <point x="116" y="12"/>
      <point x="46" y="43" type="curve"/>
      <point x="40" y="186" type="line"/>
      <point x="56" y="189" type="line"/>
      <point x="99" y="111"/>
      <point x="177" y="64"/>
      <point x="304" y="64" type="curve" smooth="yes"/>
      <point x="414" y="64"/>
      <point x="476" y="106"/>
      <point x="476" y="183" type="curve" smooth="yes"/>
      <point x="476" y="253"/>
      <point x="437" y="287"/>
      <point x="302" y="318" type="curve" smooth="yes"/>
      <point x="127" y="358"/>
      <point x="74" y="410"/>
      <point x="74" y="515" type="curve" smooth="yes"/>
      <point x="74" y="620"/>
      <point x="170" y="705"/>
      <point x="328" y="705" type="curve" smooth="yes"/>
      <point x="415" y="705"/>
      <point x="481" y="693"/>
      <point x="542" y="671" type="curve"/>
      <point x="532" y="561" type="line"/>
      <point x="517" y="559" type="line"/>
      <point x="478" y="604"/>
      <point x="414" y="635"/>
      <point x="307" y="635" type="curve" smooth="yes"/>
      <point x="218" y="635"/>
      <point x="185" y="593"/>
      <point x="185" y="552" type="curve" smooth="yes"/>
      <point x="185" y="502"/>
      <point x="206" y="471"/>
      <point x="357" y="436" type="curve" smooth="yes"/>
      <point x="529" y="396"/>
      <point x="587" y="333"/>
    </contour>
  </outline>
</glyph>
<glyph name="ae" format="1">
  <advance width="979"/>
  <unicode hex="00E6"/>
  <outline>
    <contour>
      <point x="978" y="126" type="line"/>
      <point x="953" y="95"/>
      <point x="918" y="27"/>
      <point x="906" y="-1" type="curve"/>
      <point x="823" y="1"/>
      <point x="785" y="1"/>
      <point x="702" y="1" type="curve" smooth="yes"/>
      <point x="601" y="1"/>
      <point x="553" y="1"/>
      <point x="453" y="-2" type="curve"/>
      <point x="449" y="6" type="line"/>
      <point x="472" y="20"/>
      <point x="481" y="41"/>
      <point x="481" y="78" type="curve" smooth="yes"/>
      <point x="481" y="335" type="line"/>
      <point x="314" y="335" type="line"/>
      <point x="204" y="139" type="line" smooth="yes"/>
      <point x="182" y="99"/>
      <point x="172" y="74"/>
      <point x="172" y="54" type="curve" smooth="yes"/>
      <point x="172" y="33"/>
      <point x="182" y="23"/>
      <point x="207" y="9" type="curve"/>
      <point x="204" y="-1" type="line"/>
      <point x="170" y="0"/>
      <point x="127" y="1"/>
      <point x="93" y="1" type="curve" smooth="yes"/>
      <point x="63" y="1"/>
      <point x="31" y="1"/>
      <point x="2" y="-1" type="curve"/>
      <point x="0" y="11" type="line"/>
      <point x="36" y="23"/>
      <point x="66" y="49"/>
      <point x="94" y="98" type="curve" smooth="yes"/>
      <point x="383" y="606" type="line" smooth="yes"/>
      <point x="393" y="624"/>
      <point x="398" y="638"/>
      <point x="398" y="651" type="curve" smooth="yes"/>
      <point x="398" y="673"/>
      <point x="384" y="685"/>
      <point x="367" y="693" type="curve"/>
      <point x="370" y="703" type="line"/>
      <point x="468" y="698"/>
      <point x="584" y="699"/>
      <point x="683" y="699" type="curve" smooth="yes"/>
      <point x="773" y="699"/>
      <point x="838" y="699"/>
      <point x="928" y="704" type="curve"/>
      <point x="918" y="687"/>
      <point x="892" y="632"/>
      <point x="885" y="611" type="curve"/>
      <point x="874" y="623"/>
      <point x="852" y="628"/>
      <point x="787" y="628" type="curve" smooth="yes"/>
      <point x="600" y="628" type="line"/>
      <point x="600" y="406" type="line"/>
      <point x="658" y="406" type="line" smooth="yes"/>
      <point x="731" y="406"/>
      <point x="772" y="408"/>
      <point x="795" y="421" type="curve"/>
      <point x="801" y="416" type="line"/>
      <point x="790" y="403"/>
      <point x="764" y="344"/>
      <point x="757" y="323" type="curve"/>
      <point x="739" y="333"/>
      <point x="701" y="335"/>
      <point x="647" y="335" type="curve" smooth="yes"/>
      <point x="600" y="335" type="line"/>
      <point x="600" y="72" type="line"/>
      <point x="761" y="72" type="line" smooth="yes"/>
      <point x="891" y="72"/>
      <point x="930" y="94"/>
      <point x="969" y="133" type="curve"/>
    </contour>
    <contour>
      <point x="481" y="405" type="line"/>
      <point x="481" y="635" type="line"/>
      <point x="352" y="405" type="line"/>
    </contour>
  </outline>
</glyph>
<glyph name="ccedilla" format="1">
  <advance width="703"/>
  <unicode hex="00E7"/>
  <outline>
    <contour>
      <point x="649" y="175" type="line"/>
      <point x="645" y="149"/>
      <point x="641" y="82"/>
      <point x="641" y="55" type="curve"/>
      <point x="584" y="22"/>
      <point x="512" y="-1"/>
      <point x="431" y="-5" type="curve"/>
      <point x="411" y="-27" type="line"/>
      <point x="432" y="-42"/>
      <point x="442" y="-62"/>
      <point x="442" y="-87" type="curve" smooth="yes"/>
      <point x="442" y="-137"/>
      <point x="398" y="-173"/>
      <point x="314" y="-188" type="curve"/>
      <point x="308" y="-165" type="line"/>
      <point x="352" y="-155"/>
      <point x="371" y="-139"/>
      <point x="371" y="-117" type="curve" smooth="yes"/>
      <point x="371" y="-95"/>
      <point x="357" y="-86"/>
      <point x="336" y="-79" type="curve"/>
      <point x="336" y="-65" type="line"/>
      <point x="397" y="-6" type="line"/>
      <point x="208" y="-2"/>
      <point x="48" y="116"/>
      <point x="48" y="340" type="curve" smooth="yes"/>
      <point x="48" y="560"/>
      <point x="221" y="706"/>
      <point x="414" y="706" type="curve" smooth="yes"/>
      <point x="505" y="706"/>
      <point x="575" y="683"/>
      <point x="631" y="649" type="curve"/>
      <point x="631" y="622"/>
      <point x="635" y="555"/>
      <point x="639" y="529" type="curve"/>
      <point x="627" y="524" type="line"/>
      <point x="573" y="597"/>
      <point x="490" y="636"/>
      <point x="407" y="636" type="curve" smooth="yes"/>
      <point x="269" y="636"/>
      <point x="177" y="519"/>
      <point x="177" y="349" type="curve" smooth="yes"/>
      <point x="177" y="164"/>
      <point x="282" y="64"/>
      <point x="418" y="64" type="curve" smooth="yes"/>
      <point x="500" y="64"/>
      <point x="579" y="96"/>
      <point x="637" y="180" type="curve"/>
    </contour>
  </outline>
</glyph>
<glyph name="oslash" format="1">
  <advance width="864"/>
  <unicode hex="00F8"/>
  <outline>
    <contour>
      <point x="816" y="361" type="curve" smooth="yes"/>
      <point x="816" y="137"/>
      <point x="636" y="-10"/>
      <point x="429" y="-10" type="curve" smooth="yes"/>
      <point x="342" y="-10"/>
      <point x="260" y="14"/>
      <point x="195" y="58" type="curve"/>
      <point x="135" y="-5" type="line"/>
      <point x="48" y="-5" type="line"/>
      <point x="146" y="98" type="line"/>
      <point x="85" y="158"/>
      <point x="48" y="240"/>
      <point x="48" y="339" type="curve" smooth="yes"/>
      <point x="48" y="563"/>
      <point x="228" y="710"/>
      <point x="435" y="710" type="curve" smooth="yes"/>
      <point x="522" y="710"/>
      <point x="604" y="686"/>
      <point x="669" y="642" type="curve"/>
      <point x="729" y="705" type="line"/>
      <point x="816" y="705" type="line"/>
      <point x="718" y="602" type="line"/>
      <point x="779" y="542"/>
      <point x="816" y="460"/>
    </contour>
    <contour>
      <point x="602" y="573" type="line"/>
      <point x="557" y="616"/>
      <point x="496" y="640"/>
      <point x="428" y="640" type="curve" smooth="yes"/>
      <point x="274" y="640"/>
      <point x="175" y="517"/>
      <point x="175" y="347" type="curve" smooth="yes"/>
      <point x="175" y="280"/>
      <point x="192" y="222"/>
      <point x="221" y="176" type="curve"/>
    </contour>
    <contour>
      <point x="689" y="353" type="curve" smooth="yes"/>
      <point x="689" y="420"/>
      <point x="672" y="478"/>
      <point x="643" y="524" type="curve"/>
      <point x="261" y="127" type="line"/>
      <point x="307" y="84"/>
      <point x="368" y="60"/>
      <point x="436" y="60" type="curve" smooth="yes"/>
      <point x="590" y="60"/>
      <point x="689" y="183"/>
    </contour>
  </outline>
</glyph>
<glyph name="dotlessi" format="1">
  <advance width="320"/>
  <unicode hex="0131"/>
  <outline>
    <contour>
      <point x="263" y="9" type="curve"/>
      <point x="260" y="-1" type="line"/>
      <point x="235" y="1"/>
      <point x="186" y="1"/>
      <point x="161" y="1" type="curve" smooth="yes"/>
      <point x="132" y="1"/>
      <point x="84" y="1"/>
      <point x="58" y="-1" type="curve"/>
      <point x="56" y="9" type="line"/>
      <point x="85" y="22"/>
      <point x="99" y="36"/>
      <point x="99" y="71" type="curve" smooth="yes"/>
      <point x="99" y="625" type="line" smooth="yes"/>
      <point x="99" y="664"/>
      <point x="87" y="681"/>
      <point x="61" y="691" type="curve"/>
      <point x="65" y="701" type="line"/>
      <point x="90" y="699"/>
      <point x="134" y="699"/>
      <point x="159" y="699" type="curve" smooth="yes"/>
      <point x="184" y="699"/>
      <point x="235" y="699"/>
      <point x="258" y="701" type="curve"/>
      <point x="262" y="692" type="line"/>
      <point x="237" y="682"/>
      <point x="221" y="664"/>
      <point x="221" y="632" type="curve" smooth="yes"/>
      <point x="221" y="72" type="line" smooth="yes"/>
      <point x="221" y="37"/>
      <point x="236" y="22"/>
    </contour>
  </outline>
</glyph>
<glyph name="lslash" format="1">
  <advance width="605"/>
  <unicode hex="0142"/>
  <outline>
    <contour>
      <point x="609" y="130" type="line"/>
      <point x="581" y="96"/>
      <point x="545" y="24"/>
      <point x="533" y="-1" type="curve"/>
      <point x="431" y="0"/>
      <point x="383" y="0"/>
      <point x="281" y="0" type="curve" smooth="yes"/>
      <point x="201" y="0"/>
      <point x="152" y="0"/>
      <point x="76" y="-1" type="curve"/>
      <point x="74" y="6" type="line"/>
      <point x="91" y="17"/>
      <point x="105" y="43"/>
      <point x="105" y="72" type="curve" smooth="yes"/>
      <point x="105" y="304" type="line"/>
      <point x="42" y="281" type="line"/>
      <point x="42" y="351" type="line"/>
      <point x="105" y="374" type="line"/>
      <point x="105" y="627" type="line" smooth="yes"/>
      <point x="105" y="666"/>
      <point x="97" y="681"/>
      <point x="71" y="690" type="curve"/>
      <point x="76" y="701" type="line"/>
      <point x="94" y="699"/>
      <point x="131" y="699"/>
      <point x="156" y="699" type="curve" smooth="yes"/>
      <point x="181" y="699"/>
      <point x="236" y="699"/>
      <point x="254" y="701" type="curve"/>
      <point x="257" y="690" type="line"/>
      <point x="233" y="679"/>
      <point x="224" y="662"/>
      <point x="224" y="633" type="curve" smooth="yes"/>
      <point x="224" y="417" type="line"/>
      <point x="380" y="473" type="line"/>
      <point x="380" y="403" type="line"/>
      <point x="224" y="347" type="line"/>
      <point x="224" y="74" type="line"/>
      <point x="427" y="74" type="line" smooth="yes"/>
      <point x="525" y="74"/>
      <point x="553" y="93"/>
      <point x="599" y="138" type="curve"/>
    </contour>
  </outline>
</glyph>
<glyph name="oe" format="1">
  <advance width="914"/>
  <unicode hex="0153"/>
  <outline>
    <contour>
      <point x="913" y="121" type="line"/>
      <point x="888" y="90"/>
      <point x="853" y="27"/>
      <point x="841" y="-1" type="curve"/>
      <point x="758" y="1"/>
      <point x="720" y="1"/>
      <point x="637" y="1" type="curve" smooth="yes"/>
      <point x="552" y="1"/>
      <point x="500" y="-3"/>
      <point x="429" y="-3" type="curve" smooth="yes"/>
      <point x="221" y="-3"/>
      <point x="48" y="126"/>
      <point x="48" y="339" type="curve" smooth="yes"/>
      <point x="48" y="563"/>
      <point x="228" y="703"/>
      <point x="435" y="703" type="curve" smooth="yes"/>
      <point x="504" y="703"/>
      <point x="552" y="699"/>
      <point x="628" y="699" type="curve" smooth="yes"/>
      <point x="711" y="699"/>
      <point x="773" y="699"/>
      <point x="863" y="704" type="curve"/>
      <point x="853" y="687"/>
      <point x="827" y="637"/>
      <point x="820" y="616" type="curve"/>
      <point x="809" y="628"/>
      <point x="787" y="633"/>
      <point x="722" y="633" type="curve" smooth="yes"/>
      <point x="662" y="633" type="line"/>
      <point x="753" y="574"/>
      <point x="813" y="481"/>
      <point x="813" y="361" type="curve" smooth="yes"/>
      <point x="813" y="231"/>
      <point x="749" y="130"/>
      <point x="653" y="67" type="curve"/>
      <point x="696" y="67" type="line" smooth="yes"/>
      <point x="826" y="67"/>
      <point x="865" y="89"/>
      <point x="904" y="128" type="curve"/>
    </contour>
    <contour>
      <point x="687" y="430" type="line"/>
      <point x="665" y="542"/>
      <point x="596" y="613"/>
      <point x="493" y="634" type="curve"/>
      <point x="493" y="430" type="line"/>
    </contour>
    <contour>
      <point x="376" y="67" type="curve"/>
      <point x="376" y="635" type="line"/>
      <point x="253" y="610"/>
      <point x="177" y="496"/>
      <point x="177" y="347" type="curve" smooth="yes"/>
      <point x="177" y="199"/>
      <point x="260" y="94"/>
    </contour>
    <contour>
      <point x="694" y="353" type="curve" smooth="yes"/>
      <point x="694" y="357"/>
      <point x="694" y="361"/>
      <point x="694" y="365" type="curve"/>
      <point x="493" y="365" type="line"/>
      <point x="493" y="65" type="line"/>
      <point x="623" y="90"/>
      <point x="694" y="200"/>
    </contour>
  </outline>
</glyph>
<glyph name="Ydieresis" format="1">
  <advance width="704"/>
  <unicode hex="0178"/>
  <outline>
    <contour>
      <point x="509" y="646" type="curve" smooth="yes"/>
      <point x="509" y="615"/>
      <point x="482" y="588"/>
      <point x="451" y="588" type="curve" smooth="yes"/>
      <point x="420" y="588"/>
      <point x="393" y="615"/>
      <point x="393" y="646" type="curve" smooth="yes"/>
      <point x="393" y="677"/>
      <point x="420" y="704"/>
      <point x="451" y="704" type="curve" smooth="yes"/>
      <point x="482" y="704"/>
      <point x="509" y="677"/>
    </contour>
    <contour>
      <point x="363" y="646" type="curve" smooth="yes"/>
      <point x="363" y="615"/>
      <point x="336" y="588"/>
      <point x="305" y="588" type="curve" smooth="yes"/>
      <point x="274" y="588"/>
      <point x="247" y="615"/>
      <point x="247" y="646" type="curve" smooth="yes"/>
      <point x="247" y="677"/>
      <point x="274" y="704"/>
      <point x="305" y="704" type="curve" smooth="yes"/>
      <point x="336" y="704"/>
      <point x="363" y="677"/>
    </contour>
    <component base="Y"/>
  </outline>
</glyph>
<glyph name="florin" format="1">
  <advance width="495"/>
  <unicode hex="0192"/>
  <outline>
    <contour>
      <point x="483" y="565" type="curve"/>
      <point x="470" y="561" type="line"/>
      <point x="439" y="615"/>
      <point x="405" y="640"/>
      <point x="367" y="640" type="curve" smooth="yes"/>
      <point x="329" y="640"/>
      <point x="303" y="617"/>
      <point x="294" y="568" type="curve" smooth="yes"/>
      <point x="266" y="409" type="line"/>
      <point x="383" y="409" type="line"/>
      <point x="383" y="348" type="line"/>
      <point x="255" y="348" type="line"/>
      <point x="210" y="93" type="line" smooth="yes"/>
      <point x="183" y="-59"/>
      <point x="139" y="-106"/>
      <point x="29" y="-165" type="curve"/>
      <point x="9" y="-146"/>
      <point x="-53" y="-105"/>
      <point x="-78" y="-87" type="curve"/>
      <point x="-71" y="-74" type="line"/>
      <point x="-47" y="-88"/>
      <point x="-26" y="-94"/>
      <point x="-4" y="-94" type="curve" smooth="yes"/>
      <point x="44" y="-94"/>
      <point x="66" y="-60"/>
      <point x="79" y="11" type="curve" smooth="yes"/>
      <point x="139" y="348" type="line"/>
      <point x="64" y="348" type="line"/>
      <point x="64" y="409" type="line"/>
      <point x="150" y="409" type="line"/>
      <point x="170" y="523" type="line" smooth="yes"/>
      <point x="193" y="655"/>
      <point x="262" y="706"/>
      <point x="358" y="706" type="curve" smooth="yes"/>
      <point x="407" y="706"/>
      <point x="438" y="697"/>
      <point x="470" y="681" type="curve"/>
      <point x="470" y="654"/>
      <point x="479" y="590"/>
    </contour>
  </outline>
</glyph>
<glyph name="circumflex" format="1">
  <advance width="500"/>
  <unicode hex="02C6"/>
  <outline>
    <contour>
      <point x="362" y="755" type="curve"/>
      <point x="350" y="742" type="line"/>
      <point x="250" y="780" type="line"/>
      <point x="150" y="742" type="line"/>
      <point x="138" y="755" type="line"/>
      <point x="169" y="786"/>
      <point x="197" y="828"/>
      <point x="207" y="856" type="curve"/>
      <point x="293" y="856" type="line"/>
      <point x="303" y="828"/>
      <point x="331" y="786"/>
    </contour>
  </outline>
</glyph>
<glyph name="caron" format="1">
  <advance width="500"/>
  <unicode hex="02C7"/>
  <outline>
    <contour>
      <point x="362" y="847" type="line"/>
      <point x="331" y="816"/>
      <point x="303" y="774"/>
      <point x="293" y="746" type="curve"/>
      <point x="207" y="746" type="line"/>
      <point x="197" y="774"/>
      <point x="169" y="816"/>
      <point x="138" y="847" type="curve"/>
      <point x="150" y="860" type="line"/>
      <point x="250" y="822" type="line"/>
      <point x="350" y="860" type="line"/>
    </contour>
  </outline>
</glyph>
<glyph name="breve" format="1">
  <advance width="500"/>
  <unicode hex="02D8"/>
  <outline>
    <contour>
      <point x="360" y="864" type="line"/>
      <point x="347" y="795"/>
      <point x="309" y="746"/>
      <point x="250" y="746" type="curve" smooth="yes"/>
      <point x="191" y="746"/>
      <point x="153" y="795"/>
      <point x="140" y="864" type="curve"/>
      <point x="159" y="871" type="line"/>
      <point x="183" y="832"/>
      <point x="211" y="821"/>
      <point x="250" y="821" type="curve" smooth="yes"/>
      <point x="289" y="821"/>
      <point x="317" y="832"/>
      <point x="341" y="871" type="curve"/>
    </contour>
  </outline>
</glyph>
<glyph name="dotaccent" format="1">
  <advance width="500"/>
  <unicode hex="02D9"/>
  <outline>
    <contour>
      <point x="313" y="813" type="curve" smooth="yes"/>
      <point x="313" y="779"/>
      <point x="284" y="750"/>
      <point x="250" y="750" type="curve" smooth="yes"/>
      <point x="216" y="750"/>
      <point x="187" y="779"/>
      <point x="187" y="813" type="curve" smooth="yes"/>
      <point x="187" y="847"/>
      <point x="216" y="876"/>
      <point x="250" y="876" type="curve" smooth="yes"/>
      <point x="284" y="876"/>
      <point x="313" y="847"/>
    </contour>
  </outline>
</glyph>
<glyph name="ring" format="1">
  <advance width="500"/>
  <unicode hex="02DA"/>
  <outline>
    <contour>
      <point x="340" y="840" type="curve" smooth="yes"/>
      <point x="340" y="791"/>
      <point x="299" y="750"/>
      <point x="250" y="750" type="curve" smooth="yes"/>
      <point x="201" y="750"/>
      <point x="160" y="791"/>
      <point x="160" y="840" type="curve" smooth="yes"/>
      <point x="160" y="889"/>
      <point x="201" y="930"/>
      <point x="250" y="930" type="curve" smooth="yes"/>
      <point x="299" y="930"/>
      <point x="340" y="889"/>
    </contour>
    <contour>
      <point x="301" y="840" type="curve" smooth="yes"/>
      <point x="301" y="869"/>
      <point x="279" y="896"/>
      <point x="250" y="896" type="curve" smooth="yes"/>
      <point x="221" y="896"/>
      <point x="199" y="869"/>
      <point x="199" y="840" type="curve" smooth="yes"/>
      <point x="199" y="811"/>
      <point x="221" y="784"/>
      <point x="250" y="784" type="curve" smooth="yes"/>
      <point x="279" y="784"/>
      <point x="301" y="811"/>
    </contour>
  </outline>
</glyph>
<glyph name="ogonek" format="1">
  <advance width="500"/>
  <unicode hex="02DB"/>
  <outline>
    <contour>
      <point x="315" y="3" type="line"/>
      <point x="274" y="-33"/>
      <point x="250" y="-62"/>
      <point x="250" y="-101" type="curve" smooth="yes"/>
      <point x="250" y="-141"/>
      <point x="273" y="-152"/>
      <point x="314" y="-166" type="curve"/>
      <point x="306" y="-188" type="line"/>
      <point x="235" y="-188"/>
      <point x="178" y="-170"/>
      <point x="178" y="-117" type="curve" smooth="yes"/>
      <point x="178" y="-67"/>
      <point x="229" y="-17"/>
      <point x="303" y="20" type="curve"/>
    </contour>
  </outline>
</glyph>
<glyph name="tilde" format="1">
  <advance width="500"/>
  <unicode hex="02DC"/>
  <outline>
    <contour>
      <point x="389" y="873" type="line"/>
      <point x="375" y="802"/>
      <point x="346" y="760"/>
      <point x="299" y="760" type="curve" smooth="yes"/>
      <point x="258" y="760"/>
      <point x="214" y="776"/>
      <point x="186" y="776" type="curve" smooth="yes"/>
      <point x="159" y="776"/>
      <point x="143" y="769"/>
      <point x="125" y="742" type="curve"/>
      <point x="111" y="747" type="line"/>
      <point x="125" y="818"/>
      <point x="154" y="860"/>
      <point x="201" y="860" type="curve" smooth="yes"/>
      <point x="242" y="860"/>
      <point x="286" y="844"/>
      <point x="314" y="844" type="curve" smooth="yes"/>
      <point x="341" y="844"/>
      <point x="357" y="851"/>
      <point x="375" y="878" type="curve"/>
    </contour>
  </outline>
</glyph>
<glyph name="hungarumlaut" format="1">
  <advance width="500"/>
  <unicode hex="02DD"/>
  <outline>
    <contour>
      <point x="432" y="843" type="line"/>
      <point x="266" y="742" type="line"/>
      <point x="254" y="753" type="line"/>
      <point x="270" y="776"/>
      <point x="276" y="802"/>
      <point x="278" y="826" type="curve"/>
      <point x="140" y="742" type="line"/>
      <point x="128" y="753" type="line"/>
      <point x="149" y="784"/>
      <point x="153" y="820"/>
      <point x="153" y="848" type="curve"/>
      <point x="161" y="856" type="line"/>
      <point x="432" y="856" type="line"/>
    </contour>
  </outline>
</glyph>
<glyph name="endash" format="1">
  <advance width="500"/>
  <unicode hex="2013"/>
  <outline>
    <contour>
      <point x="460" y="413" type="line"/>
      <point x="427" y="328" type="line"/>
      <point x="406" y="334"/>
      <point x="377" y="336"/>
      <point x="337" y="336" type="curve" smooth="yes"/>
      <point x="40" y="336" type="line"/>
      <point x="70" y="418" type="line"/>
      <point x="100" y="414"/>
      <point x="153" y="413"/>
      <point x="225" y="413" type="curve" smooth="yes"/>
    </contour>
  </outline>
</glyph>
<glyph name="emdash" format="1">
  <advance width="1000"/>
  <unicode hex="2014"/>
  <outline>
    <contour>
      <point x="960" y="413" type="line"/>
      <point x="927" y="328" type="line"/>
      <point x="906" y="334"/>
      <point x="877" y="336"/>
      <point x="837" y="336" type="curve" smooth="yes"/>
      <point x="40" y="336" type="line"/>
      <point x="70" y="418" type="line"/>
      <point x="100" y="414"/>
      <point x="153" y="413"/>
      <point x="225" y="413" type="curve" smooth="yes"/>
    </contour>
  </outline>
</glyph>
<glyph name="quoteleft" format="1">
  <advance width="270"/>
  <unicode hex="2018"/>
  <unicode hex="02BB"/>
  <outline>
    <contour>
      <point x="220" y="688" type="line"/>
      <point x="178" y="647"/>
      <point x="160" y="619"/>
      <point x="160" y="585" type="curve" smooth="yes"/>
      <point x="160" y="553"/>
      <point x="174" y="529"/>
      <point x="216" y="485" type="curve"/>
      <point x="129" y="403" type="line"/>
      <point x="76" y="442"/>
      <point x="57" y="473"/>
      <point x="57" y="517" type="curve" smooth="yes"/>
      <point x="57" y="576"/>
      <point x="99" y="630"/>
      <point x="204" y="708" type="curve"/>
    </contour>
  </outline>
</glyph>
<glyph name="quoteright" format="1">
  <advance width="270"/>
  <unicode hex="2019"/>
  <unicode hex="02BC"/>
  <outline>
    <contour>
      <point x="213" y="594" type="curve" smooth="yes"/>
      <point x="213" y="535"/>
      <point x="171" y="481"/>
      <point x="66" y="403" type="curve"/>
      <point x="50" y="423" type="line"/>
      <point x="92" y="464"/>
      <point x="110" y="492"/>
      <point x="110" y="526" type="curve" smooth="yes"/>
      <point x="110" y="558"/>
      <point x="96" y="582"/>
      <point x="54" y="626" type="curve"/>
      <point x="141" y="708" type="line"/>
      <point x="194" y="669"/>
      <point x="213" y="638"/>
    </contour>
  </outline>
</glyph>
<glyph name="quotesinglbase" format="1">
  <advance width="270"/>
  <unicode hex="201A"/>
  <outline>
    <contour>
      <point x="208" y="46" type="curve" smooth="yes"/>
      <point x="208" y="-13"/>
      <point x="166" y="-67"/>
      <point x="61" y="-145" type="curve"/>
      <point x="45" y="-125" type="line"/>
      <point x="87" y="-84"/>
      <point x="105" y="-56"/>
      <point x="105" y="-22" type="curve" smooth="yes"/>
      <point x="105" y="10"/>
      <point x="91" y="34"/>
      <point x="49" y="78" type="curve"/>
      <point x="136" y="160" type="line"/>
      <point x="189" y="121"/>
      <point x="208" y="90"/>
    </contour>
  </outline>
</glyph>
<glyph name="quotedblleft" format="1">
  <advance width="475"/>
  <unicode hex="201C"/>
  <outline>
    <contour>
      <point x="425" y="688" type="line"/>
      <point x="383" y="647"/>
      <point x="365" y="619"/>
      <point x="365" y="585" type="curve" smooth="yes"/>
      <point x="365" y="553"/>
      <point x="379" y="529"/>
      <point x="421" y="485" type="curve"/>
      <point x="334" y="403" type="line"/>
      <point x="281" y="442"/>
      <point x="262" y="473"/>
      <point x="262" y="517" type="curve" smooth="yes"/>
      <point x="262" y="576"/>
      <point x="304" y="630"/>
      <point x="409" y="708" type="curve"/>
    </contour>
    <contour>
      <point x="220" y="688" type="line"/>
      <point x="178" y="647"/>
      <point x="160" y="619"/>
      <point x="160" y="585" type="curve" smooth="yes"/>
      <point x="160" y="553"/>
      <point x="174" y="529"/>
      <point x="216" y="485" type="curve"/>
      <point x="129" y="403" type="line"/>
      <point x="76" y="442"/>
      <point x="57" y="473"/>
      <point x="57" y="517" type="curve" smooth="yes"/>
      <point x="57" y="576"/>
      <point x="99" y="630"/>
      <point x="204" y="708" type="curve"/>
    </contour>
  </outline>
</glyph>
<glyph name="quotedblright" format="1">
  <advance width="475"/>
  <unicode hex="201D"/>
  <outline>
    <contour>
      <point x="418" y="594" type="curve" smooth="yes"/>
      <point x="418" y="535"/>
      <point x="376" y="481"/>
      <point x="271" y="403" type="curve"/>
      <point x="255" y="423" type="line"/>
      <point x="297" y="464"/>
      <point x="315" y="492"/>
      <point x="315" y="526" type="curve" smooth="yes"/>
      <point x="315" y="558"/>
      <point x="301" y="582"/>
      <point x="259" y="626" type="curve"/>
      <point x="346" y="708" type="line"/>
      <point x="399" y="669"/>
      <point x="418" y="638"/>
    </contour>
    <contour>
      <point x="213" y="594" type="curve" smooth="yes"/>
      <point x="213" y="535"/>
      <point x="171" y="481"/>
      <point x="66" y="403" type="curve"/>
      <point x="50" y="423" type="line"/>
      <point x="92" y="464"/>
      <point x="110" y="492"/>
      <point x="110" y="526" type="curve" smooth="yes"/>
      <point x="110" y="558"/>
      <point x="96" y="582"/>
      <point x="54" y="626" type="curve"/>
      <point x="141" y="708" type="line"/>
      <point x="194" y="669"/>
      <point x="213" y="638"/>
    </contour>
  </outline>
</glyph>
<glyph name="quotedblbase" format="1">
  <advance width="475"/>
  <unicode hex="201E"/>
  <outline>
    <contour>
      <point x="413" y="46" type="curve" smooth="yes"/>
      <point x="413" y="-13"/>
      <point x="371" y="-67"/>
      <point x="266" y="-145" type="curve"/>
      <point x="250" y="-125" type="line"/>
      <point x="292" y="-84"/>
      <point x="310" y="-56"/>
      <point x="310" y="-22" type="curve" smooth="yes"/>
      <point x="310" y="10"/>
      <point x="296" y="34"/>
      <point x="254" y="78" type="curve"/>
      <point x="341" y="160" type="line"/>
      <point x="394" y="121"/>
      <point x="413" y="90"/>
    </contour>
    <contour>
      <point x="208" y="46" type="curve" smooth="yes"/>
      <point x="208" y="-13"/>
      <point x="166" y="-67"/>
      <point x="61" y="-145" type="curve"/>
      <point x="45" y="-125" type="line"/>
      <point x="87" y="-84"/>
      <point x="105" y="-56"/>
      <point x="105" y="-22" type="curve" smooth="yes"/>
      <point x="105" y="10"/>
      <point x="91" y="34"/>
      <point x="49" y="78" type="curve"/>
      <point x="136" y="160" type="line"/>
      <point x="189" y="121"/>
      <point x="208" y="90"/>
    </contour>
  </outline>
</glyph>
<glyph name="dagger" format="1">
  <advance width="300"/>
  <unicode hex="2020"/>
  <outline>
    <contour>
      <point x="250" y="566" type="line"/>
      <point x="225" y="566"/>
      <point x="192" y="575"/>
      <point x="162" y="586" type="curve"/>
      <point x="182" y="488" type="line"/>
      <point x="156" y="308" type="line"/>
      <point x="144" y="308" type="line"/>
      <point x="118" y="488" type="line"/>
      <point x="138" y="586" type="line"/>
      <point x="108" y="575"/>
      <point x="75" y="566"/>
      <point x="50" y="566" type="curve"/>
      <point x="50" y="624" type="line"/>
      <point x="75" y="624"/>
      <point x="109" y="614"/>
      <point x="139" y="603" type="curve"/>
      <point x="126" y="639"/>
      <point x="114" y="679"/>
      <point x="114" y="700" type="curve"/>
      <point x="186" y="700" type="line"/>
      <point x="186" y="679"/>
      <point x="174" y="639"/>
      <point x="161" y="603" type="curve"/>
      <point x="191" y="614"/>
      <point x="225" y="624"/>
      <point x="250" y="624" type="curve"/>
    </contour>
  </outline>
</glyph>
<glyph name="daggerdbl" format="1">
  <advance width="300"/>
  <unicode hex="2021"/>
  <outline>
    <contour>
      <point x="250" y="388" type="line"/>
      <point x="225" y="388"/>
      <point x="191" y="398"/>
      <point x="160" y="408" type="curve"/>
      <point x="174" y="373"/>
      <point x="185" y="332"/>
      <point x="185" y="312" type="curve"/>
      <point x="115" y="312" type="line"/>
      <point x="115" y="333"/>
      <point x="127" y="373"/>
      <point x="140" y="408" type="curve"/>
      <point x="110" y="398"/>
      <point x="75" y="388"/>
      <point x="50" y="388" type="curve"/>
      <point x="50" y="444" type="line"/>
      <point x="75" y="444"/>
      <point x="108" y="434"/>
      <point x="140" y="424" type="curve"/>
      <point x="120" y="506" type="line"/>
      <point x="140" y="588" type="line"/>
      <point x="109" y="578"/>
      <point x="76" y="568"/>
      <point x="50" y="568" type="curve"/>
      <point x="50" y="624" type="line"/>
      <point x="75" y="624"/>
      <point x="109" y="614"/>
      <point x="140" y="604" type="curve"/>
      <point x="127" y="639"/>
      <point x="115" y="680"/>
      <point x="115" y="700" type="curve"/>
      <point x="185" y="700" type="line"/>
      <point x="185" y="679"/>
      <point x="173" y="639"/>
      <point x="160" y="604" type="curve"/>
      <point x="190" y="614"/>
      <point x="225" y="624"/>
      <point x="250" y="624" type="curve"/>
      <point x="250" y="568" type="line"/>
      <point x="225" y="568"/>
      <point x="191" y="577"/>
      <point x="160" y="588" type="curve"/>
      <point x="180" y="506" type="line"/>
      <point x="160" y="424" type="line"/>
      <point x="191" y="434"/>
      <point x="225" y="444"/>
      <point x="250" y="444" type="curve"/>
    </contour>
  </outline>
</glyph>
<glyph name="ellipsis" format="1">
  <advance width="810"/>
  <unicode hex="2026"/>
  <outline>
    <contour>
      <point x="751" y="71" type="curve" smooth="yes"/>
      <point x="751" y="29"/>
      <point x="717" y="-5"/>
      <point x="675" y="-5" type="curve" smooth="yes"/>
      <point x="633" y="-5"/>
      <point x="599" y="29"/>
      <point x="599" y="71" type="curve" smooth="yes"/>
      <point x="599" y="113"/>
      <point x="633" y="147"/>
      <point x="675" y="147" type="curve" smooth="yes"/>
      <point x="717" y="147"/>
      <point x="751" y="113"/>
    </contour>
    <contour>
      <point x="481" y="71" type="curve" smooth="yes"/>
      <point x="481" y="29"/>
      <point x="447" y="-5"/>
      <point x="405" y="-5" type="curve" smooth="yes"/>
      <point x="363" y="-5"/>
      <point x="329" y="29"/>
      <point x="329" y="71" type="curve" smooth="yes"/>
      <point x="329" y="113"/>
      <point x="363" y="147"/>
      <point x="405" y="147" type="curve" smooth="yes"/>
      <point x="447" y="147"/>
      <point x="481" y="113"/>
    </contour>
    <contour>
      <point x="211" y="71" type="curve" smooth="yes"/>
      <point x="211" y="29"/>
      <point x="177" y="-5"/>
      <point x="135" y="-5" type="curve" smooth="yes"/>
      <point x="93" y="-5"/>
      <point x="59" y="29"/>
      <point x="59" y="71" type="curve" smooth="yes"/>
      <point x="59" y="113"/>
      <point x="93" y="147"/>
      <point x="135" y="147" type="curve" smooth="yes"/>
      <point x="177" y="147"/>
      <point x="211" y="113"/>
    </contour>
  </outline>
</glyph>
<glyph name="guilsinglleft" format="1">
  <advance width="270"/>
  <unicode hex="2039"/>
  <outline>
    <contour>
      <point x="216" y="193" type="curve"/>
      <point x="195" y="186" type="line"/>
      <point x="163" y="254"/>
      <point x="93" y="310"/>
      <point x="49" y="324" type="curve"/>
      <point x="49" y="386" type="line"/>
      <point x="93" y="400"/>
      <point x="163" y="456"/>
      <point x="195" y="524" type="curve"/>
      <point x="216" y="517" type="line"/>
      <point x="206" y="458"/>
      <point x="173" y="395"/>
      <point x="150" y="355" type="curve"/>
      <point x="173" y="315"/>
      <point x="206" y="252"/>
    </contour>
  </outline>
</glyph>
<glyph name="guilsinglright" format="1">
  <advance width="270"/>
  <unicode hex="203A"/>
  <outline>
    <contour>
      <point x="221" y="324" type="line"/>
      <point x="177" y="310"/>
      <point x="107" y="254"/>
      <point x="75" y="186" type="curve"/>
      <point x="54" y="193" type="line"/>
      <point x="64" y="252"/>
      <point x="97" y="315"/>
      <point x="120" y="355" type="curve"/>
      <point x="97" y="395"/>
      <point x="64" y="458"/>
      <point x="54" y="517" type="curve"/>
      <point x="75" y="524" type="line"/>
      <point x="107" y="456"/>
      <point x="177" y="400"/>
      <point x="221" y="386" type="curve"/>
    </contour>
  </outline>
</glyph>
<glyph name="fraction" format="1">
  <advance width="405"/>
  <unicode hex="2044"/>
  <outline>
    <contour>
      <point x="460" y="705" type="line"/>
      <point x="23" y="-5" type="line"/>
      <point x="-55" y="-5" type="line"/>
      <point x="382" y="705" type="line"/>
    </contour>
  </outline>
</glyph>
<glyph name="Euro" format="1">
  <advance width="655"/>
  <unicode hex="20AC"/>
  <outline>
    <contour>
      <point x="610" y="165" type="line"/>
      <point x="606" y="139"/>
      <point x="602" y="72"/>
      <point x="602" y="45" type="curve"/>
      <point x="541" y="13"/>
      <point x="470" y="-6"/>
      <point x="396" y="-6" type="curve" smooth="yes"/>
      <point x="215" y="-6"/>
      <point x="51" y="104"/>
      <point x="51" y="340" type="curve" smooth="yes"/>
      <point x="51" y="560"/>
      <point x="209" y="706"/>
      <point x="389" y="706" type="curve" smooth="yes"/>
      <point x="479" y="706"/>
      <point x="540" y="687"/>
      <point x="592" y="659" type="curve"/>
      <point x="592" y="632"/>
      <point x="596" y="565"/>
      <point x="600" y="539" type="curve"/>
      <point x="588" y="534" type="line"/>
      <point x="538" y="600"/>
      <point x="471" y="637"/>
      <point x="391" y="637" type="curve" smooth="yes"/>
      <point x="295" y="637"/>
      <point x="220" y="570"/>
      <point x="191" y="459" type="curve"/>
      <point x="462" y="459" type="line"/>
      <point x="462" y="403" type="line"/>
      <point x="181" y="403" type="line"/>
      <point x="179" y="386"/>
      <point x="178" y="368"/>
      <point x="178" y="349" type="curve" smooth="yes"/>
      <point x="178" y="333"/>
      <point x="179" y="318"/>
      <point x="180" y="303" type="curve"/>
      <point x="462" y="303" type="line"/>
      <point x="462" y="247" type="line"/>
      <point x="189" y="247" type="line"/>
      <point x="219" y="124"/>
      <point x="303" y="63"/>
      <point x="406" y="63" type="curve" smooth="yes"/>
      <point x="483" y="63"/>
      <point x="547" y="96"/>
      <point x="598" y="170" type="curve"/>
    </contour>
  </outline>
</glyph>
<glyph name="uni2117" format="1">
  <advance width="818"/>
  <unicode hex="2117"/>
  <outline>
    <contour>
      <point x="769" y="350" type="curve" smooth="yes"/>
      <point x="769" y="147"/>
      <point x="612" y="-10"/>
      <point x="409" y="-10" type="curve" smooth="yes"/>
      <point x="206" y="-10"/>
      <point x="49" y="147"/>
      <point x="49" y="350" type="curve" smooth="yes"/>
      <point x="49" y="553"/>
      <point x="206" y="710"/>
      <point x="409" y="710" type="curve" smooth="yes"/>
      <point x="612" y="710"/>
      <point x="769" y="553"/>
    </contour>
    <contour>
      <point x="736" y="350" type="curve" smooth="yes"/>
      <point x="736" y="535"/>
      <point x="596" y="681"/>
      <point x="409" y="681" type="curve" smooth="yes"/>
      <point x="222" y="681"/>
      <point x="82" y="535"/>
      <point x="82" y="350" type="curve" smooth="yes"/>
      <point x="82" y="165"/>
      <point x="222" y="19"/>
      <point x="409" y="19" type="curve" smooth="yes"/>
      <point x="596" y="19"/>
      <point x="736" y="165"/>
    </contour>
    <contour>
      <point x="604" y="455" type="curve" smooth="yes"/>
      <point x="604" y="368"/>
      <point x="506" y="334"/>
      <point x="405" y="334" type="curve" smooth="yes"/>
      <point x="392" y="334"/>
      <point x="371" y="334"/>
      <point x="350" y="334" type="curve"/>
      <point x="350" y="196" type="line" smooth="yes"/>
      <point x="350" y="173"/>
      <point x="355" y="163"/>
      <point x="375" y="159" type="curve"/>
      <point x="371" y="147" type="line"/>
      <point x="355" y="148"/>
      <point x="314" y="147"/>
      <point x="297" y="147" type="curve" smooth="yes"/>
      <point x="284" y="147"/>
      <point x="265" y="148"/>
      <point x="251" y="147" type="curve"/>
      <point x="248" y="157" type="line"/>
      <point x="263" y="162"/>
      <point x="269" y="174"/>
      <point x="269" y="190" type="curve" smooth="yes"/>
      <point x="269" y="509" type="line" smooth="yes"/>
      <point x="269" y="531"/>
      <point x="265" y="541"/>
      <point x="248" y="549" type="curve"/>
      <point x="251" y="558" type="line"/>
      <point x="290" y="557"/>
      <point x="312" y="558"/>
      <point x="354" y="558" type="curve" smooth="yes"/>
      <point x="385" y="558"/>
      <point x="427" y="558"/>
      <point x="457" y="558" type="curve" smooth="yes"/>
      <point x="547" y="558"/>
      <point x="604" y="527"/>
    </contour>
    <contour>
      <point x="517" y="451" type="curve" smooth="yes"/>
      <point x="517" y="492"/>
      <point x="490" y="512"/>
      <point x="440" y="512" type="curve" smooth="yes"/>
      <point x="404" y="512"/>
      <point x="377" y="512"/>
      <point x="350" y="511" type="curve"/>
      <point x="350" y="380" type="line"/>
      <point x="371" y="380"/>
      <point x="389" y="380"/>
      <point x="404" y="380" type="curve" smooth="yes"/>
      <point x="468" y="380"/>
      <point x="517" y="399"/>
    </contour>
  </outline>
</glyph>
<glyph name="trademark" format="1">
  <advance width="605"/>
  <unicode hex="2122"/>
  <outline>
    <contour>
      <point x="588" y="441" type="curve"/>
      <point x="586" y="435" type="line"/>
      <point x="576" y="436"/>
      <point x="559" y="436"/>
      <point x="547" y="436" type="curve" smooth="yes"/>
      <point x="535" y="436"/>
      <point x="517" y="436"/>
      <point x="505" y="435" type="curve"/>
      <point x="504" y="441" type="line"/>
      <point x="517" y="446"/>
      <point x="521" y="455"/>
      <point x="520" y="470" type="curve" smooth="yes"/>
      <point x="509" y="648" type="line"/>
      <point x="423" y="482" type="line"/>
      <point x="414" y="482" type="line"/>
      <point x="329" y="647" type="line"/>
      <point x="317" y="470" type="line" smooth="yes"/>
      <point x="316" y="454"/>
      <point x="317" y="449"/>
      <point x="335" y="441" type="curve"/>
      <point x="334" y="435" type="line"/>
      <point x="324" y="436"/>
      <point x="307" y="436"/>
      <point x="297" y="436" type="curve" smooth="yes"/>
      <point x="287" y="436"/>
      <point x="279" y="436"/>
      <point x="270" y="435" type="curve"/>
      <point x="269" y="441" type="line"/>
      <point x="282" y="446"/>
      <point x="286" y="452"/>
      <point x="287" y="468" type="curve" smooth="yes"/>
      <point x="301" y="664" type="line" smooth="yes"/>
      <point x="302" y="681"/>
      <point x="297" y="690"/>
      <point x="286" y="695" type="curve"/>
      <point x="287" y="701" type="line"/>
      <point x="290" y="700"/>
      <point x="301" y="700"/>
      <point x="308" y="700" type="curve" smooth="yes"/>
      <point x="321" y="700"/>
      <point x="351" y="700"/>
      <point x="356" y="700" type="curve"/>
      <point x="358" y="691"/>
      <point x="364" y="678"/>
      <point x="382" y="643" type="curve" smooth="yes"/>
      <point x="429" y="552" type="line"/>
      <point x="474" y="640" type="line" smooth="yes"/>
      <point x="490" y="671"/>
      <point x="500" y="692"/>
      <point x="501" y="700" type="curve"/>
      <point x="506" y="700"/>
      <point x="517" y="700"/>
      <point x="526" y="700" type="curve" smooth="yes"/>
      <point x="536" y="700"/>
      <point x="557" y="700"/>
      <point x="566" y="701" type="curve"/>
      <point x="567" y="695" type="line"/>
      <point x="556" y="691"/>
      <point x="552" y="682"/>
      <point x="553" y="669" type="curve" smooth="yes"/>
      <point x="567" y="472" type="line" smooth="yes"/>
      <point x="568" y="454"/>
      <point x="572" y="447"/>
    </contour>
    <contour>
      <point x="252" y="701" type="curve"/>
      <point x="239" y="663" type="line"/>
      <point x="234" y="663" type="line"/>
      <point x="232" y="669"/>
      <point x="228" y="674"/>
      <point x="205" y="674" type="curve" smooth="yes"/>
      <point x="160" y="674" type="line"/>
      <point x="160" y="468" type="line" smooth="yes"/>
      <point x="160" y="453"/>
      <point x="163" y="446"/>
      <point x="177" y="441" type="curve"/>
      <point x="176" y="435" type="line"/>
      <point x="167" y="436"/>
      <point x="148" y="436"/>
      <point x="138" y="436" type="curve" smooth="yes"/>
      <point x="129" y="436"/>
      <point x="109" y="436"/>
      <point x="101" y="435" type="curve"/>
      <point x="100" y="441" type="line"/>
      <point x="110" y="446"/>
      <point x="114" y="452"/>
      <point x="114" y="466" type="curve" smooth="yes"/>
      <point x="114" y="674" type="line"/>
      <point x="78" y="674" type="line" smooth="yes"/>
      <point x="48" y="674"/>
      <point x="38" y="670"/>
      <point x="27" y="662" type="curve"/>
      <point x="23" y="665" type="line"/>
      <point x="35" y="701" type="line"/>
      <point x="75" y="700"/>
      <point x="98" y="700"/>
      <point x="137" y="700" type="curve" smooth="yes"/>
      <point x="182" y="700"/>
      <point x="208" y="700"/>
    </contour>
  </outline>
</glyph>
<glyph name="radical" format="1">
  <advance width="463"/>
  <unicode hex="221A"/>
  <outline>
    <contour>
      <point x="69" y="226" type="line" smooth="yes"/>
      <point x="59" y="265"/>
      <point x="49" y="279"/>
      <point x="22" y="289" type="curve"/>
      <point x="26" y="299" type="line"/>
      <point x="51" y="297"/>
      <point x="71" y="297"/>
      <point x="89" y="297" type="curve" smooth="yes"/>
      <point x="104" y="297"/>
      <point x="141" y="297"/>
      <point x="164" y="299" type="curve"/>
      <point x="224" y="72" type="line"/>
      <point x="403" y="700" type="line"/>
      <point x="439" y="700" type="line"/>
      <point x="238" y="0" type="line"/>
      <point x="130" y="0" type="line"/>
    </contour>
  </outline>
</glyph>
<glyph name="apple" format="1">
  <advance width="800"/>
  <unicode hex="F8FF"/>
  <outline>
    <contour>
      <point x="770" y="350" type="line"/>
      <point x="400" y="-20" type="line"/>
      <point x="30" y="350" type="line"/>
      <point x="400" y="720" type="line"/>
    </contour>
    <contour>
      <point x="728" y="350" type="line"/>
      <point x="400" y="678" type="line"/>
      <point x="72" y="350" type="line"/>
      <point x="400" y="22" type="line"/>
    </contour>
    <contour>
      <point x="568" y="443" type="curve" smooth="yes"/>
      <point x="568" y="436"/>
      <point x="562" y="432"/>
      <point x="554" y="432" type="curve" smooth="yes"/>
      <point x="540" y="432"/>
      <point x="527" y="445"/>
      <point x="527" y="452" type="curve" smooth="yes"/>
      <point x="527" y="461"/>
      <point x="534" y="464"/>
      <point x="543" y="464" type="curve" smooth="yes"/>
      <point x="553" y="464"/>
      <point x="568" y="451"/>
    </contour>
    <contour>
      <point x="273" y="452" type="curve" smooth="yes"/>
      <point x="273" y="445"/>
      <point x="260" y="432"/>
      <point x="246" y="432" type="curve" smooth="yes"/>
      <point x="238" y="432"/>
      <point x="232" y="436"/>
      <point x="232" y="443" type="curve" smooth="yes"/>
      <point x="232" y="451"/>
      <point x="247" y="464"/>
      <point x="257" y="464" type="curve" smooth="yes"/>
      <point x="266" y="464"/>
      <point x="273" y="461"/>
    </contour>
    <contour>
      <point x="522" y="413" type="curve" smooth="yes"/>
      <point x="497" y="388"/>
      <point x="471" y="357"/>
      <point x="457" y="296" type="curve" smooth="yes"/>
      <point x="455" y="286"/>
      <point x="445" y="289"/>
      <point x="446" y="298" type="curve" smooth="yes"/>
      <point x="452" y="368"/>
      <point x="494" y="433"/>
      <point x="514" y="433" type="curve" smooth="yes"/>
      <point x="523" y="433"/>
      <point x="528" y="419"/>
    </contour>
    <contour>
      <point x="354" y="298" type="curve" smooth="yes"/>
      <point x="355" y="289"/>
      <point x="345" y="286"/>
      <point x="343" y="296" type="curve" smooth="yes"/>
      <point x="329" y="357"/>
      <point x="303" y="388"/>
      <point x="278" y="413" type="curve" smooth="yes"/>
      <point x="272" y="419"/>
      <point x="277" y="433"/>
      <point x="286" y="433" type="curve" smooth="yes"/>
      <point x="306" y="433"/>
      <point x="348" y="368"/>
    </contour>
    <contour>
      <point x="670" y="353" type="curve"/>
      <point x="667" y="346" type="line"/>
      <point x="660" y="347"/>
      <point x="653" y="348"/>
      <point x="644" y="348" type="curve" smooth="yes"/>
      <point x="607" y="348"/>
      <point x="588" y="318"/>
      <point x="574" y="278" type="curve" smooth="yes"/>
      <point x="551" y="211"/>
      <point x="513" y="165"/>
      <point x="472" y="165" type="curve" smooth="yes"/>
      <point x="455" y="165"/>
      <point x="445" y="167"/>
      <point x="430" y="173" type="curve"/>
      <point x="426" y="167" type="line"/>
      <point x="436" y="154"/>
      <point x="441" y="144"/>
      <point x="441" y="127" type="curve" smooth="yes"/>
      <point x="441" y="108"/>
      <point x="425" y="86"/>
      <point x="400" y="72" type="curve"/>
      <point x="375" y="86"/>
      <point x="359" y="108"/>
      <point x="359" y="127" type="curve" smooth="yes"/>
      <point x="359" y="144"/>
      <point x="364" y="154"/>
      <point x="374" y="167" type="curve"/>
      <point x="370" y="173" type="line"/>
      <point x="355" y="167"/>
      <point x="345" y="165"/>
      <point x="328" y="165" type="curve" smooth="yes"/>
      <point x="287" y="165"/>
      <point x="249" y="211"/>
      <point x="226" y="278" type="curve" smooth="yes"/>
      <point x="212" y="318"/>
      <point x="193" y="348"/>
      <point x="156" y="348" type="curve" smooth="yes"/>
      <point x="147" y="348"/>
      <point x="140" y="347"/>
      <point x="133" y="346" type="curve"/>
      <point x="130" y="353" type="line"/>
      <point x="151" y="385"/>
      <point x="174" y="395"/>
      <point x="207" y="388" type="curve"/>
      <point x="220" y="402" type="line"/>
      <point x="249" y="393"/>
      <point x="269" y="366"/>
      <point x="269" y="337" type="curve" smooth="yes"/>
      <point x="269" y="316"/>
      <point x="267" y="303"/>
      <point x="260" y="286" type="curve"/>
      <point x="266" y="280" type="line"/>
      <point x="277" y="290"/>
      <point x="287" y="295"/>
      <point x="305" y="295" type="curve" smooth="yes"/>
      <point x="321" y="295"/>
      <point x="329" y="278"/>
      <point x="329" y="261" type="curve" smooth="yes"/>
      <point x="329" y="247"/>
      <point x="324" y="235"/>
      <point x="316" y="223" type="curve"/>
      <point x="318" y="215"/>
      <point x="323" y="209"/>
      <point x="332" y="209" type="curve" smooth="yes"/>
      <point x="354" y="209"/>
      <point x="370" y="272"/>
      <point x="370" y="315" type="curve" smooth="yes"/>
      <point x="370" y="388"/>
      <point x="337" y="495"/>
      <point x="278" y="501" type="curve"/>
      <point x="278" y="509" type="line"/>
      <point x="300" y="529"/>
      <point x="340" y="530"/>
      <point x="359" y="518" type="curve"/>
      <point x="360" y="559"/>
      <point x="373" y="603"/>
      <point x="395" y="637" type="curve"/>
      <point x="405" y="637" type="line"/>
      <point x="427" y="603"/>
      <point x="440" y="559"/>
      <point x="441" y="518" type="curve"/>
      <point x="460" y="530"/>
      <point x="500" y="529"/>
      <point x="522" y="509" type="curve"/>
      <point x="522" y="501" type="line"/>
      <point x="463" y="495"/>
      <point x="430" y="388"/>
      <point x="430" y="315" type="curve" smooth="yes"/>
      <point x="430" y="272"/>
      <point x="446" y="209"/>
      <point x="468" y="209" type="curve" smooth="yes"/>
      <point x="477" y="209"/>
      <point x="482" y="215"/>
      <point x="484" y="223" type="curve"/>
      <point x="476" y="235"/>
      <point x="471" y="247"/>
      <point x="471" y="261" type="curve" smooth="yes"/>
      <point x="471" y="278"/>
      <point x="479" y="295"/>
      <point x="495" y="295" type="curve" smooth="yes"/>
      <point x="513" y="295"/>
      <point x="523" y="290"/>
      <point x="534" y="280" type="curve"/>
      <point x="540" y="286" type="line"/>
      <point x="533" y="303"/>
      <point x="531" y="316"/>
      <point x="531" y="337" type="curve" smooth="yes"/>
      <point x="531" y="366"/>
      <point x="551" y="393"/>
      <point x="580" y="402" type="curve"/>
      <point x="593" y="388" type="line"/>
      <point x="626" y="395"/>
      <point x="649" y="385"/>
    </contour>
  </outline>
</glyph>
<glyph name="R_A" format="1">
  <advance width="1361"/>
  <outline>
    <contour>
      <point x="1360" y="9" type="curve"/>
      <point x="1358" y="-1" type="line"/>
      <point x="1329" y="2"/>
      <point x="1286" y="1"/>
      <point x="1249" y="1" type="curve" smooth="yes"/>
      <point x="1215" y="1"/>
      <point x="1160" y="1"/>
      <point x="1128" y="-1" type="curve"/>
      <point x="1125" y="9" type="line"/>
      <point x="1143" y="17"/>
      <point x="1157" y="35"/>
      <point x="1157" y="51" type="curve" smooth="yes"/>
      <point x="1157" y="69"/>
      <point x="1152" y="88"/>
      <point x="1139" y="118" type="curve" smooth="yes"/>
      <point x="1066" y="282" type="line"/>
      <point x="842" y="282" type="line"/>
      <point x="769" y="131" type="line" smooth="yes"/>
      <point x="754" y="100"/>
      <point x="748" y="80"/>
      <point x="748" y="59" type="curve" smooth="yes"/>
      <point x="748" y="32"/>
      <point x="761" y="23"/>
      <point x="787" y="9" type="curve"/>
      <point x="784" y="-1" type="line"/>
      <point x="755" y="0"/>
      <point x="721" y="0"/>
      <point x="680" y="0" type="curve" smooth="yes"/>
      <point x="528" y="0"/>
      <point x="397" y="113"/>
      <point x="293" y="328" type="curve"/>
      <point x="265" y="328"/>
      <point x="237" y="328"/>
      <point x="212" y="328" type="curve"/>
      <point x="212" y="81" type="line" smooth="yes"/>
      <point x="212" y="40"/>
      <point x="224" y="23"/>
      <point x="255" y="10" type="curve"/>
      <point x="250" y="-1" type="line"/>
      <point x="218" y="2"/>
      <point x="177" y="1"/>
      <point x="149" y="1" type="curve" smooth="yes"/>
      <point x="121" y="1"/>
      <point x="89" y="1"/>
      <point x="60" y="-1" type="curve"/>
      <point x="56" y="8" type="line"/>
      <point x="80" y="19"/>
      <point x="90" y="40"/>
      <point x="90" y="73" type="curve" smooth="yes"/>
      <point x="90" y="629" type="line" smooth="yes"/>
      <point x="90" y="651"/>
      <point x="82" y="677"/>
      <point x="54" y="692" type="curve"/>
      <point x="57" y="701" type="line"/>
      <point x="107" y="699"/>
      <point x="145" y="699"/>
      <point x="195" y="699" type="curve" smooth="yes"/>
      <point x="248" y="699"/>
      <point x="330" y="700"/>
      <point x="384" y="700" type="curve" smooth="yes"/>
      <point x="522" y="700"/>
      <point x="623" y="636"/>
      <point x="623" y="526" type="curve" smooth="yes"/>
      <point x="623" y="424"/>
      <point x="544" y="358"/>
      <point x="429" y="336" type="curve"/>
      <point x="470" y="239"/>
      <point x="554" y="96"/>
      <point x="631" y="39" type="curve"/>
      <point x="645" y="53"/>
      <point x="658" y="72"/>
      <point x="671" y="98" type="curve" smooth="yes"/>
      <point x="935" y="625" type="line" smooth="yes"/>
      <point x="955" y="665"/>
      <point x="965" y="695"/>
      <point x="965" y="719" type="curve"/>
      <point x="997" y="719" type="line"/>
      <point x="1276" y="92" type="line" smooth="yes"/>
      <point x="1295" y="49"/>
      <point x="1319" y="23"/>
    </contour>
    <contour>
      <point x="495" y="519" type="curve" smooth="yes"/>
      <point x="495" y="596"/>
      <point x="434" y="632"/>
      <point x="336" y="632" type="curve" smooth="yes"/>
      <point x="291" y="632"/>
      <point x="270" y="631"/>
      <point x="212" y="630" type="curve"/>
      <point x="212" y="397" type="line"/>
      <point x="247" y="396"/>
      <point x="283" y="396"/>
      <point x="319" y="396" type="curve" smooth="yes"/>
      <point x="421" y="396"/>
      <point x="495" y="433"/>
    </contour>
    <contour>
      <point x="1036" y="350" type="line"/>
      <point x="959" y="525" type="line"/>
      <point x="875" y="350" type="line"/>
    </contour>
  </outline>
</glyph>
<glyph name="bullet" format="1">
  <advance width="420"/>
  <outline>
    <contour>
      <point x="346" y="375" type="curve" smooth="yes"/>
      <point x="346" y="298"/>
      <point x="287" y="239"/>
      <point x="210" y="239" type="curve" smooth="yes"/>
      <point x="133" y="239"/>
      <point x="74" y="298"/>
      <point x="74" y="375" type="curve" smooth="yes"/>
      <point x="74" y="452"/>
      <point x="133" y="511"/>
      <point x="210" y="511" type="curve" smooth="yes"/>
      <point x="287" y="511"/>
      <point x="346" y="452"/>
    </contour>
  </outline>
</glyph>
<glyph name="macron" format="1">
  <advance width="500"/>
  <outline>
    <contour>
      <point x="385" y="767" type="line"/>
      <point x="115" y="767" type="line"/>
      <point x="115" y="836" type="line"/>
      <point x="385" y="836" type="line"/>
    </contour>
  </outline>
</glyph>
